<svg xmlns="http://www.w3.org/2000/svg" width="30.011" height="40.784" viewBox="0 0 30.011 40.784">
  <path id="Color_Overlay" data-name="Color Overlay" d="M1159.37,336.349a2.344,2.344,0,0,1-2.37-2.314V297.878a2.345,2.345,0,0,1,2.37-2.314h16.717a.8.8,0,0,1,.257.042h0l.01,0,.01,0h0a.814.814,0,0,1,.194.105.871.871,0,0,1,.077.064l10.135,9.64a.761.761,0,0,1,.239.578v28.033a2.345,2.345,0,0,1-2.369,2.314Zm-.79-38.47v36.157a.781.781,0,0,0,.79.771h25.272a.781.781,0,0,0,.789-.771V306.748h-9.345a.781.781,0,0,1-.79-.771v-8.869H1159.37A.782.782,0,0,0,1158.58,297.878Zm18.3,7.327h7.4l-5.967-5.676-1.436-1.365Zm-14.347,26.516a.772.772,0,1,1,0-1.543h18.954a.772.772,0,1,1,0,1.543Zm0-4.628a.772.772,0,1,1,0-1.543h18.954a.772.772,0,1,1,0,1.543Zm2.918-4.627a.78.78,0,0,1-.789-.771c0-3.626,1.277-5.8,3.8-6.494a7.457,7.457,0,0,1-.5-2.573c0-2.586,1.7-4.462,4.046-4.462s4.044,1.876,4.044,4.462a7.472,7.472,0,0,1-.493,2.562c2.522.678,3.8,2.86,3.8,6.505a.78.78,0,0,1-.79.771Zm.813-1.543h11.494c-.187-3.2-1.561-4.06-2.909-4.316a3.588,3.588,0,0,1-2.548,1.757h0l-.022,0h-.006l-.021,0h-.008l-.026,0-.029,0h0l-.023,0h-.3l-.02,0h-.007l-.027,0h-.006l-.02,0h-.039l-.017,0h-.008l-.022,0h-.005a3.6,3.6,0,0,1-2.514-1.745C1167.89,316.876,1166.457,317.737,1166.26,320.924Zm3.281-8.3a6.1,6.1,0,0,0,.713,2.744l.022.038a2.965,2.965,0,0,0,1.346,1.36l.02.006.008,0,.023.008h0a1.167,1.167,0,0,0,.24.047h0l.057,0h.067l.057,0h0a1.172,1.172,0,0,0,.239-.047h0l.024-.008.008,0,.02-.007a2.973,2.973,0,0,0,1.345-1.36l.011-.02a6.089,6.089,0,0,0,.723-2.762c0-1.72-1.013-2.92-2.464-2.92S1169.54,310.908,1169.54,312.628Z" transform="translate(-1157 -295.565)" fill="#616161"/>
</svg>
