<svg xmlns="http://www.w3.org/2000/svg" width="163.001" height="46.001" viewBox="0 0 163.001 46.001">
  <g id="Vector_Smart_Object_copy_3" data-name="Vector Smart Object copy 3" transform="translate(-385.313 -2812.238)">
    <g id="Vector_Smart_Object_copy_3-2" data-name="Vector Smart Object copy 3" transform="translate(370.993 2800.726)">
      <g id="그룹_125" data-name="그룹 125">
        <g id="그룹_119" data-name="그룹 119">
          <path id="패스_479" data-name="패스 479" d="M69.124,30.026c0,6.591-2.474,9.546-6.2,9.546s-6.22-2.955-6.22-9.546,2.5-9.546,6.22-9.546S69.124,23.435,69.124,30.026Zm-8.556,0c0,4.5,1.041,5.911,2.359,5.911,1.3,0,2.336-1.408,2.336-5.911,0-4.48-1.04-5.911-2.336-5.911C61.609,24.115,60.568,25.546,60.568,30.026Zm14.661,10.25H71.321V20.245h3.908Z" fill="#302d2c"/>
          <path id="패스_480" data-name="패스 480" d="M96.064,20.245V40.276H92.156V31.5H89.543c-.347,5.559-2.659,8.068-6.058,8.068-3.677,0-6.128-2.955-6.128-9.546s2.451-9.546,6.128-9.546c3.237,0,5.5,2.275,6.011,7.318h2.66V20.245ZM85.728,30.026c0-4.48-.972-5.911-2.243-5.911-1.3,0-2.267,1.431-2.267,5.911,0,4.5.971,5.911,2.267,5.911C84.756,35.937,85.728,34.529,85.728,30.026Z" fill="#302d2c"/>
        </g>
        <g id="그룹_121" data-name="그룹 121">
          <g id="그룹_120" data-name="그룹 120">
            <path id="패스_481" data-name="패스 481" d="M114.617,38.077l-7.638,2.334H98.85V20.245h8.129l7.638,2.335Zm-7.638-14.429h-3.992V37.009h3.992l3.5-1.118V24.765Z" fill="#d37723"/>
            <path id="패스_482" data-name="패스 482" d="M127.177,29.881l-3.795-.745-3.329,1.838v9.164h-4.088V25.66h4.088v1.688l3.329-1.764,3.795.771Z" fill="#d37723"/>
            <path id="패스_483" data-name="패스 483" d="M131.756,34.625v2.037l3.3.72L141.6,36.09v3.278l-6.537,1.291-7.394-1.613V26.9l7.443-1.639,6.88,1.514v7.848Zm0-3.08H137.9V29.136l-2.791-.621-3.354.72Z" fill="#d37723"/>
            <path id="패스_484" data-name="패스 484" d="M143.361,26.628l6.146-1.366,7.516,1.614V39.045l-7.394,1.613L142.6,39.045V32.365l6.635-1.415,3.721.421v-2.16l-3.451-.7-6.146,1.342Zm3.3,7.873v2.185l2.963.7,3.329-.7v-2.26L149.237,34Z" fill="#d37723"/>
            <path id="패스_485" data-name="패스 485" d="M165.714,40.162v-11l-1.934-.546-1.64.5V40.162h-4.015V26.975l5.655-1.713,3.942,1.143,3.942-1.143,5.656,1.713V40.162H173.3V29.111l-1.64-.5-1.934.546v11Z" fill="#d37723"/>
          </g>
        </g>
        <g id="그룹_124" data-name="그룹 124">
          <g id="그룹_123" data-name="그룹 123">
            <g id="그룹_122" data-name="그룹 122">
              <path id="패스_486" data-name="패스 486" d="M17.871,31.334a8.245,8.245,0,0,1-3.552.869V28.912a4.746,4.746,0,0,0,2.833-1.17,5.274,5.274,0,0,0,1.6-2.514h-4.2V22.076h4.294V20.245h3.93v1.831h4.3v2.271h2.01V20.593h3.861V32.342H29.077V27.823H26.518v-2.6H22.7a9.347,9.347,0,0,1-.319,1.089l5.255,2.874L25.9,32.063l-5.209-2.92A9.148,9.148,0,0,1,17.871,31.334Zm12.84,2.2a3.161,3.161,0,0,1,0,6.141,18.359,18.359,0,0,1-6.5.939,18.351,18.351,0,0,1-6.5-.939,3.161,3.161,0,0,1,0-6.141,18.351,18.351,0,0,1,6.5-.939A18.359,18.359,0,0,1,30.711,33.535Zm-3,3.858q1.279-.232,1.279-.787,0-1.02-4.775-1.02t-4.775,1.02q0,.555,1.279.787a20.6,20.6,0,0,0,3.5.232A20.617,20.617,0,0,0,27.707,37.393Z" fill="#0a347f"/>
              <path id="패스_487" data-name="패스 487" d="M46.2,33.13a24.506,24.506,0,0,1-2.661.139H35.36V20.708h3.906V30.07H43.7a16.033,16.033,0,0,0,4.5-.463v3.151A10.753,10.753,0,0,1,46.2,33.13Zm7.847,3.8v3.453H36.319V34.334h3.93v2.6ZM49.98,28.958H44.086V25.9H49.98V24.856H44.086V21.8H49.98V20.593h3.792V35.308H49.98Z" fill="#0a347f"/>
            </g>
          </g>
        </g>
        <path id="패스_488" data-name="패스 488" d="M23.738,57.512v-7.2H15.3l4.213-3.848h8.017v3.364l4.437-3.364h18.09l3.794-3.148v7H33.229Z" fill="#0a347f"/>
        <path id="패스_489" data-name="패스 489" d="M17.917,11.512l-3.3,3.343v3.019h3.251V14.81H50.6v3.065l3.251-3.065v-3.3Z" fill="#0a347f"/>
      </g>
    </g>
    <path id="Color_Overlay" data-name="Color Overlay" d="M394.731,2851.042H386.3l4.212-3.848h8.018v3.363l4.436-3.363h18.09l3.794-3.148v7H404.222l-9.491,7.2ZM513.6,2839.772v-6.681l6.635-1.416,3.721.42v-2.159l-3.451-.7-6.146,1.343v-3.229l6.146-1.365,7.515,1.613v12.171l-7.393,1.614Zm4.063-4.546v2.186l2.963.7,3.329-.7v-2.261l-3.721-.421Zm-19,4.546v-12.146l7.443-1.638,6.88,1.513v7.849H502.75v2.037l3.3.721,6.537-1.292v3.278l-6.537,1.292Zm4.09-9.812v2.31h6.144v-2.408l-2.791-.622ZM388.706,2840.4a3.16,3.16,0,0,1,0-6.14,22.969,22.969,0,0,1,13,0,3.16,3.16,0,0,1,0,6.14,22.969,22.969,0,0,1-13,0Zm1.724-3.069c0,.371.427.632,1.28.787a26.424,26.424,0,0,0,6.99,0c.853-.156,1.279-.417,1.279-.787q0-1.019-4.775-1.021T390.43,2837.332Zm79.414,3.8v-20.164h8.129l7.637,2.334v15.5l-7.637,2.333Zm4.136-3.4h3.992l3.5-1.119v-11.124l-3.5-1.119H473.98Zm-66.668,3.375v-6.05h3.93v2.6h13.8v3.454Zm55.837-.108v-8.771h-2.613c-.346,5.559-2.66,8.067-6.058,8.067-3.677,0-6.128-2.956-6.128-9.545s2.451-9.545,6.128-9.545c3.236,0,5.5,2.273,6.011,7.318h2.66v-7.553h3.908V2841Zm-10.938-10.249c0,4.5.971,5.911,2.267,5.911,1.271,0,2.243-1.408,2.243-5.911,0-4.48-.972-5.911-2.243-5.911C453.182,2824.841,452.211,2826.272,452.211,2830.752Zm-9.9,10.249v-20.03h3.908V2841Zm101.983-.113v-11.051l-1.641-.5-1.934.545v11h-4.015v-11l-1.934-.545-1.641.5v11.051h-4.015V2827.7l5.656-1.713,3.941,1.142,3.942-1.142,5.656,1.713v13.187Zm-57.34-.025v-14.476h4.089v1.688l3.329-1.765,3.8.771v3.525l-3.8-.744-3.329,1.837v9.164ZM427.7,2830.752c0-6.592,2.5-9.545,6.221-9.545s6.2,2.954,6.2,9.545-2.473,9.545-6.2,9.545S427.7,2837.342,427.7,2830.752Zm3.862,0c0,4.5,1.041,5.911,2.359,5.911,1.3,0,2.335-1.408,2.335-5.911,0-4.48-1.04-5.911-2.335-5.911C432.6,2824.841,431.562,2826.272,431.562,2830.752Zm-10.588,5.281v-6.349H415.08v-3.059h5.894v-1.043H415.08v-3.058h5.894v-1.205h3.792v14.714Zm-14.621-2.038v-12.562h3.906v9.364h4.432a16,16,0,0,0,4.5-.464v3.152a10.771,10.771,0,0,1-2,.371,24.634,24.634,0,0,1-2.66.14Zm-6.283-.927v-4.519h-2.559v-2.6H393.7a9.433,9.433,0,0,1-.319,1.088l5.254,2.875-1.736,2.874-5.209-2.919a9.163,9.163,0,0,1-2.822,2.19,8.252,8.252,0,0,1-3.552.868v-3.29a4.741,4.741,0,0,0,2.833-1.17,5.276,5.276,0,0,0,1.6-2.514h-4.2V2822.8h4.295v-1.831h3.929v1.831h4.3v2.27h2.01v-3.753h3.861v11.749Zm21.523-17.532H388.866v3.065h-3.251v-3.019l3.3-3.344h35.935v3.3l-3.252,3.065Z" fill="#c8c8c8"/>
  </g>
</svg>
