<svg xmlns="http://www.w3.org/2000/svg" xmlns:xlink="http://www.w3.org/1999/xlink" width="17.5" height="17.5" viewBox="0 0 17.5 17.5">
  <defs>
    <clipPath id="clip-path">
      <rect id="사각형_28" data-name="사각형 28" width="17.5" height="17.5" fill="none"/>
    </clipPath>
  </defs>
  <g id="Vector_Smart_Object" data-name="Vector Smart Object" transform="translate(-1354 -143.646)">
    <g id="Vector_Smart_Object-2" data-name="Vector Smart Object" transform="translate(1354 143.646)">
      <g id="그룹_47" data-name="그룹 47">
        <g id="그룹_46" data-name="그룹 46" clip-path="url(#clip-path)">
          <path id="패스_55" data-name="패스 55" d="M16.888,12.486h-2.92l-.612-.61V10.557a.71.71,0,0,0-.71-.708H4.855a.71.71,0,0,0-.71.708v1.319l-.612.61H.612L0,11.876v-6.5A1.934,1.934,0,0,1,1.934,3.448H15.566A1.934,1.934,0,0,1,17.5,5.377v6.5ZM14.58,11.265h1.7V5.377a.71.71,0,0,0-.71-.708H1.934a.71.71,0,0,0-.71.708v5.888h1.7v-.708A1.934,1.934,0,0,1,4.855,8.628h7.79a1.934,1.934,0,0,1,1.935,1.929Z" fill="#284a72"/>
          <path id="패스_56" data-name="패스 56" d="M13.968,4.669H3.532l-.612-.61V.61L3.532,0H13.968l.612.61V4.059ZM4.145,3.448h9.211V1.221H4.145Z" fill="#284a72"/>
          <path id="패스_57" data-name="패스 57" d="M13.968,17.5H3.532l-.612-.61V10.557A1.934,1.934,0,0,1,4.855,8.628h7.79a1.934,1.934,0,0,1,1.934,1.929V16.89ZM4.145,16.279h9.211V10.557a.71.71,0,0,0-.71-.708H4.855a.71.71,0,0,0-.71.708Z" fill="#284a72"/>
        </g>
      </g>
    </g>
    <path id="Color_Overlay" data-name="Color Overlay" d="M1357.532,161.146l-.612-.61v-4.4h-2.309l-.612-.611v-6.5a1.934,1.934,0,0,1,1.934-1.93h.986v-2.838l.612-.61h10.436l.612.61v2.838h.986a1.935,1.935,0,0,1,1.934,1.872v6.557l-.612.61h-2.308v4.4l-.612.61Zm.612-6.943v5.722h9.211V154.2a.71.71,0,0,0-.71-.708h-7.79A.71.71,0,0,0,1358.144,154.2Zm8.5-1.929a1.934,1.934,0,0,1,1.935,1.929v.708h1.7v-5.888a.71.71,0,0,0-.71-.708h-13.631a.71.71,0,0,0-.71.708v5.888h1.7V154.2a1.933,1.933,0,0,1,1.934-1.929Zm-8.5-5.18h9.211v-2.228h-9.211Z" fill="#747474"/>
  </g>
</svg>
