<svg xmlns="http://www.w3.org/2000/svg" xmlns:xlink="http://www.w3.org/1999/xlink" width="17" height="20" viewBox="0 0 17 20">
  <defs>
    <clipPath id="clip-path">
      <rect id="사각형_24" data-name="사각형 24" width="17" height="20" fill="none"/>
    </clipPath>
  </defs>
  <g id="Vector_Smart_Object" data-name="Vector Smart Object" transform="translate(-1468 -3286)">
    <g id="Vector_Smart_Object-2" data-name="Vector Smart Object" transform="translate(1468 3286)">
      <g id="그룹_39" data-name="그룹 39">
        <g id="그룹_38" data-name="그룹 38" clip-path="url(#clip-path)">
          <path id="패스_51" data-name="패스 51" d="M17,13.606V1.313A1.317,1.317,0,0,0,15.682,0H12.457A1.32,1.32,0,0,0,11.2.911,7.957,7.957,0,0,0,7.456.053,8.371,8.371,0,0,0,6.54.1H3.681A2.272,2.272,0,0,0,1.407,2.363a2.242,2.242,0,0,0,.312,1.143A2.258,2.258,0,0,0,.871,7.022a2.256,2.256,0,0,0,0,3.562,2.247,2.247,0,0,0-.519,1.438,2.272,2.272,0,0,0,2.274,2.265H7.572a22.71,22.71,0,0,0-.243,2.832,2.685,2.685,0,0,0,2.184,2.85A1.932,1.932,0,0,0,11.843,17.9a10.639,10.639,0,0,1,.306-3.02,1.317,1.317,0,0,0,.308.038h3.225A1.317,1.317,0,0,0,17,13.606M11.139,2.417V13.581c0,.013,0,.025,0,.038a11.964,11.964,0,0,0-.611,4.325.628.628,0,0,1-.8.708c-.682-.111-1.077-.681-1.081-1.564a27.477,27.477,0,0,1,.329-3.354l0-.033a.656.656,0,0,0-.651-.747h-5.7a.955.955,0,1,1,0-1.91.655.655,0,1,0,0-1.31H2.275a.955.955,0,1,1,0-1.911h.351a.655.655,0,1,0,0-1.31.955.955,0,1,1,0-1.91H3.681a.655.655,0,1,0,0-1.31.955.955,0,1,1,0-1.91h2.9a.621.621,0,0,0,.085-.006c.028,0,2.8-.337,4.474,1.039m4.544,11.035-3.229,0,0-12.3,3.228,0Z" fill="#444"/>
        </g>
      </g>
    </g>
    <path id="Color_Overlay" data-name="Color Overlay" d="M1477.868,3306a2.382,2.382,0,0,1-.354-.031,2.685,2.685,0,0,1-2.184-2.849,22.6,22.6,0,0,1,.243-2.831h-4.946a2.272,2.272,0,0,1-2.274-2.265,2.254,2.254,0,0,0-.352-3.219,2.255,2.255,0,0,0,.352-3.22,2.267,2.267,0,0,1,1.366-2.076,2.243,2.243,0,0,1-.311-1.143,2.271,2.271,0,0,1,2.274-2.264h2.858a8.305,8.305,0,0,1,.917-.046,7.955,7.955,0,0,1,3.746.858,1.32,1.32,0,0,1,1.255-.911h3.225a1.317,1.317,0,0,1,1.318,1.313v12.292a1.317,1.317,0,0,1-1.318,1.313h-3.225a1.332,1.332,0,0,1-.308-.038,10.629,10.629,0,0,0-.306,3.02,2.008,2.008,0,0,1-.638,1.62,1.922,1.922,0,0,1-1.273.479Zm-8.553-11.221a.959.959,0,0,0,.959.955h.352a.655.655,0,1,1,0,1.31.955.955,0,1,0,0,1.91h5.7a.657.657,0,0,1,.652.747l-.005.033a27.441,27.441,0,0,0-.329,3.354c.005.883.4,1.453,1.082,1.564a.628.628,0,0,0,.8-.708,11.976,11.976,0,0,1,.611-4.324c0-.013,0-.025,0-.038v-11.164c-1.675-1.376-4.446-1.042-4.474-1.04a.55.55,0,0,1-.085.006h-2.9a.955.955,0,1,0,0,1.91.655.655,0,1,1,0,1.31h-1.055a.955.955,0,1,0,0,1.91.655.655,0,1,1,0,1.31h-.352A.959.959,0,0,0,1469.315,3294.779Zm11.138,4.67,3.229,0,0-12.3-3.228,0Z" fill="#858585"/>
  </g>
</svg>
