<svg xmlns="http://www.w3.org/2000/svg" xmlns:xlink="http://www.w3.org/1999/xlink" width="21" height="20" viewBox="0 0 21 20">
  <defs>
    <clipPath id="clip-path">
      <rect id="사각형_23" data-name="사각형 23" width="21" height="20" transform="translate(0 0)" fill="none"/>
    </clipPath>
  </defs>
  <g id="Vector_Smart_Object" data-name="Vector Smart Object" transform="translate(-1414 -46)">
    <g id="Vector_Smart_Object-2" data-name="Vector Smart Object" transform="translate(1414 46)">
      <g id="그룹_48" data-name="그룹 48">
        <g id="그룹_47" data-name="그룹 47" clip-path="url(#clip-path)">
          <path id="패스_243" data-name="패스 243" d="M19.865,20a1.161,1.161,0,0,1-.806-.319L14.174,15a8.988,8.988,0,0,1-11.6-.7,8.109,8.109,0,0,1,0-11.851,9.123,9.123,0,0,1,12.444,0,8.1,8.1,0,0,1,.765,11.02l4.888,4.686a1.045,1.045,0,0,1-.005,1.529,1.16,1.16,0,0,1-.8.314M8.795,2.162A6.679,6.679,0,0,0,4.178,3.98a6.017,6.017,0,0,0,0,8.793c3.488,3.322,7.727,1.435,9.233,0a6.017,6.017,0,0,0,0-8.793A6.679,6.679,0,0,0,8.795,2.162" fill="#2f2f2f"/>
        </g>
      </g>
    </g>
    <path id="Color_Overlay" data-name="Color Overlay" d="M1433.059,65.681,1428.173,61a8.988,8.988,0,0,1-11.6-.7,8.11,8.11,0,0,1,0-11.851A9,9,0,0,1,1422.734,46h.122a9,9,0,0,1,6.161,2.451,8.1,8.1,0,0,1,.765,11.021l4.889,4.685a1.052,1.052,0,0,1,.329.737v.049a1.052,1.052,0,0,1-.335.743,1.177,1.177,0,0,1-1.606,0Zm-14.881-15.7a6.017,6.017,0,0,0,0,8.793c3.488,3.322,7.727,1.435,9.232,0a6.017,6.017,0,0,0,0-8.793,6.77,6.77,0,0,0-9.232,0Z" fill="#555656"/>
  </g>
</svg>
