<svg xmlns="http://www.w3.org/2000/svg" xmlns:xlink="http://www.w3.org/1999/xlink" width="21.201" height="19.182" viewBox="0 0 21.201 19.182">
  <defs>
    <clipPath id="clip-path">
      <rect id="사각형_9" data-name="사각형 9" width="21.201" height="19.182" fill="none"/>
    </clipPath>
  </defs>
  <g id="Vector_Smart_Object_copy_5" data-name="Vector Smart Object copy 5" transform="translate(-384.303 -2723.597)">
    <g id="Vector_Smart_Object_copy_5-2" data-name="Vector Smart Object copy 5" transform="translate(384.303 2723.597)">
      <g id="그룹_18" data-name="그룹 18">
        <g id="그룹_17" data-name="그룹 17" clip-path="url(#clip-path)">
          <path id="패스_33" data-name="패스 33" d="M10.64,19.182h-.079a1.067,1.067,0,0,1-.451-.1A18.075,18.075,0,0,1,.578,9.15a9.575,9.575,0,0,1-.49-4.486c0-.015.005-.031.008-.046A5.565,5.565,0,0,1,5.791.013,5.827,5.827,0,0,1,10.6,2.537,5.825,5.825,0,0,1,15.41,0,5.559,5.559,0,0,1,21.1,4.592c0,.015.006.031.008.046a9.712,9.712,0,0,1-.49,4.509,18.075,18.075,0,0,1-9.533,9.934,1.067,1.067,0,0,1-.451.1M2.206,5.01A7.464,7.464,0,0,0,2.58,8.375c.008.019.015.038.021.057a15.987,15.987,0,0,0,8,8.493,15.986,15.986,0,0,0,8-8.493c.006-.018.012-.035.019-.053A7.584,7.584,0,0,0,19,4.984,3.443,3.443,0,0,0,15.41,2.158a3.694,3.694,0,0,0-3.671,3.28,1.632,1.632,0,0,1-.086.46,1.106,1.106,0,0,1-1.043.756c-.226,0-.977-.082-1.14-1.14,0-.016,0-.031-.006-.047a3.691,3.691,0,0,0-3.673-3.3A3.449,3.449,0,0,0,2.206,5.01"/>
        </g>
      </g>
    </g>
    <path id="Color_Overlay" data-name="Color Overlay" d="M394.864,2742.779a1.069,1.069,0,0,1-.45-.1,18.077,18.077,0,0,1-9.533-9.932,9.58,9.58,0,0,1-.49-4.486.409.409,0,0,1,.008-.046,5.565,5.565,0,0,1,5.694-4.605,5.828,5.828,0,0,1,4.807,2.524,5.824,5.824,0,0,1,4.812-2.537,5.56,5.56,0,0,1,5.7,4.592l.008.047a8.17,8.17,0,0,1,.087,1.109v.2a9.987,9.987,0,0,1-.577,3.2,18.074,18.074,0,0,1-9.533,9.934,1.07,1.07,0,0,1-.451.1Zm-8.355-14.172a7.468,7.468,0,0,0,.374,3.366c.008.019.014.038.022.058a15.981,15.981,0,0,0,8,8.492,15.987,15.987,0,0,0,8-8.492c.005-.018.012-.035.019-.053a7.585,7.585,0,0,0,.377-3.4,3.443,3.443,0,0,0-3.586-2.826,3.693,3.693,0,0,0-3.67,3.28,1.643,1.643,0,0,1-.086.461,1.107,1.107,0,0,1-1.043.755c-.227,0-.977-.082-1.14-1.139,0-.015,0-.031-.005-.048a3.691,3.691,0,0,0-3.674-3.3A3.448,3.448,0,0,0,386.51,2728.606Z" fill="#2b4390"/>
  </g>
</svg>
