<svg xmlns="http://www.w3.org/2000/svg" width="11.894" height="15.621" viewBox="0 0 11.894 15.621">
  <g id="그룹_164" data-name="그룹 164" transform="translate(-1544.949 -222.939)">
    <path id="패스_292" data-name="패스 292" d="M48.133,12.647a3.063,3.063,0,0,1-.821-.112.479.479,0,1,1,.257-.923,2.1,2.1,0,0,0,2.06-.549L52.61,8.025a2.1,2.1,0,0,0-3-2.94L46.632,8.123A2.083,2.083,0,0,0,46.1,10.1a.479.479,0,1,1-.929.233,3.034,3.034,0,0,1,.78-2.885l2.982-3.038A3.056,3.056,0,1,1,53.293,8.7l-2.982,3.039a3.053,3.053,0,0,1-2.179.913" transform="translate(1502.27 219.844)" fill="#fff"/>
    <path id="패스_292_-_윤곽선" data-name="패스 292 - 윤곽선" d="M47.69,12.263a3.123,3.123,0,0,1-.837-.114.537.537,0,1,1,.288-1.034,2.045,2.045,0,0,0,1.334-.081,2.02,2.02,0,0,0,.67-.453l2.982-3.038a2.041,2.041,0,1,0-2.913-2.859L46.231,7.721a2.026,2.026,0,0,0-.52,1.926.537.537,0,1,1-1.041.261,3.091,3.091,0,0,1,.795-2.939l2.982-3.038a3.114,3.114,0,1,1,4.445,4.362l-2.982,3.039a3.11,3.11,0,0,1-2.22.931ZM47,11.21a.421.421,0,0,0-.113.827,3,3,0,0,0,1.959-.12,2.971,2.971,0,0,0,.985-.666L52.81,8.213a3,3,0,0,0-4.28-4.2L45.548,7.051a2.976,2.976,0,0,0-.765,2.83.421.421,0,1,0,.817-.205,2.14,2.14,0,0,1,.55-2.035L49.13,4.6a2.157,2.157,0,0,1,3.079,3.021l-2.982,3.038a2.152,2.152,0,0,1-1.537.644,2.165,2.165,0,0,1-.58-.079A.422.422,0,0,0,47,11.21Z" transform="translate(1502.712 220.286)" fill="#fff"/>
    <path id="패스_293_-_윤곽선" data-name="패스 293 - 윤곽선" d="M45.035,9.956a3.47,3.47,0,0,1-.93-.127.884.884,0,1,1,.474-1.7,1.7,1.7,0,0,0,1.663-.443l2.982-3.038a1.694,1.694,0,0,0-2.418-2.373L43.824,5.311a1.681,1.681,0,0,0-.431,1.6.883.883,0,1,1-1.714.43,3.436,3.436,0,0,1,.884-3.267l2.982-3.038a3.461,3.461,0,1,1,4.941,4.848L47.5,8.922A3.478,3.478,0,0,1,45.035,9.956Zm-.713-.907a2.653,2.653,0,0,0,2.6-.695l2.982-3.039A2.652,2.652,0,0,0,46.122,1.6L43.141,4.64a2.632,2.632,0,0,0-.676,2.5L43,7.008l-.393.1a2.485,2.485,0,0,1,.638-2.363l2.982-3.038A2.5,2.5,0,0,1,49.8,5.213L46.82,8.251a2.5,2.5,0,0,1-2.458.656l-.04.143Z" transform="translate(1505.367 222.939)" fill="#fff"/>
    <path id="패스_294" data-name="패스 294" d="M6.556,130.951a3.055,3.055,0,0,1-2.181-5.2l2.982-3.038a3.056,3.056,0,0,1,3-.8.479.479,0,0,1-.257.923,2.1,2.1,0,0,0-2.06.549l-2.982,3.038a2.1,2.1,0,1,0,3,2.94l2.982-3.038a2.083,2.083,0,0,0,.535-1.981.479.479,0,0,1,.929-.233A3.034,3.034,0,0,1,11.72,127l-2.982,3.038a3.048,3.048,0,0,1-2.182.914" transform="translate(1541.854 107.205)" fill="#fff"/>
    <path id="패스_294_-_윤곽선" data-name="패스 294 - 윤곽선" d="M6.114,130.566h0a3.113,3.113,0,0,1-2.222-5.294l2.982-3.038a3.11,3.11,0,0,1,2.22-.931,3.123,3.123,0,0,1,.837.114.537.537,0,1,1-.288,1.034,2.046,2.046,0,0,0-1.334.081,2.019,2.019,0,0,0-.67.453l-2.982,3.038a2.041,2.041,0,1,0,2.913,2.859l2.982-3.038a2.026,2.026,0,0,0,.52-1.926.537.537,0,1,1,1.041-.261,3.091,3.091,0,0,1-.795,2.939l-2.982,3.039a3.105,3.105,0,0,1-2.223.932Zm2.98-9.147a2.995,2.995,0,0,0-2.138.9l-2.982,3.038a3,3,0,0,0,2.14,5.1v0a2.99,2.99,0,0,0,2.14-.9l2.982-3.039a2.976,2.976,0,0,0,.765-2.83.421.421,0,1,0-.817.205,2.14,2.14,0,0,1-.55,2.035l-2.982,3.038a2.157,2.157,0,1,1-3.078-3.021L7.557,122.9a2.152,2.152,0,0,1,1.537-.644,2.165,2.165,0,0,1,.58.079.421.421,0,0,0,.226-.811A3.007,3.007,0,0,0,9.094,121.419Z" transform="translate(1542.296 107.647)" fill="#fff"/>
    <path id="패스_295" data-name="패스 295" d="M6.556,130.951a3.055,3.055,0,0,1-2.181-5.2l2.982-3.038a3.056,3.056,0,0,1,3-.8.479.479,0,0,1-.257.923,2.1,2.1,0,0,0-2.06.549l-2.982,3.038a2.1,2.1,0,1,0,3,2.94l2.982-3.038a2.083,2.083,0,0,0,.535-1.981.479.479,0,0,1,.929-.233A3.034,3.034,0,0,1,11.72,127l-2.982,3.038A3.048,3.048,0,0,1,6.556,130.951Z" transform="translate(1541.854 107.205)" fill="#fff"/>
    <path id="패스_295_-_윤곽선" data-name="패스 295 - 윤곽선" d="M3.461,128.26h0a3.46,3.46,0,0,1-2.47-5.884l2.982-3.038a3.462,3.462,0,0,1,3.4-.908.884.884,0,1,1-.474,1.7,1.7,1.7,0,0,0-1.663.443l-2.982,3.038a1.694,1.694,0,0,0,2.418,2.373l2.982-3.038a1.681,1.681,0,0,0,.431-1.6.883.883,0,1,1,1.714-.43,3.436,3.436,0,0,1-.884,3.267l-2.982,3.039a3.435,3.435,0,0,1-2.471,1.035Zm2.98-9.147a2.664,2.664,0,0,0-1.89.792l-2.982,3.038a2.65,2.65,0,0,0,1.892,4.507h0a2.632,2.632,0,0,0,1.893-.793l2.982-3.038a2.632,2.632,0,0,0,.676-2.5l-.144.036a2.485,2.485,0,0,1-.638,2.363l-2.982,3.038a2.5,2.5,0,1,1-3.574-3.507l2.982-3.038a2.5,2.5,0,0,1,2.458-.656l.04-.143A2.66,2.66,0,0,0,6.441,119.112Z" transform="translate(1544.949 110.3)" fill="#fff"/>
  </g>
</svg>
