<svg xmlns="http://www.w3.org/2000/svg" width="108.109" height="101.2" viewBox="0 0 108.109 101.2">
  <g id="그룹_167" data-name="그룹 167" transform="translate(0 0.001)">
    <g id="그룹_181" data-name="그룹 181">
      <path id="패스_355" data-name="패스 355" d="M99.752,101.2H8.357A8.366,8.366,0,0,1,0,92.843V18.307A8.367,8.367,0,0,1,8.357,9.949H99.752a8.366,8.366,0,0,1,8.357,8.358V92.843a8.365,8.365,0,0,1-8.357,8.356M8.357,16.672a1.656,1.656,0,0,0-1.635,1.635V92.843a1.656,1.656,0,0,0,1.635,1.634H99.752a1.656,1.656,0,0,0,1.634-1.634V18.307a1.656,1.656,0,0,0-1.634-1.635Z" fill="#2b4390"/>
      <path id="패스_356" data-name="패스 356" d="M33.93,18.144a4.722,4.722,0,0,1-4.51,4.908,4.722,4.722,0,0,1-4.51-4.908V4.91A4.724,4.724,0,0,1,29.42,0,4.724,4.724,0,0,1,33.93,4.91Z" fill="#2b4390"/>
      <path id="패스_357" data-name="패스 357" d="M84.045,18.144a4.526,4.526,0,1,1-9.02,0V4.91a4.526,4.526,0,1,1,9.02,0Z" fill="#2b4390"/>
      <path id="패스_358" data-name="패스 358" d="M58.988,18.144a4.527,4.527,0,1,1-9.021,0V4.91a4.527,4.527,0,1,1,9.021,0Z" fill="#2b4390"/>
      <path id="패스_359" data-name="패스 359" d="M103.789,32.93H4.322a3.361,3.361,0,0,1,0-6.723h99.467a3.361,3.361,0,0,1,0,6.723" fill="#2b4390"/>
      <path id="패스_360" data-name="패스 360" d="M33.289,73.949l5.785-6.721c3.555-4.15,6.34-7.848,6.34-11.681,0-3.52-1.8-4.6-4.455-4.6a16.615,16.615,0,0,0-6.342,2.12L33.2,47.246a17.4,17.4,0,0,1,8.826-2.481c6.77,0,10.541,3.248,10.541,9.608,0,6.18-4.457,11.953-7.67,15.516l-2.271,2.527H52.4V78.5H33.289Z" fill="#2b4390"/>
      <path id="패스_361" data-name="패스 361" d="M56.3,76.7l1.627-5.909a12.771,12.771,0,0,0,5.742,1.849c3.428,0,5.442-1.443,5.442-4.781,0-3.562-2.358-4.736-5.786-4.736A16.5,16.5,0,0,0,57.2,64.748L58.227,45.4H74.594v6.044H63.711l-.258,6.225a12.809,12.809,0,0,1,3.129-.451c5.571,0,9.34,3.608,9.34,10.735,0,6.5-4.455,11.141-10.926,11.141A17.335,17.335,0,0,1,56.3,76.7" fill="#2b4390"/>
    </g>
  </g>
</svg>
