<?xml version="1.0" encoding="utf-8"?>
<!-- Generator: Adobe Illustrator 27.8.1, SVG Export Plug-In . SVG Version: 6.00 Build 0)  -->
<svg version="1.1" id="레이어_1" xmlns="http://www.w3.org/2000/svg" xmlns:xlink="http://www.w3.org/1999/xlink" x="0px"
	 y="0px" viewBox="0 0 22 18" style="enable-background:new 0 0 22 18;" xml:space="preserve">
<style type="text/css">
	.st0{fill:#232423;}
	.st1{fill:#555656;}
</style>
<g id="Vector_Smart_Object-2" transform="translate(1507.512 -17.602)">
	<path id="사각형_17" class="st0" d="M-1505.9,17.6h18.8c0.9,0,1.6,0.7,1.6,1.6l0,0c0,0.9-0.7,1.6-1.6,1.6h-18.8
		c-0.9,0-1.6-0.7-1.6-1.6l0,0C-1507.5,18.3-1506.8,17.6-1505.9,17.6z"/>
	<path id="사각형_18" class="st0" d="M-1505.9,25h18.8c0.9,0,1.6,0.7,1.6,1.6l0,0c0,0.9-0.7,1.6-1.6,1.6h-18.8
		c-0.9,0-1.6-0.7-1.6-1.6l0,0C-1507.5,25.7-1506.8,25-1505.9,25z"/>
	<path id="사각형_19" class="st0" d="M-1505.9,32.4h18.8c0.9,0,1.6,0.7,1.6,1.6l0,0c0,0.9-0.7,1.6-1.6,1.6h-18.8
		c-0.9,0-1.6-0.7-1.6-1.6l0,0C-1507.5,33.1-1506.8,32.4-1505.9,32.4z"/>
</g>
<path class="st1" d="M1.6,18C0.7,18,0,17.3,0,16.4c0-0.9,0.7-1.6,1.6-1.6c0,0,0,0,0,0h18.8c0.9,0,1.6,0.7,1.6,1.6
	c0,0.9-0.7,1.6-1.6,1.6c0,0,0,0,0,0H1.6z"/>
<path class="st1" d="M1.6,10.6C0.7,10.6,0,9.9,0,9c0-0.9,0.7-1.6,1.6-1.6c0,0,0,0,0,0h18.8C21.3,7.4,22,8.1,22,9
	c0,0.9-0.7,1.6-1.6,1.6c0,0,0,0,0,0H1.6z"/>
<path class="st1" d="M1.6,3.2C0.7,3.2,0,2.5,0,1.6C0,0.7,0.7,0,1.6,0c0,0,0,0,0,0h18.8C21.3,0,22,0.7,22,1.6c0,0.9-0.7,1.6-1.6,1.6
	c0,0,0,0,0,0H1.6z"/>
</svg>
