<svg xmlns="http://www.w3.org/2000/svg" xmlns:xlink="http://www.w3.org/1999/xlink" width="18.984" height="17.176" viewBox="0 0 18.984 17.176">
  <defs>
    <clipPath id="clip-path">
      <rect id="사각형_30" data-name="사각형 30" width="18.984" height="17.176" fill="none"/>
    </clipPath>
  </defs>
  <g id="Vector_Smart_Object" data-name="Vector Smart Object" transform="translate(-1276.605 -144.177)">
    <g id="Vector_Smart_Object-2" data-name="Vector Smart Object" transform="translate(1276.605 144.177)">
      <g id="그룹_51" data-name="그룹 51">
        <g id="그룹_50" data-name="그룹 50" clip-path="url(#clip-path)">
          <path id="패스_62" data-name="패스 62" d="M9.527,17.176H9.457a.955.955,0,0,1-.4-.089A16.185,16.185,0,0,1,.518,8.193,8.573,8.573,0,0,1,.079,4.176c0-.014,0-.028.007-.041A4.983,4.983,0,0,1,5.185.011a5.218,5.218,0,0,1,4.3,2.26A5.216,5.216,0,0,1,13.8,0a4.978,4.978,0,0,1,5.1,4.112c0,.014.005.028.007.041a8.7,8.7,0,0,1-.438,4.038,16.185,16.185,0,0,1-8.536,8.9.955.955,0,0,1-.4.089M1.975,4.486A6.684,6.684,0,0,0,2.311,7.5c.007.017.013.034.019.051a14.315,14.315,0,0,0,7.162,7.6,14.314,14.314,0,0,0,7.162-7.6c.005-.016.011-.032.017-.047a6.791,6.791,0,0,0,.337-3.041A3.083,3.083,0,0,0,13.8,1.932,3.308,3.308,0,0,0,10.512,4.87a1.461,1.461,0,0,1-.077.412.99.99,0,0,1-.934.677c-.2,0-.875-.074-1.021-1.021,0-.014,0-.028-.006-.042A3.3,3.3,0,0,0,5.185,1.944a3.088,3.088,0,0,0-3.21,2.542"/>
        </g>
      </g>
    </g>
    <path id="Color_Overlay" data-name="Color Overlay" d="M1286.061,161.353a.97.97,0,0,1-.4-.089,16.192,16.192,0,0,1-8.536-8.894,8.84,8.84,0,0,1-.518-2.874v-.124a7.443,7.443,0,0,1,.078-1.019c0-.014,0-.028.007-.041a4.985,4.985,0,0,1,5.1-4.123,5.227,5.227,0,0,0,8.614-.012,4.977,4.977,0,0,1,5.1,4.112c0,.014,0,.027.007.041a7.231,7.231,0,0,1,.078,1.008v.148a8.856,8.856,0,0,1-.517,2.881,16.182,16.182,0,0,1-8.536,8.9.958.958,0,0,1-.4.089Zm-7.482-12.69a6.714,6.714,0,0,0,.336,3.014c.007.017.014.034.02.051a7.175,7.175,0,1,0,14.325,0,.293.293,0,0,1,.017-.047,6.8,6.8,0,0,0,.337-3.041,3.084,3.084,0,0,0-3.21-2.531,3.308,3.308,0,0,0-3.288,2.938,1.43,1.43,0,0,1-.077.411.989.989,0,0,1-.934.677c-.2,0-.875-.073-1.02-1.021,0-.014,0-.028-.006-.042a3.3,3.3,0,0,0-3.289-2.952A3.09,3.09,0,0,0,1278.58,148.663Z" fill="#747474"/>
  </g>
</svg>
