<svg xmlns="http://www.w3.org/2000/svg" width="14.35" height="11.663" viewBox="0 0 14.35 11.663">
  <path id="패스_65" data-name="패스 65" d="M19.175,7.549a5.926,5.926,0,0,1-1.692.465,2.961,2.961,0,0,0,1.295-1.629,5.944,5.944,0,0,1-1.869.714,2.945,2.945,0,0,0-5.093,2.013,3.011,3.011,0,0,0,.076.672A8.366,8.366,0,0,1,5.823,6.709a2.949,2.949,0,0,0,.911,3.93A2.947,2.947,0,0,1,5.4,10.27v.038A2.949,2.949,0,0,0,7.763,13.2a3.038,3.038,0,0,1-.775.1,2.959,2.959,0,0,1-.556-.052,2.947,2.947,0,0,0,2.752,2.044,5.911,5.911,0,0,1-3.658,1.26,6.084,6.084,0,0,1-.7-.04A8.371,8.371,0,0,0,17.712,9.454c0-.126,0-.255-.008-.381a6.033,6.033,0,0,0,1.471-1.525" transform="translate(-4.825 -6.169)" fill="#fff"/>
</svg>
