<svg id="Vector_Smart_Object" data-name="Vector Smart Object" xmlns="http://www.w3.org/2000/svg" xmlns:xlink="http://www.w3.org/1999/xlink" width="19" height="21" viewBox="0 0 19 21">
  <defs>
    <clipPath id="clip-path">
      <rect id="사각형_25" data-name="사각형 25" width="19" height="21" fill="none"/>
    </clipPath>
  </defs>
  <g id="그룹_52" data-name="그룹 52">
    <g id="그룹_51" data-name="그룹 51" clip-path="url(#clip-path)">
      <path id="패스_246" data-name="패스 246" d="M2.5,16.264a1.5,1.5,0,0,1-1.279-.7,1.3,1.3,0,0,1,.248-1.658L2.8,12.719V7.908a6.979,6.979,0,0,1,6.7-6.9,6.979,6.979,0,0,1,6.7,6.9v4.811l1.335,1.19a1.3,1.3,0,0,1,.248,1.658,1.5,1.5,0,0,1-1.279.7Z" fill="none" stroke="#555656" stroke-linecap="round" stroke-linejoin="round" stroke-width="2.034"/>
      <path id="패스_247" data-name="패스 247" d="M13.2,16.339a3.7,3.7,0,0,1-7.408,0Z" fill="none" stroke="#555656" stroke-linecap="round" stroke-linejoin="round" stroke-width="2.034"/>
    </g>
  </g>
</svg>
