<svg xmlns="http://www.w3.org/2000/svg" width="72.859" height="72.858" viewBox="0 0 72.859 72.858">
  <g id="그룹_175" data-name="그룹 175" transform="translate(0.076)">
    <g id="그룹_184" data-name="그룹 184">
      <path id="패스_370" data-name="패스 370" d="M36.393,3a33.428,33.428,0,0,1,33.39,33.39" fill="none" stroke="#2b4390" stroke-linecap="round" stroke-linejoin="round" stroke-width="6"/>
      <path id="패스_371" data-name="패스 371" d="M36.391,13.714A22.7,22.7,0,0,1,59.069,36.39" fill="none" stroke="#2b4390" stroke-linecap="round" stroke-linejoin="round" stroke-width="6"/>
      <path id="패스_372" data-name="패스 372" d="M36.391,25.648A10.757,10.757,0,0,1,47.136,36.391" fill="none" stroke="#2b4390" stroke-linecap="round" stroke-linejoin="round" stroke-width="6"/>
      <path id="패스_373" data-name="패스 373" d="M58.62,59.451a4.128,4.128,0,0,1-1.066,2.287l-4.048,4.057c-13.8,11.553-31.323-5.657-31.5-5.831l-9.163-9.169C12.671,50.62-4.544,33.1,6.955,19.349l4.118-4.12a4.115,4.115,0,0,1,2.285-1.066,3.623,3.623,0,0,1,.49-.033,2.1,2.1,0,0,1,1.463.469l8.562,9.881a2.635,2.635,0,0,1,0,3.72l-3.124,3.127a8.768,8.768,0,0,0-1.658,2.4c-.684,1.87-1.77,6.763,2.927,11.824l5.265,5.267C32.314,55.489,37.2,54.4,39.132,53.69a8.812,8.812,0,0,0,2.363-1.662l3.1-3.1a2.659,2.659,0,0,1,3.773.052l9.786,8.485A2.409,2.409,0,0,1,58.62,59.451Z" fill="none" stroke="#2b4390" stroke-linecap="round" stroke-linejoin="round" stroke-width="6"/>
    </g>
  </g>
</svg>
