<svg id="그룹_171" data-name="그룹 171" xmlns="http://www.w3.org/2000/svg" width="92.643" height="106.371" viewBox="0 0 92.643 106.371">
  <g id="그룹_182" data-name="그룹 182">
    <path id="패스_363" data-name="패스 363" d="M72.584,95.331H8.5a8.51,8.51,0,0,1-8.5-8.5V8.5A8.51,8.51,0,0,1,8.5,0H72.584a8.51,8.51,0,0,1,8.5,8.5V86.831a8.51,8.51,0,0,1-8.5,8.5M8.5,7A1.52,1.52,0,0,0,7,8.5V86.831a1.52,1.52,0,0,0,1.5,1.5H72.584a1.52,1.52,0,0,0,1.5-1.5V8.5a1.52,1.52,0,0,0-1.5-1.5Z" fill="#2b4390"/>
    <path id="패스_364" data-name="패스 364" d="M84.143,106.371H20c-4.766,0-8.5-2.881-8.5-6.558V93.286h7v5.807a3.872,3.872,0,0,0,1.5.278H84.143a1.52,1.52,0,0,0,1.5-1.5V17.914c0-.859-.548-1.5-1.037-1.5H80.069v-7h4.537a8.288,8.288,0,0,1,8.037,8.5V97.871a8.51,8.51,0,0,1-8.5,8.5" fill="#2b4390"/>
    <path id="패스_365" data-name="패스 365" d="M33.523,40.721H18.062V22.507H33.523Zm1-24.214H17.062a5.015,5.015,0,0,0-5,5V41.721a5.015,5.015,0,0,0,5,5H34.523a5.015,5.015,0,0,0,5-5V21.507a5.015,5.015,0,0,0-5-5" fill="#2b4390"/>
    <path id="패스_366" data-name="패스 366" d="M63.6,44.572H47.866a3.5,3.5,0,0,1,0-7H63.6a3.5,3.5,0,0,1,0,7" fill="#2b4390"/>
    <path id="패스_367" data-name="패스 367" d="M63.6,61.392H15.564a3.5,3.5,0,0,1,0-7H63.6a3.5,3.5,0,0,1,0,7" fill="#2b4390"/>
    <path id="패스_368" data-name="패스 368" d="M63.6,77.609H15.564a3.5,3.5,0,1,1,0-7H63.6a3.5,3.5,0,0,1,0,7" fill="#2b4390"/>
    <path id="패스_369" data-name="패스 369" d="M63.6,28.918H47.866a3.5,3.5,0,0,1,0-7H63.6a3.5,3.5,0,0,1,0,7" fill="#2b4390"/>
  </g>
</svg>
