<svg xmlns="http://www.w3.org/2000/svg" xmlns:xlink="http://www.w3.org/1999/xlink" width="17" height="20" viewBox="0 0 17 20">
  <defs>
    <clipPath id="clip-path">
      <rect id="사각형_26" data-name="사각형 26" width="17" height="20" fill="none"/>
    </clipPath>
  </defs>
  <g id="Vector_Smart_Object" data-name="Vector Smart Object" transform="translate(-1418 -3281)">
    <g id="Vector_Smart_Object-2" data-name="Vector Smart Object" transform="translate(1418 3281)">
      <g id="그룹_43" data-name="그룹 43">
        <g id="그룹_42" data-name="그룹 42" clip-path="url(#clip-path)">
          <path id="패스_53" data-name="패스 53" d="M15.682,5.082H12.457a1.316,1.316,0,0,0-.308.038,10.639,10.639,0,0,1-.306-3.02,2.007,2.007,0,0,0-.638-1.62A2,2,0,0,0,9.514.032,2.684,2.684,0,0,0,7.33,2.881a22.713,22.713,0,0,0,.243,2.832H2.626A2.272,2.272,0,0,0,.352,7.978,2.248,2.248,0,0,0,.871,9.416a2.256,2.256,0,0,0,0,3.562,2.258,2.258,0,0,0,.847,3.515,2.243,2.243,0,0,0-.312,1.143A2.272,2.272,0,0,0,3.681,19.9H6.54a8.422,8.422,0,0,0,.916.046,7.955,7.955,0,0,0,3.746-.858A1.32,1.32,0,0,0,12.457,20h3.225A1.317,1.317,0,0,0,17,18.687V6.394a1.317,1.317,0,0,0-1.318-1.313M6.665,18.6a.621.621,0,0,0-.085-.006h-2.9a.955.955,0,1,1,0-1.91.655.655,0,1,0,0-1.31H2.626a.955.955,0,1,1,0-1.91.655.655,0,1,0,0-1.31H2.275a.955.955,0,1,1,0-1.911h.351a.655.655,0,1,0,0-1.31.955.955,0,1,1,0-1.91h5.7a.656.656,0,0,0,.651-.747l0-.033a27.473,27.473,0,0,1-.329-3.354c0-.883.4-1.453,1.081-1.564a.706.706,0,0,1,.6.131.7.7,0,0,1,.2.577,11.964,11.964,0,0,0,.611,4.325c0,.013,0,.025,0,.038V17.559C9.463,18.934,6.693,18.6,6.665,18.6m9.018.093-3.229,0,0-12.3,3.228,0Z" fill="#444"/>
        </g>
      </g>
    </g>
    <path id="Color_Overlay" data-name="Color Overlay" d="M1430.457,3301a1.321,1.321,0,0,1-1.255-.91,7.951,7.951,0,0,1-3.745.858,8.291,8.291,0,0,1-.917-.046h-2.858a2.272,2.272,0,0,1-2.274-2.264,2.26,2.26,0,0,0-1.055-3.22,2.233,2.233,0,0,1,.519-1.437,7.412,7.412,0,0,0-.519-5,2.271,2.271,0,0,1,2.274-2.264h4.946a22.248,22.248,0,0,1-.243-2.833,2.681,2.681,0,0,1,2.184-2.847,1.931,1.931,0,0,1,2.329,2.066,10.664,10.664,0,0,0,.305,3.02,1.339,1.339,0,0,1,.309-.038h3.225A1.318,1.318,0,0,1,1435,3287.4v12.292a1.317,1.317,0,0,1-1.318,1.312Zm0-1.312,3.23,0,0-12.295-3.227,0Zm-11.138-7.49a.958.958,0,0,0,.959.955h.352a.655.655,0,1,1,0,1.309.955.955,0,1,0,0,1.911h1.055a.654.654,0,1,1,0,1.309.956.956,0,1,0,0,1.912h2.9a.457.457,0,0,1,.086.005c.027,0,2.8.336,4.474-1.039V3287.4c0-.013,0-.025,0-.039a11.968,11.968,0,0,1-.612-4.324.627.627,0,0,0-.8-.707c-.683.112-1.076.68-1.082,1.564a27.673,27.673,0,0,0,.328,3.354l.005.032a.655.655,0,0,1-.651.747h-5.7a.955.955,0,1,0,0,1.911.654.654,0,1,1,0,1.309h-.352A.958.958,0,0,0,1419.315,3292.2Z" fill="#858585"/>
  </g>
</svg>
