<svg xmlns="http://www.w3.org/2000/svg" width="34" height="34" viewBox="0 0 34 34">
  <g id="link-5on" transform="translate(-780 -732)">
    <g id="Vector_Smart_Object" data-name="Vector Smart Object" transform="translate(638.238 509.784)">
      <path id="패스_234" data-name="패스 234" d="M167.092,237.491h-1.3l1.283-4.826a.243.243,0,0,0-.233-.3h-1.659a.242.242,0,0,0-.234.182l-1.261,4.948h-2.473l-1.241-4.947a.244.244,0,0,0-.236-.183h-1.949a.242.242,0,0,0-.234.182l-1.262,4.948H153.82l-1.241-4.947a.243.243,0,0,0-.235-.183h-1.639a.244.244,0,0,0-.235.3l1.267,4.826h-1.306a.243.243,0,0,0-.242.242v1.483a.242.242,0,0,0,.242.241h1.824l1.688,6.433a.242.242,0,0,0,.235.18h1.756a.24.24,0,0,0,.234-.182l1.653-6.431h1.866l1.651,6.431a.242.242,0,0,0,.234.182h1.756a.245.245,0,0,0,.236-.18l1.706-6.433h1.823a.243.243,0,0,0,.243-.241v-1.483A.243.243,0,0,0,167.092,237.491Zm-3.9,1.967-.743,2.9-.741-2.9Zm-4.02-1.967h-.839l.424-1.634Zm-3.377,1.967-.742,2.9-.743-2.9Z" fill="#ed7218"/>
      <circle id="타원_3" data-name="타원 3" cx="16.122" cy="16.122" r="16.122" transform="translate(142.64 223.093)" fill="none" stroke="#2b4390" stroke-miterlimit="10" stroke-width="1.755"/>
    </g>
  </g>
</svg>
