<svg xmlns="http://www.w3.org/2000/svg" width="40.5" height="40.5" viewBox="0 0 40.5 40.5">
  <g id="link-8on" transform="translate(-1085 -728.829)">
    <g id="Vector_Smart_Object" data-name="Vector Smart Object" transform="translate(968.861 612.834)">
      <g id="그룹_145" data-name="그룹 145">
        <g id="그룹_134" data-name="그룹 134">
          <g id="그룹_132" data-name="그룹 132">
            <path id="패스_363" data-name="패스 363" d="M132.171,132.713H116.9a.765.765,0,0,1-.766-.765c0-4.779,1.848-7.407,5.491-7.808a.77.77,0,0,1,.759.4c.287.536,1.072,1.78,2.148,1.78s1.862-1.246,2.149-1.78a.826.826,0,0,1,.8-.4c3.619.392,5.454,3.019,5.454,7.809A.765.765,0,0,1,132.171,132.713Zm-14.482-1.53h13.7c-.2-4.159-2.035-5.176-3.62-5.459a3.516,3.516,0,0,1-6.454.008C119.72,126.027,117.888,127.061,117.689,131.183Z" fill="#2a438e"/>
          </g>
          <g id="그룹_133" data-name="그룹 133">
            <path id="패스_364" data-name="패스 364" d="M124.538,127.849c-2.821,0-4.553-3.9-4.553-6.694,0-2.989,1.915-5.159,4.553-5.159s4.553,2.17,4.553,5.159C129.091,123.949,127.359,127.849,124.538,127.849Zm0-10.323c-1.778,0-3.021,1.493-3.021,3.629,0,2.324,1.394,5.164,3.021,5.164s3.021-2.84,3.021-5.164C127.559,119.018,126.317,117.526,124.538,117.526Z" fill="#2a438e"/>
          </g>
        </g>
        <g id="그룹_137" data-name="그룹 137">
          <g id="그룹_135" data-name="그룹 135">
            <path id="패스_365" data-name="패스 365" d="M155.873,132.764H140.607a.766.766,0,0,1-.766-.765c0-4.78,1.848-7.407,5.492-7.808a.769.769,0,0,1,.758.4c.287.535,1.072,1.779,2.149,1.779s1.862-1.245,2.149-1.78a.821.821,0,0,1,.8-.4c3.619.392,5.454,3.019,5.454,7.809A.766.766,0,0,1,155.873,132.764Zm-14.482-1.53h13.7c-.2-4.159-2.035-5.176-3.62-5.459a3.517,3.517,0,0,1-6.455.008C143.422,126.078,141.591,127.111,141.391,131.234Z" fill="#2a438e"/>
          </g>
          <g id="그룹_136" data-name="그룹 136">
            <path id="패스_366" data-name="패스 366" d="M148.24,127.9c-2.822,0-4.554-3.9-4.554-6.694,0-2.989,1.915-5.159,4.554-5.159s4.553,2.17,4.553,5.159C152.794,124,151.061,127.9,148.24,127.9Zm0-10.322c-1.779,0-3.022,1.492-3.022,3.629,0,2.324,1.395,5.164,3.022,5.164s3.021-2.839,3.021-5.164C151.262,119.069,150.019,117.577,148.24,117.577Z" fill="#2a438e"/>
          </g>
        </g>
        <g id="그룹_140" data-name="그룹 140">
          <g id="그룹_138" data-name="그룹 138">
            <path id="패스_367" data-name="패스 367" d="M144.022,156.5H128.756a.765.765,0,0,1-.766-.765c0-4.78,1.847-7.407,5.491-7.808a.77.77,0,0,1,.759.4c.287.535,1.071,1.779,2.148,1.779s1.862-1.246,2.149-1.78a.822.822,0,0,1,.8-.4c3.619.392,5.454,3.02,5.454,7.81A.765.765,0,0,1,144.022,156.5Zm-14.482-1.53h13.7c-.2-4.16-2.034-5.176-3.62-5.46a3.516,3.516,0,0,1-6.454.008C131.572,149.81,129.74,150.843,129.54,154.966Z" fill="#2a438e"/>
          </g>
          <g id="그룹_139" data-name="그룹 139">
            <path id="패스_368" data-name="패스 368" d="M136.389,151.631c-2.822,0-4.553-3.9-4.553-6.694,0-2.989,1.915-5.159,4.553-5.159s4.553,2.17,4.553,5.159C140.942,147.732,139.211,151.631,136.389,151.631Zm0-10.322c-1.779,0-3.021,1.492-3.021,3.629,0,2.324,1.394,5.164,3.021,5.164s3.021-2.839,3.021-5.164C139.41,142.8,138.168,141.308,136.389,141.308Z" fill="#2a438e"/>
          </g>
        </g>
        <g id="그룹_144" data-name="그룹 144">
          <g id="그룹_141" data-name="그룹 141">
            <path id="패스_369" data-name="패스 369" d="M138.62,121.577h-4.6a.765.765,0,1,1,0-1.53h4.6a.765.765,0,1,1,0,1.53Z" fill="#ed7218"/>
          </g>
          <g id="그룹_142" data-name="그룹 142">
            <path id="패스_370" data-name="패스 370" d="M128.123,140.851a.766.766,0,0,1-.664-.383l-2.3-3.976a.766.766,0,0,1,1.327-.765l2.3,3.976a.765.765,0,0,1-.662,1.148Z" fill="#ed7218"/>
          </g>
          <g id="그룹_143" data-name="그룹 143">
            <path id="패스_371" data-name="패스 371" d="M144.726,140.507a.764.764,0,0,1-.662-1.148l2.3-3.975a.766.766,0,0,1,1.327.765l-2.3,3.975A.765.765,0,0,1,144.726,140.507Z" fill="#ed7218"/>
          </g>
        </g>
      </g>
    </g>
  </g>
</svg>
