<svg xmlns="http://www.w3.org/2000/svg" width="43.494" height="43.506" viewBox="0 0 43.494 43.506">
  <g id="link-7on" transform="translate(-979.002 -727.498)">
    <g id="Vector_Smart_Object" data-name="Vector Smart Object" transform="translate(404.123 704.758)">
      <g id="그룹_103" data-name="그룹 103">
        <path id="패스_325" data-name="패스 325" d="M586.679,40.215h-8.166a2.322,2.322,0,0,1-2.3-2.34V35.56a.766.766,0,0,1,.761-.772h11.24a.766.766,0,0,1,.76.772v2.315A2.322,2.322,0,0,1,586.679,40.215Zm-8.95-3.883v1.544a.792.792,0,0,0,.785.8h8.166a.792.792,0,0,0,.784-.8V36.332Z" fill="#ed7218"/>
        <path id="패스_326" data-name="패스 326" d="M600.7,40.215h-8.158a2.323,2.323,0,0,1-2.306-2.34V35.56a.771.771,0,0,1,.76-.772H602.25a.771.771,0,0,1,.76.772v2.315A2.323,2.323,0,0,1,600.7,40.215Zm-8.942-3.883v1.544a.792.792,0,0,0,.785.8H600.7a.792.792,0,0,0,.785-.8V36.332Z" fill="#ed7218"/>
        <path id="패스_327" data-name="패스 327" d="M614.738,40.215h-8.166a2.322,2.322,0,0,1-2.3-2.34V35.56a.766.766,0,0,1,.76-.772h11.24a.766.766,0,0,1,.76.772v2.315A2.322,2.322,0,0,1,614.738,40.215Zm-8.95-3.883v1.544a.792.792,0,0,0,.784.8h8.166a.792.792,0,0,0,.784-.8V36.332Z" fill="#ed7218"/>
        <path id="패스_328" data-name="패스 328" d="M587.136,62.24h-9.078a.764.764,0,0,1-.761-.764V39.362a.758.758,0,0,1,.312-.617.737.737,0,0,1,.672-.114.993.993,0,0,0,.232.041h8.166a.993.993,0,0,0,.232-.041.737.737,0,0,1,.672.114.759.759,0,0,1,.312.617V61.477A.759.759,0,0,1,587.136,62.24ZM578.818,60.7h7.565V40.215h-7.565Z" fill="#ed7218"/>
        <path id="패스_329" data-name="패스 329" d="M601.169,62.24h-9.086a.757.757,0,0,1-.753-.764V39.362a.773.773,0,0,1,.3-.617.757.757,0,0,1,.68-.114.928.928,0,0,0,.232.041H600.7a.929.929,0,0,0,.232-.041.753.753,0,0,1,.68.114.773.773,0,0,1,.3.617V61.477A.757.757,0,0,1,601.169,62.24ZM592.843,60.7h7.565V40.215h-7.565Z" fill="#ed7218"/>
        <path id="패스_330" data-name="패스 330" d="M615.195,62.24h-9.078a.759.759,0,0,1-.76-.764V39.362a.759.759,0,0,1,.312-.617.737.737,0,0,1,.672-.114.993.993,0,0,0,.232.041h8.166a.993.993,0,0,0,.232-.041.737.737,0,0,1,.672.114.759.759,0,0,1,.312.617V61.477A.759.759,0,0,1,615.195,62.24ZM606.869,60.7h7.573V40.215h-7.573Z" fill="#ed7218"/>
        <path id="패스_331" data-name="패스 331" d="M581.1,58.064a.759.759,0,0,1-.76-.764V39.452a.757.757,0,1,1,1.513,0V57.3A.757.757,0,0,1,581.1,58.064Z" fill="#ed7218"/>
        <path id="패스_332" data-name="패스 332" d="M584.093,58.032a.757.757,0,0,1-.753-.764V39.419a.757.757,0,1,1,1.513,0V57.268A.759.759,0,0,1,584.093,58.032Z" fill="#ed7218"/>
        <path id="패스_333" data-name="패스 333" d="M595.125,58a.757.757,0,0,1-.753-.764V39.492a.757.757,0,1,1,1.513,0V57.236A.759.759,0,0,1,595.125,58Z" fill="#ed7218"/>
        <path id="패스_334" data-name="패스 334" d="M598.127,57.967a.764.764,0,0,1-.76-.764V39.46a.761.761,0,1,1,1.521,0V57.2A.764.764,0,0,1,598.127,57.967Z" fill="#ed7218"/>
        <path id="패스_335" data-name="패스 335" d="M609.159,57.983a.759.759,0,0,1-.76-.764V39.476a.757.757,0,1,1,1.513,0V57.22A.757.757,0,0,1,609.159,57.983Z" fill="#ed7218"/>
        <path id="패스_336" data-name="패스 336" d="M612.153,57.951a.757.757,0,0,1-.753-.764V39.444a.757.757,0,1,1,1.513,0V57.187A.759.759,0,0,1,612.153,57.951Z" fill="#ed7218"/>
        <path id="패스_337" data-name="패스 337" d="M587.136,58.064h-9.078a.768.768,0,0,1,0-1.535h9.078a.768.768,0,0,1,0,1.535Z" fill="#ed7218"/>
        <path id="패스_338" data-name="패스 338" d="M601.169,58.032h-9.086a.768.768,0,0,1,0-1.535h9.086a.768.768,0,0,1,0,1.535Z" fill="#ed7218"/>
        <path id="패스_339" data-name="패스 339" d="M615.195,58h-9.078a.768.768,0,0,1,0-1.535h9.078a.768.768,0,0,1,0,1.535Z" fill="#ed7218"/>
        <path id="패스_340" data-name="패스 340" d="M617.62,66.246H575.632a.764.764,0,0,1-.753-.772V63.037a2.32,2.32,0,0,1,2.3-2.332h38.9a2.315,2.315,0,0,1,2.3,2.332v2.437A.764.764,0,0,1,617.62,66.246ZM576.392,64.7H616.86V63.037a.792.792,0,0,0-.785-.8h-38.9a.792.792,0,0,0-.785.8Z" fill="#2b4390"/>
        <path id="패스_341" data-name="패스 341" d="M617.62,36.332H575.632a.764.764,0,0,1-.753-.772V30.775a.763.763,0,0,1,.584-.747l16.6-3.827a.77.77,0,0,1,.336,1.5l-16.011,3.688v3.4H616.86v-3.4L601,27.736a.772.772,0,0,1-.576-.918.761.761,0,0,1,.913-.577l16.451,3.786a.763.763,0,0,1,.584.747V35.56A.764.764,0,0,1,617.62,36.332Z" fill="#2b4390"/>
        <path id="패스_342" data-name="패스 342" d="M596.63,33.5a5.379,5.379,0,1,1,5.292-5.378A5.346,5.346,0,0,1,596.63,33.5Zm0-9.213a3.839,3.839,0,1,0,3.779,3.835A3.816,3.816,0,0,0,596.63,24.284Z" fill="#2b4390"/>
        <path id="패스_343" data-name="패스 343" d="M590.642,32.855h-5.18a3.661,3.661,0,0,1-3.626-3.68.761.761,0,1,1,1.521,0,2.131,2.131,0,0,0,2.105,2.145h5.18a.768.768,0,0,1,0,1.535Z" fill="#2b4390"/>
        <path id="패스_344" data-name="패스 344" d="M607.79,32.855h-5.18a.768.768,0,0,1,0-1.535h5.18a2.131,2.131,0,0,0,2.105-2.145.761.761,0,1,1,1.521,0A3.661,3.661,0,0,1,607.79,32.855Z" fill="#2b4390"/>
      </g>
    </g>
  </g>
</svg>
