<svg xmlns="http://www.w3.org/2000/svg" xmlns:xlink="http://www.w3.org/1999/xlink" width="39.224" height="36.319" viewBox="0 0 39.224 36.319">
  <defs>
    <clipPath id="clip-path">
      <rect id="사각형_9" data-name="사각형 9" width="39.224" height="36.318" fill="none"/>
    </clipPath>
  </defs>
  <g id="Vector_Smart_Object" data-name="Vector Smart Object" transform="translate(-1152.5 -419.682)">
    <g id="Vector_Smart_Object-2" data-name="Vector Smart Object" transform="translate(1152.5 419.682)">
      <g id="그룹_18" data-name="그룹 18">
        <g id="그룹_17" data-name="그룹 17" clip-path="url(#clip-path)">
          <path id="패스_103" data-name="패스 103" d="M15.254,36.318C6.7,36.318,0,33.446,0,29.781V23.97a.726.726,0,0,1,1.453,0c0,2.405,5.668,5.085,13.8,5.085a34.437,34.437,0,0,0,4.267-.261.691.691,0,0,1,.182,0,34.67,34.67,0,0,0,9.953-.215.726.726,0,0,1,.851.715v.487c0,3.665-6.7,6.537-15.254,6.537M1.453,26.8v2.98c0,2.405,5.668,5.085,13.8,5.085,7.716,0,13.213-2.412,13.757-4.713a36.361,36.361,0,0,1-9.4.094,35.972,35.972,0,0,1-4.358.261c-6.173,0-11.381-1.5-13.8-3.706"/>
          <path id="패스_104" data-name="패스 104" d="M22.618,23.892a.726.726,0,0,1-.168-1.433h0c.118-.028.234-.058.349-.088l.177-.046.008,0,.038-.01h0a.75.75,0,0,1,.864.521.708.708,0,0,1-.493.883l-.241.063c-.122.031-.246.062-.372.092a.722.722,0,0,1-.166.019m.593-.877.184.7Z"/>
          <path id="패스_105" data-name="패스 105" d="M21.391,24.149a.727.727,0,0,1-.713-.593.771.771,0,0,1-.012-.134.726.726,0,0,1,.593-.713c.308-.058.609-.12.9-.186a.727.727,0,0,1,.318,1.418q-.462.1-.944.194l-.012,0a.693.693,0,0,1-.134.012"/>
          <path id="패스_106" data-name="패스 106" d="M19.555,24.435a.746.746,0,0,1-.746-.652.708.708,0,0,1,.52-.775h0L19.388,23h.03l.288-.036a.727.727,0,0,1,.187,1.441l-.186.026H19.7l-.089.009-.057,0"/>
          <path id="패스_107" data-name="패스 107" d="M23.458,23.677a.727.727,0,0,1-.192-1.427h0c.2-.054.387-.11.575-.168a.726.726,0,0,1,.907.482.7.7,0,0,1,.032.213.725.725,0,0,1-.514.694c-.2.062-.4.122-.613.179h-.005a.741.741,0,0,1-.193.026"/>
          <path id="패스_108" data-name="패스 108" d="M24.914,23.219a.727.727,0,0,1-.245-1.411h0a11.906,11.906,0,0,0,2.737-1.341.727.727,0,0,1,.827,1.2,13.244,13.244,0,0,1-3.077,1.514.72.72,0,0,1-.244.043"/>
          <path id="패스_109" data-name="패스 109" d="M20.42,24.314A.726.726,0,0,1,19.7,23.7a.714.714,0,0,1-.009-.11.727.727,0,0,1,.617-.718l.394-.061a.728.728,0,0,1,.836.6.676.676,0,0,1,.01.121.727.727,0,0,1-.607.715l-.415.065a.719.719,0,0,1-.11.008"/>
          <path id="패스_110" data-name="패스 110" d="M10.8,24.42l-.141-.017a.726.726,0,0,1-.632-.72.824.824,0,0,1,.006-.094.722.722,0,0,1,.814-.626l.067.008-.021.729Z"/>
          <path id="패스_111" data-name="패스 111" d="M24.234,23.447a.727.727,0,0,1-.693-.508.738.738,0,0,1-.033-.219.726.726,0,0,1,.508-.691c.2-.065.4-.13.6-.2A.727.727,0,0,1,25.1,23.2q-.314.11-.643.214a.715.715,0,0,1-.219.034"/>
          <path id="패스_112" data-name="패스 112" d="M13.876,24.667h-.028l-.289-.012a.727.727,0,0,1-.694-.725V23.9a.736.736,0,0,1,.759-.692l.277.012a.726.726,0,0,1,.7.725v.028a.727.727,0,0,1-.725.7"/>
          <path id="패스_113" data-name="패스 113" d="M17.421,24.63a.726.726,0,0,1-.724-.684c0-.015,0-.028,0-.044a.726.726,0,0,1,.683-.724l.088-.006.117.72.047.725-.165.011h-.044"/>
          <path id="패스_114" data-name="패스 114" d="M15.254,30.507C6.7,30.507,0,27.636,0,23.97c0-.883.394-2.206,2.273-3.5a.726.726,0,0,1,.825,0,17.042,17.042,0,0,0,6.477,2.3.726.726,0,0,1,.594.816v.385c0,2.1,4.009,4.129,9.534,4.823a.727.727,0,0,1,0,1.442,35.826,35.826,0,0,1-4.449.272M2.712,21.949a2.835,2.835,0,0,0-1.26,2.021c0,2.3,5.168,4.844,12.716,5.069-3.359-1.172-5.376-2.938-5.451-4.952a18.489,18.489,0,0,1-6.006-2.138"/>
          <path id="패스_115" data-name="패스 115" d="M23.969,30.507c-8.553,0-15.254-2.871-15.254-6.537v-.487a.726.726,0,0,1,.851-.715,34.6,34.6,0,0,0,9.954.214.759.759,0,0,1,.182,0,34.294,34.294,0,0,0,4.267.261c8.134,0,13.8-2.68,13.8-5.085a.726.726,0,1,1,1.453,0V23.97c0,3.666-6.7,6.537-15.254,6.537M10.213,24.342c.543,2.3,6.04,4.713,13.756,4.713,8.134,0,13.8-2.68,13.8-5.085V20.991c-2.42,2.21-7.628,3.705-13.8,3.705a35.813,35.813,0,0,1-4.357-.261,36.36,36.36,0,0,1-9.4-.093"/>
          <path id="패스_116" data-name="패스 116" d="M23.97,24.7a35.818,35.818,0,0,1-4.449-.272.726.726,0,0,1,0-1.441c5.524-.694,9.534-2.723,9.534-4.824v-.487a.727.727,0,0,1,.6-.715,16.992,16.992,0,0,0,6.468-2.3.725.725,0,0,1,.826,0c1.879,1.3,2.274,2.621,2.274,3.5,0,3.666-6.7,6.537-15.254,6.537m6.535-6.42c-.076,2.013-2.093,3.78-5.451,4.951C32.6,23,37.771,20.456,37.771,18.159a2.839,2.839,0,0,0-1.26-2.021,18.45,18.45,0,0,1-6.006,2.139"/>
          <path id="패스_117" data-name="패스 117" d="M15.254,24.7C6.7,24.7,0,21.825,0,18.159V12.348a.726.726,0,0,1,1.453,0c0,2.4,5.668,5.085,13.8,5.085a34.3,34.3,0,0,0,4.267-.261.691.691,0,0,1,.182,0,34.644,34.644,0,0,0,9.953-.215.727.727,0,0,1,.851.715v.487c0,3.666-6.7,6.537-15.254,6.537M1.453,15.18v2.98c0,2.4,5.668,5.085,13.8,5.085,7.716,0,13.213-2.412,13.757-4.713a36.329,36.329,0,0,1-9.4.094,35.825,35.825,0,0,1-4.358.261c-6.173,0-11.381-1.5-13.8-3.706"/>
          <path id="패스_118" data-name="패스 118" d="M15.254,18.886C6.7,18.886,0,16.014,0,12.348c0-2.72,3.57-5.035,9.318-6.04a.726.726,0,0,1,.851.715v5.325c0,2.1,4.01,4.129,9.534,4.823a.726.726,0,0,1,0,1.441,35.825,35.825,0,0,1-4.449.273M8.716,7.9c-4.318.9-7.264,2.681-7.264,4.446,0,2.3,5.168,4.843,12.716,5.069-3.423-1.195-5.453-3.007-5.453-5.069Z"/>
          <path id="패스_119" data-name="패스 119" d="M23.97,18.886c-8.553,0-15.254-2.871-15.254-6.537V6.537a.726.726,0,1,1,1.453,0c0,2.4,5.668,5.085,13.8,5.085s13.8-2.68,13.8-5.085a.726.726,0,1,1,1.453,0v5.811c0,3.666-6.7,6.537-15.254,6.537m-13.8-9.517v2.98c0,2.4,5.668,5.085,13.8,5.085s13.8-2.68,13.8-5.085V9.369c-2.42,2.21-7.628,3.706-13.8,3.706s-11.381-1.5-13.8-3.706"/>
          <path id="패스_120" data-name="패스 120" d="M23.97,13.075c-8.553,0-15.254-2.871-15.254-6.537S15.417,0,23.97,0,39.224,2.871,39.224,6.537s-6.7,6.537-15.254,6.537m0-11.622c-8.133,0-13.8,2.68-13.8,5.085s5.668,5.085,13.8,5.085,13.8-2.68,13.8-5.085S32.1,1.453,23.97,1.453"/>
          <path id="패스_121" data-name="패스 121" d="M23.912,10.051a12.648,12.648,0,0,1-3.931-.584A.726.726,0,0,1,20.459,8.1c2.463.859,6.035.46,6.513-.11a9.545,9.545,0,0,0-3.037-.844C21.8,6.754,19.775,6.39,19.8,4.928a1.272,1.272,0,0,1,.622-1.095c1.258-.9,4.74-1.177,7.008-.216a.726.726,0,0,1-.566,1.338,8.032,8.032,0,0,0-5.536.008,11.135,11.135,0,0,0,2.868.748c2.187.394,4.254.768,4.254,2.269a1.492,1.492,0,0,1-.705,1.239,7.178,7.178,0,0,1-3.829.832M21.247,4.9h0v0"/>
          <path id="패스_122" data-name="패스 122" d="M23.97,11.254a.726.726,0,0,1-.726-.726V9.321a.726.726,0,1,1,1.453,0v1.206a.726.726,0,0,1-.726.726"/>
          <path id="패스_123" data-name="패스 123" d="M23.97,4.471a.726.726,0,0,1-.726-.726v-1.2a.726.726,0,1,1,1.453,0v1.2a.726.726,0,0,1-.726.726"/>
        </g>
      </g>
    </g>
    <path id="Color_Overlay" data-name="Color Overlay" d="M1152.5,449.463v-5.811a3.894,3.894,0,0,1,1.521-2.917,3.923,3.923,0,0,1-1.521-2.893V432.03c0-2.624,3.324-4.871,8.719-5.929.142-3.61,6.79-6.419,15.25-6.419,8.554,0,15.253,2.871,15.253,6.538v5.81a3.922,3.922,0,0,1-1.521,2.894,3.891,3.891,0,0,1,1.521,2.917v5.81c0,2.659-3.523,4.9-8.718,5.929-.141,3.609-6.791,6.42-15.25,6.42C1159.2,456,1152.5,453.128,1152.5,449.463Zm1.453,0c0,2.4,5.668,5.085,13.8,5.085,7.712,0,13.207-2.41,13.755-4.711a35.134,35.134,0,0,1-5.039.352,35.667,35.667,0,0,1-4.36-.261q-.763.093-1.544.154h-.007l-.125.01h-.018l-.108.008-.039,0-.092.006-.05,0-.077.005-.068,0-.065,0-.076,0-.053,0-.089,0-.043,0-.1,0-.037,0-.1,0-.037,0-.1,0-.031,0-.106,0h-.033l-.106,0h-.025l-.112,0h-.029l-.11,0h-.031l-.107,0h-.036l-.1,0h-1.109l-.079,0h-.121l-.07,0h-.024l-.08,0h-.125l-.058,0h-.031l-.082,0h-.031l-.056,0h-.037l-.052,0-.066,0h-.04l-.049,0-.034,0-.175-.007h-.025l-.052,0h-.03l-.115-.005h0l-.063,0h-.013l-.2-.011h-.009l-.066,0h0c-5.2-.308-9.475-1.7-11.6-3.641Zm15.794-1.4c.775.167,1.6.307,2.455.415a34.679,34.679,0,0,0,9.954-.214c.021,0,.04-.006.062-.008,4.932-.88,8.051-2.816,8.051-4.6v-2.978c-2.131,1.948-6.426,3.339-11.639,3.643l-.193.011h0l-.092,0h-.006l-.187.009h-.011l-.085,0h-.008l-.094,0h-.007l-.085,0h-.012l-.185.006h-.014l-.083,0h-.009l-.094,0h-.006l-.085,0h-.015l-.08,0h-.016l-.087,0h-.021l-.073,0h-.121l-.078,0h-1.11l-.1,0h-.033l-.115,0h-.022l-.123,0h-.014l-.134,0h0c-1.055-.036-2.1-.116-3.109-.24a35.645,35.645,0,0,1-4.36.261,35.138,35.138,0,0,1-5.04-.352C1163.083,445.579,1165.708,447.182,1169.747,448.06Zm-15.794-4.408v.028a.023.023,0,0,0,0,.008v.047a.032.032,0,0,1,0,.013v.015a.026.026,0,0,1,0,.012.1.1,0,0,1,0,.015s0,.009,0,.013a.071.071,0,0,1,0,.014.066.066,0,0,0,0,.013s0,.009,0,.014a.086.086,0,0,1,0,.014.036.036,0,0,1,0,.014.066.066,0,0,0,0,.013c0,.005,0,.01,0,.015a.067.067,0,0,0,0,.014.037.037,0,0,0,0,.013l0,.014a.058.058,0,0,0,0,.013.072.072,0,0,0,0,.015s0,.008,0,.013l0,.015a.1.1,0,0,0,0,.013s0,.01,0,.015a.031.031,0,0,1,0,.013.092.092,0,0,1,0,.014.036.036,0,0,1,0,.013.092.092,0,0,1,0,.014l0,.013a.064.064,0,0,1,0,.014s0,.009,0,.013,0,.011,0,.015a.073.073,0,0,0,0,.013s0,.01,0,.015l0,.012a.106.106,0,0,0,.005.016s0,.005,0,.008a.122.122,0,0,1,.007.02.01.01,0,0,1,0,.006c.009.023.017.047.028.071a.007.007,0,0,1,0,0l.009.02,0,.008a.124.124,0,0,0,.007.018.05.05,0,0,1,0,.01.092.092,0,0,1,.007.018s0,.006.005.01a.072.072,0,0,0,.008.017s0,.007,0,.011a.071.071,0,0,1,.01.017.044.044,0,0,0,0,.01l.009.018a.039.039,0,0,0,.005.01.116.116,0,0,0,.009.017s0,.007,0,.011.006.012.01.018a.057.057,0,0,0,.005.009l.009.018a.056.056,0,0,1,.005.011c0,.005.007.011.01.017a.036.036,0,0,1,.006.01.109.109,0,0,1,.01.018.021.021,0,0,1,.005.01c0,.005.007.012.012.017a.028.028,0,0,0,.005.01c0,.005.007.012.01.018a.084.084,0,0,1,.007.01l.012.018.005.009.012.019,0,.007.014.021s0,0,0,.005.01.014.016.022a.015.015,0,0,0,0,0l.015.023,0,0c.024.034.05.069.077.1v0c.006.006.01.013.016.019a.03.03,0,0,0,.005.009c.005.006.01.013.015.018a.033.033,0,0,0,.007.009.125.125,0,0,0,.014.017.026.026,0,0,0,.009.012.083.083,0,0,0,.013.015.053.053,0,0,0,.01.012l.013.016.008.011.014.016.011.012.013.015.012.013.013.015.012.012.013.015.013.013.013.014a.165.165,0,0,0,.012.013l.014.013.013.014a.153.153,0,0,0,.012.013l.015.015.01.012.017.016.011.011.017.017.01.01.019.019.008.009.022.02a.025.025,0,0,1,.007.007c.009.008.017.017.027.025h0c1.633,1.535,5.328,2.891,10.212,3.26h0l.072.005.023,0,.061,0,.024,0,.05,0,.043,0h.019c.42.029.85.049,1.285.062-3.279-1.144-5.279-2.855-5.441-4.81-.005-.047-.007-.094-.01-.14q-.378-.076-.746-.159a17.557,17.557,0,0,1-5.259-1.981A2.832,2.832,0,0,0,1153.953,443.651Zm0-5.81c0,1.482,2.154,3.07,5.714,4.069.753.211,1.561.392,2.407.541l.024,0q.6.1,1.21.184l.039,0,.067.008v0c.878.112,1.779.19,2.688.232h.022l.279.012.037,0c1.131.041,2.273.03,3.4-.036l.042,0,.089-.006v0c.635-.04,1.267-.1,1.885-.171l.036-.006h.031l.288-.036a.633.633,0,0,1,.07-.006q.231-.031.456-.065a.693.693,0,0,1,.077-.016l.4-.061.057-.007c.145-.024.287-.049.429-.076.022-.006.043-.011.067-.015.308-.059.608-.121.9-.186.02,0,.039-.007.058-.01.142-.032.283-.066.422-.1l.16-.041.176-.046.009,0,.037-.011h0c3.441-.911,5.647-2.366,5.983-3.78a35.139,35.139,0,0,1-5.039.352,33.107,33.107,0,0,0-8.287,0h0l-.127,0h-.71l-.082,0h-.116l-.075,0h-.022l-.085,0h-.119l-.065,0h-.026l-.083,0h-.026l-.063,0h-.033l-.064,0h-.042l-.056,0h-.041l-.045,0-.044,0-.072,0-.044,0-.04,0-.042,0-.048,0-.07,0-.042,0-.048,0h-.034l-.046,0-.034,0-.086-.005-.034,0-.049,0-.034,0-.045,0h-.016l-.109-.007-.024,0-.056,0h-.019l-.121-.009-.064,0h-.011l-.193-.014h-.008c-4.885-.385-8.881-1.737-10.914-3.594Zm29.13.1-.077.015c-.076,2.013-2.094,3.779-5.449,4.95,7.547-.225,12.712-2.772,12.712-5.068a.152.152,0,0,1,0-.029,2.867,2.867,0,0,0-1.26-1.993A18.393,18.393,0,0,1,1183.083,437.944Zm-20.415-5.914v.028h0c.031,1.643,2.7,3.41,6.984,4.358.8.177,1.657.324,2.55.436a34.647,34.647,0,0,0,9.954-.215l.029,0q.948-.166,1.819-.386c3.888-.986,6.268-2.659,6.268-4.217v-2.979c-2.158,1.971-6.533,3.373-11.833,3.654h0l-.091,0h-.008l-.185.009h-.012l-.081,0h-.014l-.089,0h-.014l-.077,0h-.018l-.18.006h-.017l-.085,0h-.007l-.094,0h-.006l-.085,0h-.017l-.078,0h-.017l-.089,0h-.017l-.076,0h-.117l-.082,0h-.823l-.08,0h-.119l-.074,0h-.02l-.087,0h-.019l-.076,0h-.018l-.085,0h-.007l-.093,0h-.009l-.082,0h-.02l-.176-.006h-.022l-.075,0h-.016l-.088,0h-.016l-.076,0h-.016l-.182-.009h-.014l-.082,0h-.009l-.188-.011h0c-5.212-.3-9.507-1.7-11.639-3.643Zm-8.716,0v.028a.023.023,0,0,0,0,.008v.047a.032.032,0,0,1,0,.013v.015a.026.026,0,0,1,0,.012.1.1,0,0,1,0,.015s0,.009,0,.013a.071.071,0,0,1,0,.014.066.066,0,0,0,0,.013s0,.009,0,.014a.087.087,0,0,1,0,.014.036.036,0,0,1,0,.013.09.09,0,0,0,0,.014s0,.009,0,.013a.075.075,0,0,0,0,.014.037.037,0,0,0,0,.013l0,.014a.058.058,0,0,0,0,.013.072.072,0,0,0,0,.015s0,.008,0,.013,0,.01,0,.015a.067.067,0,0,0,0,.012c0,.005,0,.011,0,.016a.027.027,0,0,1,0,.012.146.146,0,0,1,0,.015.031.031,0,0,1,0,.013.113.113,0,0,1,0,.016.024.024,0,0,1,0,.011.037.037,0,0,1,0,.016.121.121,0,0,1,0,.012.165.165,0,0,0,.005.017.032.032,0,0,0,0,.009.16.16,0,0,1,0,.018.015.015,0,0,1,0,.008c.021.06.043.121.069.181l0,0c0,.008.007.016.01.024s0,0,0,0,.007.015.01.023l0,0c0,.008.007.016.012.023a0,0,0,0,0,0,0c0,.007.008.015.011.023a.007.007,0,0,1,0,.005.109.109,0,0,1,.013.022l0,0,.012.023,0,0,.013.024s0,0,0,0a.281.281,0,0,0,.014.024,0,0,0,0,0,0,0,.226.226,0,0,1,.013.025l0,0,.014.026c1.2,1.99,5.931,3.9,12.418,4.092-3.375-1.178-5.4-2.957-5.451-4.982v-.01c0-.011,0-.022,0-.032v-4.491C1156.9,428.486,1153.953,430.265,1153.953,432.03Zm8.716-5.81c0,2.4,5.669,5.084,13.8,5.084s13.8-2.679,13.8-5.084-5.668-5.085-13.8-5.085S1162.669,423.814,1162.669,426.219Zm13.075,3.99v-.491a12.075,12.075,0,0,1-3.262-.569.726.726,0,0,1,.477-1.372c2.464.859,6.035.46,6.513-.111a9.558,9.558,0,0,0-3.036-.844c-2.14-.386-4.161-.751-4.139-2.213a1.27,1.27,0,0,1,.622-1.094,5.989,5.989,0,0,1,2.825-.787v-.5a.727.727,0,0,1,1.454,0v.487a8.367,8.367,0,0,1,2.728.583.726.726,0,0,1-.565,1.338,8.027,8.027,0,0,0-5.535.008,11.12,11.12,0,0,0,2.867.748c2.188.394,4.254.768,4.254,2.269a1.49,1.49,0,0,1-.706,1.239,6.194,6.194,0,0,1-3.044.808v.5a.727.727,0,0,1-1.454,0Z" fill="#616161"/>
  </g>
</svg>
