<svg xmlns="http://www.w3.org/2000/svg" width="38.776" height="29.33" viewBox="0 0 38.776 29.33">
  <g id="link-4" transform="translate(-1086.848 -229.442)">
    <g id="Vector_Smart_Object" data-name="Vector Smart Object">
      <g id="Vector_Smart_Object-2" data-name="Vector Smart Object" transform="translate(853.315 116.322)">
        <g id="그룹_56" data-name="그룹 56">
          <g id="그룹_46" data-name="그룹 46">
            <path id="패스_118" data-name="패스 118" d="M252.921,138.946a.624.624,0,0,1-.228-.043,27.32,27.32,0,0,0-8.1-1.75,51.761,51.761,0,0,0-8.21.885.629.629,0,0,1-.518-.13.622.622,0,0,1-.228-.481V114.639a.622.622,0,0,1,.491-.608,44.6,44.6,0,0,1,8.465-.911,24.2,24.2,0,0,1,8.582,1.845.622.622,0,0,1,.374.57v22.788a.622.622,0,0,1-.273.514A.628.628,0,0,1,252.921,138.946Zm-8.331-3.038a26.294,26.294,0,0,1,7.705,1.527V115.954a23.008,23.008,0,0,0-7.705-1.589,43.888,43.888,0,0,0-7.705.783V136.68A49.666,49.666,0,0,1,244.591,135.908Z" fill="#2b4390"/>
          </g>
          <g id="그룹_47" data-name="그룹 47">
            <path id="패스_119" data-name="패스 119" d="M252.921,138.946a.628.628,0,0,1-.352-.108.622.622,0,0,1-.273-.514V115.535a.622.622,0,0,1,.374-.57,24.2,24.2,0,0,1,8.582-1.845,44.608,44.608,0,0,1,8.465.911.622.622,0,0,1,.491.608v22.788a.622.622,0,0,1-.228.481.629.629,0,0,1-.517.13,51.841,51.841,0,0,0-8.211-.885,27.324,27.324,0,0,0-8.1,1.75A.624.624,0,0,1,252.921,138.946Zm.625-22.992v21.481a26.294,26.294,0,0,1,7.705-1.527,49.666,49.666,0,0,1,7.705.772V115.149a44.009,44.009,0,0,0-7.705-.783A22.946,22.946,0,0,0,253.547,115.954Z" fill="#2b4390"/>
          </g>
          <g id="그룹_48" data-name="그룹 48">
            <path id="패스_120" data-name="패스 120" d="M252.921,142.451a.622.622,0,0,1-.4-.143c-5.314-4.371-18.064-.814-18.193-.777a.625.625,0,0,1-.8-.6V116.358a.624.624,0,0,1,.625-.622c.665,0,1.357-1.026,1.548-1.385a.628.628,0,0,1,.844-.262.621.621,0,0,1,.265.839,4.26,4.26,0,0,1-2.031,1.95v23.247c2.994-.742,13.475-2.94,18.536,1.225a.622.622,0,0,1-.4,1.1Z" fill="#2b4390"/>
          </g>
          <g id="그룹_49" data-name="그룹 49">
            <path id="패스_121" data-name="패스 121" d="M252.922,142.451a.622.622,0,0,1-.366-1.127c5.731-4.112,15.6-1.968,18.5-1.211V116.877a4.261,4.261,0,0,1-2.03-1.95.621.621,0,0,1,.266-.84.627.627,0,0,1,.843.263c.191.36.883,1.385,1.547,1.385a.624.624,0,0,1,.625.622v24.575a.623.623,0,0,1-.253.5.633.633,0,0,1-.554.1c-.121-.036-12.087-3.59-18.215.806A.624.624,0,0,1,252.922,142.451Z" fill="#2b4390"/>
          </g>
          <g id="그룹_50" data-name="그룹 50">
            <path id="패스_122" data-name="패스 122" d="M265.456,121.089a.63.63,0,0,1-.178-.026c-5.013-1.476-8.313-.045-8.345-.03a.628.628,0,0,1-.827-.311.621.621,0,0,1,.309-.823c.151-.067,3.73-1.646,9.218-.03a.622.622,0,0,1-.177,1.22Z" fill="#ed7218"/>
          </g>
          <g id="그룹_51" data-name="그룹 51">
            <path id="패스_123" data-name="패스 123" d="M265.456,126.03a.63.63,0,0,1-.178-.026c-5.013-1.476-8.313-.045-8.345-.03a.628.628,0,0,1-.827-.311.621.621,0,0,1,.309-.823c.151-.068,3.73-1.647,9.218-.03a.622.622,0,0,1-.177,1.22Z" fill="#ed7218"/>
          </g>
          <g id="그룹_52" data-name="그룹 52">
            <path id="패스_124" data-name="패스 124" d="M265.456,130.97a.629.629,0,0,1-.178-.026c-5.013-1.476-8.313-.045-8.345-.03a.628.628,0,0,1-.827-.311.621.621,0,0,1,.309-.823c.151-.068,3.73-1.647,9.218-.03a.622.622,0,0,1-.177,1.22Z" fill="#ed7218"/>
          </g>
          <g id="그룹_53" data-name="그룹 53">
            <path id="패스_125" data-name="패스 125" d="M248.981,121.089a.631.631,0,0,1-.178-.026c-5.045-1.485-8.311-.045-8.344-.03a.623.623,0,1,1-.519-1.133c.15-.067,3.729-1.646,9.218-.03a.622.622,0,0,1-.177,1.22Z" fill="#ed7218"/>
          </g>
          <g id="그룹_54" data-name="그룹 54">
            <path id="패스_126" data-name="패스 126" d="M248.981,126.03A.631.631,0,0,1,248.8,126c-5.045-1.485-8.311-.045-8.344-.03a.623.623,0,1,1-.519-1.133c.15-.068,3.729-1.647,9.218-.03a.622.622,0,0,1-.177,1.22Z" fill="#ed7218"/>
          </g>
          <g id="그룹_55" data-name="그룹 55">
            <path id="패스_127" data-name="패스 127" d="M248.981,130.97a.631.631,0,0,1-.178-.026c-5.045-1.485-8.311-.045-8.344-.03a.623.623,0,1,1-.519-1.133c.15-.067,3.729-1.646,9.218-.03a.622.622,0,0,1-.177,1.22Z" fill="#ed7218"/>
          </g>
        </g>
      </g>
      <path id="Color_Overlay" data-name="Color Overlay" d="M1106.252,258.772h-.034a.633.633,0,0,1-.229-.05l0,0-.01,0a.582.582,0,0,1-.158-.1c-5.326-4.347-18.044-.8-18.173-.761a.627.627,0,0,1-.549-.1.62.62,0,0,1-.248-.5V232.679a.624.624,0,0,1,.625-.622c.653,0,1.333-.991,1.537-1.366a.626.626,0,0,1,.43-.337,44.557,44.557,0,0,1,8.464-.911,24.086,24.086,0,0,1,8.331,1.74,24.073,24.073,0,0,1,8.33-1.74,44.519,44.519,0,0,1,8.45.908.541.541,0,0,1,.093.025l.02.007.008,0,.007,0,.015.007h0l.015.007,0,0,.017.008h0l.017.01.016.011h0l.016.011.016.012,0,0,.015.011,0,0,.031.026h0a.633.633,0,0,1,.143.191c.2.376.885,1.365,1.536,1.365a.623.623,0,0,1,.626.622v24.574a.621.621,0,0,1-.253.5.632.632,0,0,1-.554.1c-.121-.036-12.057-3.581-18.193.789a.608.608,0,0,1-.2.1h0l-.011,0-.01,0h0a.642.642,0,0,1-.149.022Zm.007-1.393c5.778-3.751,15.277-1.686,18.114-.945V233.2a2.721,2.721,0,0,1-.851-.482v21.033a.624.624,0,0,1-.745.61,51.866,51.866,0,0,0-8.211-.885,27.3,27.3,0,0,0-8.1,1.75.594.594,0,0,1-.2.041h-.049a.6.6,0,0,1-.2-.041,27.293,27.293,0,0,0-8.1-1.75,51.77,51.77,0,0,0-8.21.885.625.625,0,0,1-.746-.61V232.716a2.719,2.719,0,0,1-.85.482v23.248a41.907,41.907,0,0,1,9.5-1.246C1100.75,255.2,1103.975,255.721,1106.259,257.379Zm.6-25.1v21.481a26.3,26.3,0,0,1,7.706-1.526,49.681,49.681,0,0,1,7.7.772V231.47a44,44,0,0,0-7.7-.783A22.963,22.963,0,0,0,1106.861,232.275Zm-1.25,21.481v-21.48a23.008,23.008,0,0,0-7.706-1.589,43.844,43.844,0,0,0-7.7.783V253a49.693,49.693,0,0,1,7.7-.772A26.3,26.3,0,0,1,1105.611,253.756Zm12.982-6.49c-5.014-1.476-8.312-.045-8.346-.031a.623.623,0,1,1-.517-1.133c.15-.068,3.729-1.647,9.218-.031a.622.622,0,0,1-.176,1.219A.636.636,0,0,1,1118.593,247.266Zm-16.474,0c-5.045-1.486-8.311-.046-8.343-.031a.634.634,0,0,1-.259.056.622.622,0,0,1-.261-1.189c.15-.068,3.73-1.646,9.218-.031a.622.622,0,0,1-.176,1.219A.646.646,0,0,1,1102.118,247.266Zm16.474-4.941c-5.014-1.476-8.312-.045-8.346-.03a.623.623,0,1,1-.517-1.133c.15-.067,3.729-1.647,9.218-.031a.622.622,0,0,1-.176,1.219A.606.606,0,0,1,1118.593,242.325Zm-16.474,0c-5.045-1.485-8.311-.045-8.343-.03a.634.634,0,0,1-.259.056.622.622,0,0,1-.261-1.189c.15-.067,3.73-1.647,9.218-.031a.622.622,0,1,1-.355,1.193Zm16.474-4.941c-5.014-1.476-8.312-.044-8.346-.03a.623.623,0,1,1-.517-1.133c.15-.068,3.729-1.646,9.218-.031a.622.622,0,0,1-.176,1.219A.606.606,0,0,1,1118.593,237.384Zm-16.474,0c-5.045-1.485-8.311-.045-8.343-.03a.634.634,0,0,1-.259.056.622.622,0,0,1-.261-1.189c.15-.068,3.73-1.646,9.218-.031a.622.622,0,0,1-.176,1.219A.615.615,0,0,1,1102.118,237.384Z" fill="#616161"/>
    </g>
  </g>
</svg>
