<svg xmlns="http://www.w3.org/2000/svg" width="40.5" height="40.501" viewBox="0 0 40.5 40.501">
  <g id="link-8" transform="translate(-1085 -345.829)">
    <g id="Vector_Smart_Object" data-name="Vector Smart Object">
      <g id="Vector_Smart_Object-2" data-name="Vector Smart Object" transform="translate(968.861 229.834)">
        <g id="그룹_117" data-name="그룹 117">
          <g id="그룹_106" data-name="그룹 106">
            <g id="그룹_104" data-name="그룹 104">
              <path id="패스_345" data-name="패스 345" d="M132.171,132.713H116.9a.765.765,0,0,1-.766-.765c0-4.779,1.848-7.407,5.491-7.808a.77.77,0,0,1,.759.4c.287.536,1.072,1.78,2.148,1.78s1.862-1.246,2.149-1.78a.826.826,0,0,1,.8-.4c3.619.392,5.454,3.019,5.454,7.809A.765.765,0,0,1,132.171,132.713Zm-14.482-1.53h13.7c-.2-4.159-2.035-5.176-3.62-5.459a3.516,3.516,0,0,1-6.454.008C119.72,126.027,117.888,127.061,117.689,131.183Z" fill="#2a438e"/>
            </g>
            <g id="그룹_105" data-name="그룹 105">
              <path id="패스_346" data-name="패스 346" d="M124.538,127.849c-2.821,0-4.553-3.9-4.553-6.694,0-2.989,1.915-5.159,4.553-5.159s4.553,2.17,4.553,5.159C129.091,123.949,127.359,127.849,124.538,127.849Zm0-10.323c-1.778,0-3.021,1.493-3.021,3.629,0,2.324,1.394,5.164,3.021,5.164s3.021-2.84,3.021-5.164C127.559,119.018,126.317,117.526,124.538,117.526Z" fill="#2a438e"/>
            </g>
          </g>
          <g id="그룹_109" data-name="그룹 109">
            <g id="그룹_107" data-name="그룹 107">
              <path id="패스_347" data-name="패스 347" d="M155.873,132.764H140.607a.766.766,0,0,1-.766-.765c0-4.78,1.848-7.407,5.492-7.808a.769.769,0,0,1,.758.4c.287.535,1.072,1.779,2.149,1.779s1.862-1.245,2.149-1.78a.821.821,0,0,1,.8-.4c3.619.392,5.454,3.019,5.454,7.809A.766.766,0,0,1,155.873,132.764Zm-14.482-1.53h13.7c-.2-4.159-2.035-5.176-3.62-5.459a3.517,3.517,0,0,1-6.455.008C143.422,126.078,141.591,127.111,141.391,131.234Z" fill="#2a438e"/>
            </g>
            <g id="그룹_108" data-name="그룹 108">
              <path id="패스_348" data-name="패스 348" d="M148.24,127.9c-2.822,0-4.554-3.9-4.554-6.694,0-2.989,1.915-5.159,4.554-5.159s4.553,2.17,4.553,5.159C152.794,124,151.061,127.9,148.24,127.9Zm0-10.322c-1.779,0-3.022,1.492-3.022,3.629,0,2.324,1.395,5.164,3.022,5.164s3.021-2.839,3.021-5.164C151.262,119.069,150.019,117.577,148.24,117.577Z" fill="#2a438e"/>
            </g>
          </g>
          <g id="그룹_112" data-name="그룹 112">
            <g id="그룹_110" data-name="그룹 110">
              <path id="패스_349" data-name="패스 349" d="M144.022,156.5H128.756a.765.765,0,0,1-.766-.765c0-4.78,1.847-7.407,5.491-7.808a.77.77,0,0,1,.759.4c.287.535,1.071,1.779,2.148,1.779s1.862-1.246,2.149-1.78a.822.822,0,0,1,.8-.4c3.619.392,5.454,3.02,5.454,7.81A.765.765,0,0,1,144.022,156.5Zm-14.482-1.53h13.7c-.2-4.16-2.034-5.176-3.62-5.46a3.516,3.516,0,0,1-6.454.008C131.572,149.81,129.74,150.843,129.54,154.966Z" fill="#2a438e"/>
            </g>
            <g id="그룹_111" data-name="그룹 111">
              <path id="패스_350" data-name="패스 350" d="M136.389,151.631c-2.822,0-4.553-3.9-4.553-6.694,0-2.989,1.915-5.159,4.553-5.159s4.553,2.17,4.553,5.159C140.942,147.732,139.211,151.631,136.389,151.631Zm0-10.322c-1.779,0-3.021,1.492-3.021,3.629,0,2.324,1.394,5.164,3.021,5.164s3.021-2.839,3.021-5.164C139.41,142.8,138.168,141.308,136.389,141.308Z" fill="#2a438e"/>
            </g>
          </g>
          <g id="그룹_116" data-name="그룹 116">
            <g id="그룹_113" data-name="그룹 113">
              <path id="패스_351" data-name="패스 351" d="M138.62,121.577h-4.6a.765.765,0,1,1,0-1.53h4.6a.765.765,0,1,1,0,1.53Z" fill="#ed7218"/>
            </g>
            <g id="그룹_114" data-name="그룹 114">
              <path id="패스_352" data-name="패스 352" d="M128.123,140.851a.766.766,0,0,1-.664-.383l-2.3-3.976a.766.766,0,0,1,1.327-.765l2.3,3.976a.765.765,0,0,1-.662,1.148Z" fill="#ed7218"/>
            </g>
            <g id="그룹_115" data-name="그룹 115">
              <path id="패스_353" data-name="패스 353" d="M144.726,140.507a.764.764,0,0,1-.662-1.148l2.3-3.975a.766.766,0,0,1,1.327.765l-2.3,3.975A.765.765,0,0,1,144.726,140.507Z" fill="#ed7218"/>
            </g>
          </g>
        </g>
      </g>
      <path id="Color_Overlay" data-name="Color Overlay" d="M1097.617,386.329a.766.766,0,0,1-.766-.765c0-4.311,1.5-6.871,4.471-7.626a8.988,8.988,0,0,1-.625-3.168c0-2.989,1.915-5.159,4.553-5.159s4.553,2.17,4.553,5.159a9.008,9.008,0,0,1-.621,3.157c2.965.74,4.467,3.3,4.467,7.637a.765.765,0,0,1-.766.765Zm.784-1.53h13.7c-.2-4.16-2.034-5.176-3.62-5.459a4.766,4.766,0,0,1-1.9,1.816,3.051,3.051,0,0,1-1.185.3h-.29a3.051,3.051,0,0,1-1.211-.318,4.763,4.763,0,0,1-1.867-1.795C1100.433,379.643,1098.6,380.677,1098.4,384.8Zm3.828-10.029a7.5,7.5,0,0,0,.816,3.295.768.768,0,0,1,.057.09c.275.514,1.011,1.682,2.023,1.773h0l.022,0h0l.046,0h.129l.023,0h0l.022,0h0c1.013-.092,1.748-1.261,2.023-1.775a.607.607,0,0,1,.057-.087,7.507,7.507,0,0,0,.816-3.3c0-2.137-1.243-3.629-3.022-3.629S1102.228,372.634,1102.228,374.771Zm-5.909-4.469-2.3-3.976a.766.766,0,1,1,1.327-.765l2.3,3.975a.766.766,0,0,1-1.327.766Zm16.885-.063a.766.766,0,0,1-.281-1.046l2.3-3.975a.766.766,0,0,1,1.327.765l-2.3,3.975a.764.764,0,0,1-.664.383A.775.775,0,0,1,1113.2,370.239Zm-3.737-7.641a.766.766,0,0,1-.766-.765c0-4.311,1.5-6.871,4.471-7.626a8.988,8.988,0,0,1-.625-3.168c0-2.989,1.915-5.159,4.554-5.159s4.553,2.17,4.553,5.159a9.006,9.006,0,0,1-.621,3.157c2.965.74,4.466,3.3,4.466,7.637a.766.766,0,0,1-.766.765Zm.784-1.53h13.7c-.2-4.159-2.035-5.176-3.62-5.459a4.858,4.858,0,0,1-1.788,1.76h0l0,0a3.068,3.068,0,0,1-1.292.357h-.291a3.008,3.008,0,0,1-1.018-.23l-.013-.005-.009,0a4.634,4.634,0,0,1-2.039-1.873C1112.283,355.912,1110.452,356.945,1110.252,361.068Zm3.828-10.029a7.506,7.506,0,0,0,.816,3.3.756.756,0,0,1,.057.089c.275.514,1.011,1.681,2.023,1.773h0l.02,0h0l.023,0h.129l.046,0h0l.022,0h0c1.012-.091,1.747-1.26,2.023-1.775a.654.654,0,0,1,.058-.089,7.511,7.511,0,0,0,.815-3.294c0-2.137-1.243-3.629-3.021-3.629S1114.079,348.9,1114.079,351.04Zm-28.314,11.507a.766.766,0,0,1-.766-.765c0-4.311,1.5-6.871,4.471-7.625a9,9,0,0,1-.625-3.169c0-2.989,1.915-5.159,4.553-5.159s4.553,2.17,4.553,5.159a9.008,9.008,0,0,1-.621,3.157c2.965.74,4.468,3.3,4.468,7.637a.765.765,0,0,1-.766.765Zm.785-1.53h13.7c-.2-4.159-2.035-5.176-3.62-5.458a4.708,4.708,0,0,1-1.959,1.843l-.007,0-.014.006a3.043,3.043,0,0,1-1.1.267h-.264a3.092,3.092,0,0,1-1.388-.4l-.017-.01h0a4.919,4.919,0,0,1-1.7-1.707C1088.582,355.861,1086.749,356.9,1086.55,361.017Zm3.827-10.029a7.51,7.51,0,0,0,.815,3.293.784.784,0,0,1,.058.092c.276.515,1.013,1.683,2.023,1.774h0l.022,0h0l.046,0h.129l.023,0h0l.02,0h0c1.013-.092,1.748-1.261,2.023-1.775a.772.772,0,0,1,.054-.086,7.509,7.509,0,0,0,.818-3.3c0-2.137-1.242-3.629-3.021-3.629S1090.377,348.852,1090.377,350.988Zm12.508.422a.765.765,0,1,1,0-1.53h4.6a.765.765,0,1,1,0,1.53Z" fill="#6b6b6b"/>
    </g>
  </g>
</svg>
