<svg xmlns="http://www.w3.org/2000/svg" width="37.5" height="37.5" viewBox="0 0 37.5 37.5">
  <g id="link-3on" transform="translate(-981.852 -607.964)">
    <g id="Vector_Smart_Object" data-name="Vector Smart Object" transform="translate(729.988 500.428)">
      <g id="그룹_45" data-name="그룹 45">
        <g id="그룹_42" data-name="그룹 42">
          <path id="패스_115" data-name="패스 115" d="M270.614,145.036a.715.715,0,0,1-.318-.074l-18.04-9.021a.708.708,0,0,1-.392-.634V117.266a.71.71,0,0,1,1.026-.635l18.041,9.02a.71.71,0,0,1,.392.635v18.041a.709.709,0,0,1-.709.709Zm-17.332-10.168L269.9,143.18V126.725l-16.623-8.311Z" fill="#2b4390"/>
        </g>
        <g id="그룹_43" data-name="그룹 43">
          <path id="패스_116" data-name="패스 116" d="M270.614,145.036a.708.708,0,0,1-.709-.709V126.286a.709.709,0,0,1,.391-.635l18.042-9.02a.71.71,0,0,1,1.026.635v18.041a.708.708,0,0,1-.392.634l-18.041,9.021A.715.715,0,0,1,270.614,145.036Zm.709-18.312V143.18l16.623-8.311V118.413Z" fill="#2b4390"/>
        </g>
        <g id="그룹_44" data-name="그룹 44">
          <path id="패스_117" data-name="패스 117" d="M270.614,127a.713.713,0,0,1-.318-.074l-18.04-9.021a.709.709,0,0,1,0-1.269l18.04-9.02a.709.709,0,0,1,.635,0l18.041,9.02a.709.709,0,0,1,0,1.269l-18.041,9.021A.713.713,0,0,1,270.614,127Zm-16.455-9.73,16.455,8.228,16.455-8.228-16.455-8.228Z" fill="#ed7218"/>
        </g>
      </g>
    </g>
  </g>
</svg>
