<svg xmlns="http://www.w3.org/2000/svg" width="37.501" height="37.5" viewBox="0 0 37.501 37.5">
  <g id="link-3" transform="translate(-981.851 -224.964)">
    <g id="Vector_Smart_Object" data-name="Vector Smart Object">
      <g id="Vector_Smart_Object-2" data-name="Vector Smart Object" transform="translate(729.988 117.428)">
        <g id="그룹_37" data-name="그룹 37">
          <g id="그룹_34" data-name="그룹 34">
            <path id="패스_109" data-name="패스 109" d="M270.614,145.036a.715.715,0,0,1-.318-.074l-18.04-9.021a.708.708,0,0,1-.392-.634V117.266a.71.71,0,0,1,1.026-.635l18.041,9.02a.71.71,0,0,1,.392.635v18.041a.709.709,0,0,1-.709.709Zm-17.332-10.168L269.9,143.18V126.725l-16.623-8.311Z" fill="#2b4390"/>
          </g>
          <g id="그룹_35" data-name="그룹 35">
            <path id="패스_110" data-name="패스 110" d="M270.614,145.036a.708.708,0,0,1-.709-.709V126.286a.709.709,0,0,1,.391-.635l18.042-9.02a.71.71,0,0,1,1.026.635v18.041a.708.708,0,0,1-.392.634l-18.041,9.021A.715.715,0,0,1,270.614,145.036Zm.709-18.312V143.18l16.623-8.311V118.413Z" fill="#2b4390"/>
          </g>
          <g id="그룹_36" data-name="그룹 36">
            <path id="패스_111" data-name="패스 111" d="M270.614,127a.713.713,0,0,1-.318-.074l-18.04-9.021a.709.709,0,0,1,0-1.269l18.04-9.02a.709.709,0,0,1,.635,0l18.041,9.02a.709.709,0,0,1,0,1.269l-18.041,9.021A.713.713,0,0,1,270.614,127Zm-16.455-9.73,16.455,8.228,16.455-8.228-16.455-8.228Z" fill="#ed7218"/>
          </g>
        </g>
      </g>
      <path id="Color_Overlay" data-name="Color Overlay" d="M1000.6,262.463h-.052l-.019,0h0a.737.737,0,0,1-.243-.07l-18.04-9.022a.708.708,0,0,1-.392-.634V234.669a.026.026,0,0,0,0-.008.081.081,0,0,1,0-.015.036.036,0,0,1,0-.01s0-.009,0-.014,0-.006,0-.01a.068.068,0,0,0,0-.013s0-.007,0-.011,0-.008,0-.013a.044.044,0,0,0,0-.011l0-.013,0-.011,0-.012,0-.012,0-.012a.03.03,0,0,1,0-.01.048.048,0,0,1,0-.013l0-.011a.066.066,0,0,0,0-.012s0-.006,0-.01l0-.013.008-.019,0-.011.005-.013,0-.009.006-.013,0-.008a.057.057,0,0,0,.007-.013l0-.007.008-.014a.044.044,0,0,0,0-.006s.006-.009.009-.014l0,0,.011-.016v0a.722.722,0,0,1,.266-.231l18.04-9.02a.709.709,0,0,1,.635,0l18.041,9.02a.71.71,0,0,1,.374.475v0c0,.006,0,.014,0,.02a.037.037,0,0,1,0,0l0,.017a.017.017,0,0,1,0,.007l0,.015s0,.006,0,.009,0,.009,0,.014,0,.007,0,.012,0,.008,0,.012a.076.076,0,0,1,0,.014.03.03,0,0,0,0,.009v18.066a.708.708,0,0,1-.392.634l-18.041,9.022a.744.744,0,0,1-.243.07h0l-.019,0h-.051Zm.709-18.311v16.456l16.622-8.311V235.84ZM983.27,252.3l16.623,8.311V244.152L983.27,235.84Zm.877-17.6,16.456,8.228,16.455-8.228-16.455-8.227Z" fill="#616161"/>
    </g>
  </g>
</svg>
