<svg xmlns="http://www.w3.org/2000/svg" width="43.797" height="37.724" viewBox="0 0 43.797 37.724">
  <g id="link-2" transform="translate(-877.19 -225.087)">
    <g id="Vector_Smart_Object" data-name="Vector Smart Object">
      <g id="Vector_Smart_Object-2" data-name="Vector Smart Object" transform="translate(598.694 108.24)">
        <g id="그룹_29" data-name="그룹 29">
          <path id="패스_19" data-name="패스 19" d="M302,130.589a.645.645,0,0,1-.395-.136l-11.035-8.62-11.035,8.62a.641.641,0,0,1-1.035-.5v-3.533a.635.635,0,0,1,.246-.5l11.43-8.929a.642.642,0,0,1,.789,0l11.43,8.929a.635.635,0,0,1,.246.5v3.533a.64.64,0,0,1-.641.64Zm-11.43-10.208a.643.643,0,0,1,.395.136l10.394,8.12v-1.909L290.566,118.3l-10.789,8.428v1.909l10.394-8.12A.644.644,0,0,1,290.566,120.381Z" fill="#2b4390"/>
          <path id="패스_20" data-name="패스 20" d="M302,130.376a.428.428,0,0,1-.263-.091l-11.166-8.723L279.4,130.285a.427.427,0,0,1-.69-.336v-3.533a.426.426,0,0,1,.164-.336l11.43-8.929a.428.428,0,0,1,.526,0l11.43,8.929a.426.426,0,0,1,.164.336v3.533a.427.427,0,0,1-.427.426Zm-11.43-9.782a.427.427,0,0,1,.263.09l10.739,8.39v-2.45l-11-8.6-11,8.6v2.45l10.739-8.39A.427.427,0,0,1,290.566,120.594Z" fill="#2b4390"/>
          <g id="그룹_28" data-name="그룹 28">
            <path id="패스_21" data-name="패스 21" d="M280.693,154.571a.641.641,0,0,1-.641-.64V128.756a.641.641,0,0,1,1.281,0v24.537H299.8V128.756a.641.641,0,0,1,1.281,0v25.176a.641.641,0,0,1-.641.64Z" fill="#2b4390"/>
            <path id="패스_22" data-name="패스 22" d="M300.439,154.358H280.693a.427.427,0,0,1-.427-.426V128.756a.427.427,0,0,1,.854,0v24.75h18.892v-24.75a.427.427,0,0,1,.854,0v25.176A.427.427,0,0,1,300.439,154.358Z" fill="#2b4390"/>
          </g>
          <path id="패스_23" data-name="패스 23" d="M300.439,139.9a.64.64,0,1,1,0-1.279h20.177l-2.886-5.775H300.439a.64.64,0,1,1,0-1.279h17.687a.637.637,0,0,1,.573.354l3.526,7.055a.64.64,0,0,1-.573.925Z" fill="#2b4390"/>
          <path id="패스_24" data-name="패스 24" d="M321.652,139.684H300.439a.426.426,0,1,1,0-.853h20.522l-3.1-6.2H300.439a.426.426,0,1,1,0-.853h17.687a.427.427,0,0,1,.382.236l3.526,7.055a.426.426,0,0,1-.382.617Z" fill="#2b4390"/>
          <path id="패스_25" data-name="패스 25" d="M299.021,154.571a.64.64,0,1,1,0-1.279h19.226V139.258a.641.641,0,0,1,1.281,0v14.674a.641.641,0,0,1-.641.64Z" fill="#2b4390"/>
          <path id="패스_26" data-name="패스 26" d="M318.888,154.358H299.021a.426.426,0,1,1,0-.853h19.439V139.258a.427.427,0,0,1,.854,0v14.674A.427.427,0,0,1,318.888,154.358Z" fill="#2b4390"/>
          <path id="패스_27" data-name="패스 27" d="M284.138,139.13a.641.641,0,0,1-.641-.64v-7.437a.641.641,0,0,1,.641-.64H296.4a.641.641,0,0,1,.641.64v7.437a.641.641,0,0,1-.641.64Zm11.622-1.279v-6.158H284.778v6.158Z" fill="#ed7218"/>
          <path id="패스_28" data-name="패스 28" d="M296.4,138.916H284.138a.427.427,0,0,1-.427-.426v-7.437a.427.427,0,0,1,.427-.426H296.4a.427.427,0,0,1,.427.426v7.437A.427.427,0,0,1,296.4,138.916Zm-11.836-.853h11.409v-6.585H284.565Z" fill="#ed7218"/>
          <path id="패스_29" data-name="패스 29" d="M296.4,154.486a.641.641,0,0,1-.641-.64v-11.11H284.778v11.11a.641.641,0,0,1-1.281,0V142.1a.641.641,0,0,1,.641-.64H296.4a.641.641,0,0,1,.641.64v11.749A.641.641,0,0,1,296.4,154.486Z" fill="#2b4390"/>
          <path id="패스_30" data-name="패스 30" d="M296.4,154.273a.427.427,0,0,1-.427-.426V142.524H284.565v11.323a.427.427,0,0,1-.854,0V142.1a.427.427,0,0,1,.427-.426H296.4a.427.427,0,0,1,.427.426v11.749A.427.427,0,0,1,296.4,154.273Z" fill="#2b4390"/>
          <path id="패스_31" data-name="패스 31" d="M284.526,135.411a.64.64,0,1,1,0-1.279H296.4a.64.64,0,1,1,0,1.279Z" fill="#ed7218"/>
          <path id="패스_32" data-name="패스 32" d="M296.4,135.2H284.526a.426.426,0,1,1,0-.853H296.4a.426.426,0,1,1,0,.853Z" fill="#ed7218"/>
          <path id="패스_33" data-name="패스 33" d="M287.554,139.13a.641.641,0,0,1-.641-.64v-7.437a.641.641,0,0,1,1.281,0v7.437A.641.641,0,0,1,287.554,139.13Z" fill="#ed7218"/>
          <path id="패스_34" data-name="패스 34" d="M287.554,138.916a.427.427,0,0,1-.427-.426v-7.437a.427.427,0,0,1,.854,0v7.437A.427.427,0,0,1,287.554,138.916Z" fill="#ed7218"/>
          <path id="패스_35" data-name="패스 35" d="M292.984,139.13a.641.641,0,0,1-.641-.64v-7.437a.641.641,0,0,1,1.281,0v7.437A.641.641,0,0,1,292.984,139.13Z" fill="#ed7218"/>
          <path id="패스_36" data-name="패스 36" d="M292.984,138.916a.427.427,0,0,1-.427-.426v-7.437a.427.427,0,0,1,.854,0v7.437A.427.427,0,0,1,292.984,138.916Z" fill="#ed7218"/>
          <path id="패스_37" data-name="패스 37" d="M290.463,154.486a.641.641,0,0,1-.641-.64V142.1a.641.641,0,0,1,1.281,0v11.749A.641.641,0,0,1,290.463,154.486Z" fill="#2b4390"/>
          <path id="패스_38" data-name="패스 38" d="M290.463,154.273a.427.427,0,0,1-.427-.426V142.1a.427.427,0,0,1,.854,0v11.749A.427.427,0,0,1,290.463,154.273Z" fill="#2b4390"/>
          <path id="패스_39" data-name="패스 39" d="M315.909,154.571a.641.641,0,0,1-.641-.64v-9.194h-4.345v9.194a.641.641,0,0,1-1.281,0V144.1a.641.641,0,0,1,.641-.64h5.626a.641.641,0,0,1,.641.64v9.833A.641.641,0,0,1,315.909,154.571Z" fill="#2b4390"/>
          <path id="패스_40" data-name="패스 40" d="M315.909,154.358a.427.427,0,0,1-.427-.426v-9.407H310.71v9.407a.427.427,0,0,1-.854,0V144.1a.427.427,0,0,1,.427-.426h5.626a.427.427,0,0,1,.427.426v9.833A.427.427,0,0,1,315.909,154.358Z" fill="#2b4390"/>
          <path id="패스_41" data-name="패스 41" d="M314.344,150.232a.641.641,0,0,1-.641-.64v-.578a.641.641,0,0,1,1.281,0v.578A.641.641,0,0,1,314.344,150.232Z" fill="#2b4390"/>
          <path id="패스_42" data-name="패스 42" d="M314.344,150.019a.427.427,0,0,1-.427-.426v-.578a.427.427,0,0,1,.854,0v.578A.427.427,0,0,1,314.344,150.019Z" fill="#2b4390"/>
          <path id="패스_43" data-name="패스 43" d="M302.848,148.179a.641.641,0,0,1-.641-.64v-5.062a.641.641,0,0,1,.641-.64h4.8a.641.641,0,0,1,.641.64v5.062a.641.641,0,0,1-.641.64Zm4.158-1.279v-3.782h-3.517V146.9Z" fill="#ed7218"/>
          <path id="패스_44" data-name="패스 44" d="M307.646,147.966h-4.8a.427.427,0,0,1-.427-.426v-5.062a.427.427,0,0,1,.427-.426h4.8a.427.427,0,0,1,.427.426v5.062A.427.427,0,0,1,307.646,147.966Zm-4.372-.853h3.944V142.9h-3.944Z" fill="#ed7218"/>
          <path id="패스_45" data-name="패스 45" d="M305.247,148.179a.641.641,0,0,1-.641-.64v-5.062a.641.641,0,0,1,1.281,0v5.062A.641.641,0,0,1,305.247,148.179Z" fill="#ed7218"/>
          <path id="패스_46" data-name="패스 46" d="M305.247,147.966a.427.427,0,0,1-.427-.426v-5.062a.427.427,0,0,1,.854,0v5.062A.427.427,0,0,1,305.247,147.966Z" fill="#ed7218"/>
          <path id="패스_47" data-name="패스 47" d="M302.848,145.649a.64.64,0,1,1,0-1.279h4.8a.64.64,0,1,1,0,1.279Z" fill="#ed7218"/>
          <path id="패스_48" data-name="패스 48" d="M307.646,145.435h-4.8a.426.426,0,1,1,0-.853h4.8a.426.426,0,1,1,0,.853Z" fill="#ed7218"/>
        </g>
      </g>
      <path id="Color_Overlay" data-name="Color Overlay" d="M914.6,262.811H879.387a.641.641,0,0,1-.641-.64V238.286l-.521.407a.641.641,0,0,1-1.035-.5v-3.532a.635.635,0,0,1,.246-.5l11.43-8.929a.641.641,0,0,1,.789,0l11.429,8.929a.636.636,0,0,1,.247.5v3.532a.641.641,0,0,1-1.036.5l-.521-.407V239.8h17.047a.639.639,0,0,1,.573.355l3.525,7.054a.64.64,0,0,1-.573.925h-2.124v14.035a.641.641,0,0,1-.64.64Zm0-11.112a.641.641,0,0,1,.641.639v9.194h1.7v-13.4H899.774v13.4h8.563v-9.194a.641.641,0,0,1,.641-.639Zm-4.986,9.833h4.345v-8.555h-4.345ZM895.1,249.7a.641.641,0,0,1,.64.64v11.2h2.758V237.285l-9.233-7.213-9.232,7.212v24.248h2.164v-11.2a.641.641,0,0,1,.64-.64Zm-5.3,11.835h4.656V250.976H889.8Zm-6.326,0h5.044V250.976h-5.044Zm16.3-14.675H919.31l-2.886-5.775h-16.65Zm-10.119-18.1,10.394,8.12v-1.909l-10.789-8.428-10.788,8.428v1.909l10.394-8.12a.641.641,0,0,1,.789,0ZM912.4,257.832v-.578a.64.64,0,0,1,1.281,0v.578a.64.64,0,0,1-1.281,0Zm-8.457-1.413h-2.4a.641.641,0,0,1-.64-.64v-5.062a.641.641,0,0,1,.64-.64h4.8a.641.641,0,0,1,.641.64v5.062a.641.641,0,0,1-.641.64Zm.641-1.28H905.7v-1.251h-1.118Zm-2.4,0H903.3v-1.251h-1.119Zm2.4-2.531H905.7v-1.251h-1.118Zm-2.4,0H903.3v-1.251h-1.119Zm-10.5-5.24h-8.847a.64.64,0,0,1-.64-.639v-7.438a.641.641,0,0,1,.64-.64H895.1a.641.641,0,0,1,.64.64v7.438a.64.64,0,0,1-.64.639Zm.64-1.279h2.136v-2.439h-2.136Zm-5.43,0h4.149v-2.439h-4.149Zm-3.416,0h2.136v-2.439h-2.136Zm8.846-3.719h2.136v-2.439h-2.136Zm-5.43,0h4.149v-2.439h-4.149Zm-3.416,0h2.136v-2.439h-2.136Z" fill="#616161"/>
    </g>
  </g>
</svg>
