<svg xmlns="http://www.w3.org/2000/svg" xmlns:xlink="http://www.w3.org/1999/xlink" width="40.5" height="40.501" viewBox="0 0 40.5 40.501">
  <defs>
    <clipPath id="clip-path">
      <rect id="사각형_15" data-name="사각형 15" width="40.5" height="40.5" transform="translate(0 0)" fill="none"/>
    </clipPath>
  </defs>
  <g id="Vector_Smart_Object" data-name="Vector Smart Object" transform="translate(-1460 -417.829)">
    <g id="Vector_Smart_Object-2" data-name="Vector Smart Object" transform="translate(1460 417.829)">
      <g id="그룹_30" data-name="그룹 30">
        <g id="그룹_29" data-name="그룹 29" clip-path="url(#clip-path)">
          <path id="패스_203" data-name="패스 203" d="M16.032,16.718H.766A.765.765,0,0,1,0,15.953c0-4.78,1.847-7.407,5.491-7.808a.77.77,0,0,1,.759.4c.287.535,1.072,1.779,2.148,1.779s1.862-1.245,2.149-1.78a.827.827,0,0,1,.8-.4c3.619.392,5.454,3.02,5.454,7.81a.766.766,0,0,1-.766.765M1.549,15.188h13.7c-.2-4.159-2.035-5.176-3.62-5.46A3.925,3.925,0,0,1,8.4,11.853,3.924,3.924,0,0,1,5.174,9.736c-1.593.3-3.424,1.329-3.624,5.451"/>
          <path id="패스_204" data-name="패스 204" d="M8.4,11.853c-2.821,0-4.553-3.9-4.553-6.694C3.846,2.17,5.76,0,8.4,0s4.553,2.17,4.553,5.159c0,2.795-1.732,6.694-4.553,6.694M8.4,1.53c-1.779,0-3.021,1.492-3.021,3.629,0,2.324,1.394,5.164,3.021,5.164S11.42,7.483,11.42,5.159c0-2.137-1.242-3.629-3.021-3.629"/>
          <path id="패스_205" data-name="패스 205" d="M39.734,16.769H24.469A.765.765,0,0,1,23.7,16c0-4.78,1.847-7.407,5.491-7.808a.771.771,0,0,1,.759.4c.287.535,1.071,1.779,2.148,1.779s1.862-1.245,2.149-1.78a.821.821,0,0,1,.8-.4C38.665,8.586,40.5,11.214,40.5,16a.765.765,0,0,1-.766.765m-14.482-1.53h13.7c-.2-4.159-2.035-5.176-3.62-5.459A3.926,3.926,0,0,1,32.1,11.9a3.923,3.923,0,0,1-3.225-2.116c-1.593.3-3.424,1.328-3.624,5.451"/>
          <path id="패스_206" data-name="패스 206" d="M32.1,11.9c-2.822,0-4.553-3.9-4.553-6.694C27.548,2.22,29.463.05,32.1.05s4.553,2.17,4.553,5.159C36.655,8,34.923,11.9,32.1,11.9m0-10.322c-1.779,0-3.021,1.493-3.021,3.629,0,2.324,1.394,5.164,3.021,5.164s3.021-2.839,3.021-5.164c0-2.136-1.242-3.629-3.021-3.629"/>
          <path id="패스_207" data-name="패스 207" d="M27.883,40.5H12.617a.765.765,0,0,1-.766-.765c0-4.78,1.847-7.407,5.491-7.808a.77.77,0,0,1,.759.4c.287.535,1.071,1.779,2.148,1.779s1.862-1.245,2.149-1.78a.823.823,0,0,1,.8-.4c3.619.392,5.454,3.02,5.454,7.81a.766.766,0,0,1-.766.765M13.4,38.97H27.1c-.2-4.16-2.034-5.176-3.62-5.46a3.925,3.925,0,0,1-3.23,2.125,3.923,3.923,0,0,1-3.225-2.116c-1.593.3-3.424,1.328-3.624,5.451"/>
          <path id="패스_208" data-name="패스 208" d="M20.25,35.635c-2.822,0-4.553-3.9-4.553-6.694,0-2.989,1.915-5.159,4.553-5.159s4.553,2.17,4.553,5.159c0,2.795-1.732,6.694-4.553,6.694m0-10.322c-1.779,0-3.021,1.492-3.021,3.629,0,2.324,1.394,5.164,3.021,5.164s3.021-2.839,3.021-5.164c0-2.137-1.242-3.629-3.021-3.629"/>
          <path id="패스_209" data-name="패스 209" d="M22.481,5.581h-4.6a.765.765,0,1,1,0-1.53h4.6a.765.765,0,1,1,0,1.53"/>
          <path id="패스_210" data-name="패스 210" d="M11.984,24.854a.765.765,0,0,1-.664-.383L9.022,20.5a.766.766,0,0,1,1.327-.765l2.3,3.975a.765.765,0,0,1-.662,1.148"/>
          <path id="패스_211" data-name="패스 211" d="M28.587,24.512a.765.765,0,0,1-.662-1.148l2.3-3.975a.766.766,0,0,1,1.327.765l-2.3,3.975a.765.765,0,0,1-.664.383"/>
        </g>
      </g>
    </g>
    <path id="Color_Overlay" data-name="Color Overlay" d="M1472.617,458.329a.766.766,0,0,1-.766-.765c0-4.311,1.5-6.87,4.471-7.625a9,9,0,0,1-.625-3.169c0-2.989,1.914-5.159,4.553-5.159s4.553,2.17,4.553,5.159a9.011,9.011,0,0,1-.621,3.158c2.965.74,4.467,3.3,4.467,7.636a.766.766,0,0,1-.766.765Zm.784-1.53h13.7c-.2-4.16-2.034-5.176-3.619-5.459a4.856,4.856,0,0,1-1.8,1.766,3.064,3.064,0,0,1-1.287.356h-.289a3.092,3.092,0,0,1-1.367-.4l-.007,0-.01-.005a4.927,4.927,0,0,1-1.7-1.706C1475.431,451.643,1473.6,452.677,1473.4,456.8Zm3.828-10.029a7.5,7.5,0,0,0,.816,3.295.753.753,0,0,1,.057.09c.275.514,1.011,1.682,2.023,1.773h0l.022,0h0l.046,0h.106l.046,0h0l.021,0h0c1.012-.092,1.748-1.26,2.023-1.775a.654.654,0,0,1,.055-.085,7.513,7.513,0,0,0,.817-3.3c0-2.137-1.242-3.629-3.021-3.629S1477.229,444.634,1477.229,446.771Zm-5.908-4.469-2.3-3.975a.766.766,0,0,1,1.327-.765l2.3,3.975a.765.765,0,0,1-1.326.765Zm16.884-.063a.765.765,0,0,1-.28-1.045l2.3-3.975a.766.766,0,0,1,1.327.765l-2.3,3.975a.767.767,0,0,1-1.047.28Zm-3.736-7.64a.766.766,0,0,1-.766-.765c0-4.311,1.5-6.871,4.471-7.626a8.993,8.993,0,0,1-.625-3.169c0-2.989,1.915-5.159,4.553-5.159s4.553,2.17,4.553,5.159a9.019,9.019,0,0,1-.621,3.159c2.965.74,4.467,3.3,4.467,7.636a.765.765,0,0,1-.766.765Zm.784-1.53h13.7c-.2-4.159-2.036-5.176-3.62-5.458a3.516,3.516,0,0,1-6.455.007C1487.283,427.912,1485.452,428.945,1485.252,433.068Zm3.828-10.03a7.5,7.5,0,0,0,.817,3.3.821.821,0,0,1,.056.088c.275.514,1.011,1.681,2.022,1.773h0l.021,0h0l.046,0h.106l.046,0h0l.022,0h0c1.013-.091,1.749-1.26,2.024-1.775a.654.654,0,0,1,.055-.085,7.517,7.517,0,0,0,.817-3.3c0-2.136-1.242-3.629-3.021-3.629S1489.08,420.9,1489.08,423.039Zm-28.314,11.508a.765.765,0,0,1-.766-.765c0-4.311,1.5-6.871,4.471-7.626a8.988,8.988,0,0,1-.625-3.168c0-2.989,1.914-5.159,4.553-5.159s4.553,2.17,4.553,5.159a9.011,9.011,0,0,1-.621,3.158c2.966.74,4.467,3.3,4.467,7.636a.766.766,0,0,1-.766.765Zm.784-1.53h13.7c-.2-4.159-2.035-5.176-3.619-5.459a4.9,4.9,0,0,1-1.748,1.739,3.082,3.082,0,0,1-1.337.383h-.29a3.07,3.07,0,0,1-1.258-.341l-.008,0a4.829,4.829,0,0,1-1.814-1.768C1463.58,427.861,1461.749,428.9,1461.55,433.017Zm3.828-10.029a7.511,7.511,0,0,0,.815,3.294.734.734,0,0,1,.058.091c.275.514,1.011,1.682,2.023,1.773h0l.022,0h0l.046,0h.106l.046,0h0l.021,0h0c1.012-.092,1.748-1.26,2.023-1.775a.732.732,0,0,1,.055-.086,7.5,7.5,0,0,0,.817-3.3c0-2.137-1.242-3.629-3.021-3.629S1465.377,420.852,1465.377,422.988Zm12.508.422a.765.765,0,1,1,0-1.53h4.6a.765.765,0,1,1,0,1.53Z" fill="#6b6b6b"/>
  </g>
</svg>
