<svg xmlns="http://www.w3.org/2000/svg" width="30.011" height="40.784" viewBox="0 0 30.011 40.784">
  <g id="link-1on" transform="translate(-782 -606.565)">
    <g id="Vector_Smart_Object_copy_6" data-name="Vector Smart Object copy 6" transform="translate(495.635 411.129)">
      <g id="그룹_27" data-name="그룹 27">
        <g id="그룹_21" data-name="그룹 21">
          <g id="그룹_19" data-name="그룹 19">
            <path id="패스_13" data-name="패스 13" d="M307.93,222.338H294.812a.78.78,0,0,1-.79-.771c0-4.092,1.627-6.341,4.836-6.687a.792.792,0,0,1,.782.4c.236.43.877,1.427,1.73,1.427s1.5-1,1.731-1.428a.853.853,0,0,1,.813-.4c3.187.337,4.8,2.588,4.8,6.688A.78.78,0,0,1,307.93,222.338Zm-12.305-1.543h11.494c-.187-3.2-1.561-4.06-2.909-4.316a3.158,3.158,0,0,1-5.671.008C297.256,216.747,295.821,217.608,295.625,220.795Z" fill="#ed7218"/>
          </g>
          <g id="그룹_20" data-name="그룹 20">
            <path id="패스_14" data-name="패스 14" d="M301.371,218.251c-2.506,0-4.045-3.35-4.045-5.752,0-2.585,1.7-4.462,4.045-4.462s4.044,1.876,4.044,4.462C305.415,214.9,303.876,218.251,301.371,218.251Zm0-8.671c-1.452,0-2.466,1.2-2.466,2.919,0,1.856,1.161,4.21,2.466,4.21s2.465-2.354,2.465-4.21C303.836,210.779,302.822,209.579,301.371,209.579Z" fill="#ed7218"/>
          </g>
        </g>
        <g id="그룹_22" data-name="그룹 22">
          <path id="패스_15" data-name="패스 15" d="M315.587,206.619H305.452a.78.78,0,0,1-.79-.771v-9.641a.773.773,0,0,1,.483-.711.8.8,0,0,1,.858.159l10.136,9.641a.756.756,0,0,1,.18.842A.79.79,0,0,1,315.587,206.619Zm-9.345-1.543h7.4l-7.4-7.042Z" fill="#2b4390"/>
        </g>
        <g id="그룹_23" data-name="그룹 23">
          <path id="패스_16" data-name="패스 16" d="M314.007,236.22H288.735a2.344,2.344,0,0,1-2.369-2.314V197.75a2.344,2.344,0,0,1,2.369-2.314h16.717a.8.8,0,0,1,.551.219l10.135,9.641a.766.766,0,0,1,.238.552v28.058A2.344,2.344,0,0,1,314.007,236.22Zm-25.272-39.241a.781.781,0,0,0-.79.771v36.156a.781.781,0,0,0,.79.771h25.272a.781.781,0,0,0,.79-.771V206.174l-9.667-9.195Z" fill="#2b4390"/>
        </g>
        <g id="그룹_26" data-name="그룹 26">
          <g id="그룹_24" data-name="그룹 24">
            <path id="패스_17" data-name="패스 17" d="M310.848,231.593H291.894a.771.771,0,1,1,0-1.543h18.954a.771.771,0,1,1,0,1.543Z" fill="#ed7218"/>
          </g>
          <g id="그룹_25" data-name="그룹 25">
            <path id="패스_18" data-name="패스 18" d="M310.848,226.965H291.894a.771.771,0,1,1,0-1.543h18.954a.771.771,0,1,1,0,1.543Z" fill="#ed7218"/>
          </g>
        </g>
      </g>
    </g>
  </g>
</svg>
