<svg xmlns="http://www.w3.org/2000/svg" width="43.494" height="43.506" viewBox="0 0 43.494 43.506">
  <g id="link-7" transform="translate(-979.002 -344.497)">
    <g id="Vector_Smart_Object" data-name="Vector Smart Object">
      <g id="Vector_Smart_Object-2" data-name="Vector Smart Object" transform="translate(404.123 321.758)">
        <g id="그룹_101" data-name="그룹 101">
          <path id="패스_285" data-name="패스 285" d="M586.679,40.215h-8.166a2.322,2.322,0,0,1-2.3-2.34V35.56a.766.766,0,0,1,.761-.772h11.24a.766.766,0,0,1,.76.772v2.315A2.322,2.322,0,0,1,586.679,40.215Zm-8.95-3.883v1.544a.792.792,0,0,0,.785.8h8.166a.792.792,0,0,0,.784-.8V36.332Z" fill="#ed7218"/>
          <path id="패스_286" data-name="패스 286" d="M600.7,40.215h-8.158a2.323,2.323,0,0,1-2.306-2.34V35.56a.771.771,0,0,1,.76-.772H602.25a.771.771,0,0,1,.76.772v2.315A2.323,2.323,0,0,1,600.7,40.215Zm-8.942-3.883v1.544a.792.792,0,0,0,.785.8H600.7a.792.792,0,0,0,.785-.8V36.332Z" fill="#ed7218"/>
          <path id="패스_287" data-name="패스 287" d="M614.738,40.215h-8.166a2.322,2.322,0,0,1-2.3-2.34V35.56a.766.766,0,0,1,.76-.772h11.24a.766.766,0,0,1,.76.772v2.315A2.322,2.322,0,0,1,614.738,40.215Zm-8.95-3.883v1.544a.792.792,0,0,0,.784.8h8.166a.792.792,0,0,0,.784-.8V36.332Z" fill="#ed7218"/>
          <path id="패스_288" data-name="패스 288" d="M587.136,62.24h-9.078a.764.764,0,0,1-.761-.764V39.362a.758.758,0,0,1,.312-.617.737.737,0,0,1,.672-.114.993.993,0,0,0,.232.041h8.166a.993.993,0,0,0,.232-.041.737.737,0,0,1,.672.114.759.759,0,0,1,.312.617V61.477A.759.759,0,0,1,587.136,62.24ZM578.818,60.7h7.565V40.215h-7.565Z" fill="#ed7218"/>
          <path id="패스_289" data-name="패스 289" d="M601.169,62.24h-9.086a.757.757,0,0,1-.753-.764V39.362a.773.773,0,0,1,.3-.617.757.757,0,0,1,.68-.114.928.928,0,0,0,.232.041H600.7a.929.929,0,0,0,.232-.041.753.753,0,0,1,.68.114.773.773,0,0,1,.3.617V61.477A.757.757,0,0,1,601.169,62.24ZM592.843,60.7h7.565V40.215h-7.565Z" fill="#ed7218"/>
          <path id="패스_290" data-name="패스 290" d="M615.195,62.24h-9.078a.759.759,0,0,1-.76-.764V39.362a.759.759,0,0,1,.312-.617.737.737,0,0,1,.672-.114.993.993,0,0,0,.232.041h8.166a.993.993,0,0,0,.232-.041.737.737,0,0,1,.672.114.759.759,0,0,1,.312.617V61.477A.759.759,0,0,1,615.195,62.24ZM606.869,60.7h7.573V40.215h-7.573Z" fill="#ed7218"/>
          <path id="패스_291" data-name="패스 291" d="M581.1,58.064a.759.759,0,0,1-.76-.764V39.452a.757.757,0,1,1,1.513,0V57.3A.757.757,0,0,1,581.1,58.064Z" fill="#ed7218"/>
          <path id="패스_292" data-name="패스 292" d="M584.093,58.032a.757.757,0,0,1-.753-.764V39.419a.757.757,0,1,1,1.513,0V57.268A.759.759,0,0,1,584.093,58.032Z" fill="#ed7218"/>
          <path id="패스_293" data-name="패스 293" d="M595.125,58a.757.757,0,0,1-.753-.764V39.492a.757.757,0,1,1,1.513,0V57.236A.759.759,0,0,1,595.125,58Z" fill="#ed7218"/>
          <path id="패스_294" data-name="패스 294" d="M598.127,57.967a.764.764,0,0,1-.76-.764V39.46a.761.761,0,1,1,1.521,0V57.2A.764.764,0,0,1,598.127,57.967Z" fill="#ed7218"/>
          <path id="패스_295" data-name="패스 295" d="M609.159,57.983a.759.759,0,0,1-.76-.764V39.476a.757.757,0,1,1,1.513,0V57.22A.757.757,0,0,1,609.159,57.983Z" fill="#ed7218"/>
          <path id="패스_296" data-name="패스 296" d="M612.153,57.951a.757.757,0,0,1-.753-.764V39.444a.757.757,0,1,1,1.513,0V57.187A.759.759,0,0,1,612.153,57.951Z" fill="#ed7218"/>
          <path id="패스_297" data-name="패스 297" d="M587.136,58.064h-9.078a.768.768,0,0,1,0-1.535h9.078a.768.768,0,0,1,0,1.535Z" fill="#ed7218"/>
          <path id="패스_298" data-name="패스 298" d="M601.169,58.032h-9.086a.768.768,0,0,1,0-1.535h9.086a.768.768,0,0,1,0,1.535Z" fill="#ed7218"/>
          <path id="패스_299" data-name="패스 299" d="M615.195,58h-9.078a.768.768,0,0,1,0-1.535h9.078a.768.768,0,0,1,0,1.535Z" fill="#ed7218"/>
          <path id="패스_300" data-name="패스 300" d="M617.62,66.246H575.632a.764.764,0,0,1-.753-.772V63.037a2.32,2.32,0,0,1,2.3-2.332h38.9a2.315,2.315,0,0,1,2.3,2.332v2.437A.764.764,0,0,1,617.62,66.246ZM576.392,64.7H616.86V63.037a.792.792,0,0,0-.785-.8h-38.9a.792.792,0,0,0-.785.8Z" fill="#2b4390"/>
          <path id="패스_301" data-name="패스 301" d="M617.62,36.332H575.632a.764.764,0,0,1-.753-.772V30.775a.763.763,0,0,1,.584-.747l16.6-3.827a.77.77,0,0,1,.336,1.5l-16.011,3.688v3.4H616.86v-3.4L601,27.736a.772.772,0,0,1-.576-.918.761.761,0,0,1,.913-.577l16.451,3.786a.763.763,0,0,1,.584.747V35.56A.764.764,0,0,1,617.62,36.332Z" fill="#2b4390"/>
          <path id="패스_302" data-name="패스 302" d="M596.63,33.5a5.379,5.379,0,1,1,5.292-5.378A5.346,5.346,0,0,1,596.63,33.5Zm0-9.213a3.839,3.839,0,1,0,3.779,3.835A3.816,3.816,0,0,0,596.63,24.284Z" fill="#2b4390"/>
          <path id="패스_303" data-name="패스 303" d="M590.642,32.855h-5.18a3.661,3.661,0,0,1-3.626-3.68.761.761,0,1,1,1.521,0,2.131,2.131,0,0,0,2.105,2.145h5.18a.768.768,0,0,1,0,1.535Z" fill="#2b4390"/>
          <path id="패스_304" data-name="패스 304" d="M607.79,32.855h-5.18a.768.768,0,0,1,0-1.535h5.18a2.131,2.131,0,0,0,2.105-2.145.761.761,0,1,1,1.521,0A3.661,3.661,0,0,1,607.79,32.855Z" fill="#2b4390"/>
        </g>
      </g>
      <path id="Color_Overlay" data-name="Color Overlay" d="M979.755,388a.764.764,0,0,1-.752-.771v-2.437a2.319,2.319,0,0,1,2.3-2.332h.121V361.616a2.35,2.35,0,0,1-1.081-1.984v-1.544h-.584a.764.764,0,0,1-.752-.772v-4.785a.762.762,0,0,1,.584-.747l6.936-1.6c.021-.006.042-.011.063-.015l9.18-2.115a5.269,5.269,0,0,1,9.969.006l9.144,2.1a.677.677,0,0,1,.128.029l6.9,1.589a.762.762,0,0,1,.584.747v4.785a.765.765,0,0,1-.752.772h-.585v1.544a2.349,2.349,0,0,1-1.08,1.984v20.846h.12a2.315,2.315,0,0,1,2.3,2.332v2.437a.764.764,0,0,1-.752.771Zm.76-3.209v1.665h40.468v-1.665a.792.792,0,0,0-.785-.8H981.3A.791.791,0,0,0,980.516,384.794Zm30.477-2.332h7.573v-2.705h-7.573Zm-3.859-22.829a2.347,2.347,0,0,1-1.088,1.987v20.842h3.434V361.617a2.352,2.352,0,0,1-1.081-1.984v-1.544h-1.265Zm-10.166,22.829h7.565v-2.673h-7.565ZM993.1,359.633a2.35,2.35,0,0,1-1.081,1.984v20.846h3.434V361.621a2.346,2.346,0,0,1-1.089-1.988v-1.544H993.1Zm-10.159,22.829h7.565v-2.641h-7.565Zm6.036-4.176h1.529V361.973h-1.529Zm-3,0h1.49V361.973h-1.49Zm-3.034,0h1.521V361.973h-1.521Zm20.07-.032h1.521V361.973h-1.521Zm-3,0h1.481V361.973h-1.481Zm-3.042,0H998.5V361.973h-1.529Zm20.069-.032h1.529V361.973h-1.529Zm-3,0h1.489V361.973h-1.489Zm-3.042,0h1.529V361.973h-1.529Zm-1.081-18.589a.8.8,0,0,0,.491.739l.061.016a.953.953,0,0,0,.232.041h8.166a.947.947,0,0,0,.231-.041l.062-.017a.8.8,0,0,0,.49-.738v-1.544h-9.734Zm-14.026,0a.8.8,0,0,0,.491.739l.061.016a.9.9,0,0,0,.232.041h8.158a.9.9,0,0,0,.232-.041c.02-.006.04-.012.06-.016a.8.8,0,0,0,.491-.739v-1.544h-9.726Zm-7.511.8H990.8a.961.961,0,0,0,.232-.041c.02-.006.04-.012.06-.016a.8.8,0,0,0,.491-.739v-1.544h-9.734v1.544a.8.8,0,0,0,.492.739l.06.016a.961.961,0,0,0,.232.041h5.425a.728.728,0,0,1,.155-.016A.754.754,0,0,1,988.375,360.429Zm-7.859-7.28v3.4h40.468v-3.4l-5.563-1.283a3.645,3.645,0,0,1-3.507,2.745h-5.18a.768.768,0,0,1,0-1.535h5.18a2.119,2.119,0,0,0,2.023-1.552l-7.894-1.82q0,.085,0,.17a5.3,5.3,0,1,1-10.591,0q0-.084,0-.167l-7.894,1.818a2.119,2.119,0,0,0,2.023,1.551h5.18a.768.768,0,0,1,0,1.535h-5.18a3.648,3.648,0,0,1-3.508-2.744Zm16.586-4.29a.776.776,0,0,1-.026.1,3.869,3.869,0,0,0-.109.913,3.825,3.825,0,1,0,.135-1.016Z" fill="#6b6b6b"/>
    </g>
  </g>
</svg>
