<svg xmlns="http://www.w3.org/2000/svg" xmlns:xlink="http://www.w3.org/1999/xlink" width="38.776" height="29.33" viewBox="0 0 38.776 29.33">
  <defs>
    <clipPath id="clip-path">
      <rect id="사각형_7" data-name="사각형 7" width="38.776" height="29.33" transform="translate(0 0)" fill="none"/>
    </clipPath>
  </defs>
  <g id="Vector_Smart_Object" data-name="Vector Smart Object" transform="translate(-1461.848 -301.442)">
    <g id="Vector_Smart_Object-2" data-name="Vector Smart Object" transform="translate(1461.849 301.442)">
      <g id="그룹_14" data-name="그룹 14">
        <g id="그룹_13" data-name="그룹 13" clip-path="url(#clip-path)">
          <path id="패스_83" data-name="패스 83" d="M19.388,25.825a.637.637,0,0,1-.228-.043,27.319,27.319,0,0,0-8.1-1.75,51.872,51.872,0,0,0-8.21.884.624.624,0,0,1-.746-.611V1.519A.623.623,0,0,1,2.593.911,44.655,44.655,0,0,1,11.057,0,24.2,24.2,0,0,1,19.64,1.845a.623.623,0,0,1,.374.57V25.2a.625.625,0,0,1-.625.622m-8.331-3.038a26.294,26.294,0,0,1,7.705,1.527V2.833a23.008,23.008,0,0,0-7.705-1.589,43.863,43.863,0,0,0-7.7.783V23.56a49.658,49.658,0,0,1,7.7-.772" fill="#303030"/>
          <path id="패스_84" data-name="패스 84" d="M19.388,25.825a.624.624,0,0,1-.625-.622V2.415a.623.623,0,0,1,.374-.57A24.2,24.2,0,0,1,27.719,0a44.609,44.609,0,0,1,8.465.911.623.623,0,0,1,.491.608V24.307a.624.624,0,0,1-.746.611,51.934,51.934,0,0,0-8.211-.884,27.33,27.33,0,0,0-8.1,1.749.624.624,0,0,1-.228.043m.625-22.992V24.315a26.278,26.278,0,0,1,7.705-1.527,49.738,49.738,0,0,1,7.705.772V2.028a43.947,43.947,0,0,0-7.705-.783,22.959,22.959,0,0,0-7.705,1.588" fill="#303030"/>
          <path id="패스_85" data-name="패스 85" d="M19.388,29.33a.622.622,0,0,1-.4-.143C13.676,24.816.926,28.373.8,28.41a.625.625,0,0,1-.8-.6V3.237a.624.624,0,0,1,.625-.622c.665,0,1.357-1.025,1.548-1.385A.628.628,0,0,1,3.017.968a.621.621,0,0,1,.265.839,4.26,4.26,0,0,1-2.031,1.95V27c2.994-.742,13.475-2.94,18.536,1.225a.622.622,0,0,1-.4,1.1" fill="#303030"/>
          <path id="패스_86" data-name="패스 86" d="M19.389,29.33a.622.622,0,0,1-.366-1.127c5.731-4.112,15.6-1.968,18.5-1.211V3.756a4.261,4.261,0,0,1-2.03-1.95.621.621,0,0,1,.266-.84.627.627,0,0,1,.843.263c.191.36.883,1.385,1.547,1.385a.624.624,0,0,1,.625.622V27.811a.623.623,0,0,1-.253.5.635.635,0,0,1-.554.1c-.121-.036-12.087-3.59-18.215.806a.624.624,0,0,1-.365.118" fill="#303030"/>
          <path id="패스_87" data-name="패스 87" d="M31.923,7.968a.625.625,0,0,1-.178-.025c-5.014-1.476-8.313-.045-8.346-.03a.627.627,0,0,1-.827-.31.62.62,0,0,1,.309-.823c.15-.067,3.73-1.646,9.218-.03a.622.622,0,0,1-.177,1.219" fill="#303030"/>
          <path id="패스_88" data-name="패스 88" d="M31.923,12.909a.626.626,0,0,1-.178-.026c-5.014-1.476-8.313-.045-8.346-.03a.627.627,0,0,1-.827-.311.62.62,0,0,1,.309-.823c.15-.067,3.73-1.647,9.218-.03a.622.622,0,0,1-.177,1.22" fill="#303030"/>
          <path id="패스_89" data-name="패스 89" d="M31.923,17.849a.626.626,0,0,1-.178-.026c-5.014-1.476-8.313-.045-8.346-.03a.627.627,0,0,1-.827-.311.62.62,0,0,1,.309-.823c.15-.067,3.73-1.647,9.218-.03a.622.622,0,0,1-.177,1.22" fill="#303030"/>
          <path id="패스_90" data-name="패스 90" d="M15.448,7.968a.628.628,0,0,1-.178-.025C10.225,6.457,6.96,7.9,6.927,7.912a.623.623,0,1,1-.519-1.133c.15-.067,3.729-1.646,9.218-.03a.622.622,0,0,1-.177,1.219" fill="#303030"/>
          <path id="패스_91" data-name="패스 91" d="M15.448,12.909a.628.628,0,0,1-.178-.026c-5.045-1.485-8.311-.045-8.344-.03a.623.623,0,1,1-.519-1.133c.15-.067,3.729-1.647,9.218-.03a.622.622,0,0,1-.177,1.22" fill="#303030"/>
          <path id="패스_92" data-name="패스 92" d="M15.448,17.849a.628.628,0,0,1-.178-.026c-5.045-1.485-8.311-.045-8.344-.03a.623.623,0,1,1-.519-1.133c.15-.067,3.729-1.646,9.218-.03a.622.622,0,0,1-.177,1.22" fill="#303030"/>
        </g>
      </g>
    </g>
    <path id="Color_Overlay" data-name="Color Overlay" d="M1481.252,330.773h-.034a.634.634,0,0,1-.229-.05l0,0-.01,0a.609.609,0,0,1-.158-.1c-5.326-4.347-18.045-.8-18.173-.76a.633.633,0,0,1-.549-.1.623.623,0,0,1-.248-.5V304.679a.623.623,0,0,1,.625-.622c.665,0,1.357-1.025,1.547-1.385a.623.623,0,0,1,.152-.187.63.63,0,0,1,.268-.131,44.646,44.646,0,0,1,8.465-.911,24.087,24.087,0,0,1,8.331,1.74,24.079,24.079,0,0,1,8.33-1.74,44.569,44.569,0,0,1,8.464.911.63.63,0,0,1,.286.147h0l.014.014h0l.014.014h0l.014.015h0a.6.6,0,0,1,.093.135c.2.369.885,1.375,1.542,1.375a.623.623,0,0,1,.625.622v24.575a.622.622,0,0,1-.253.5.635.635,0,0,1-.554.095c-.121-.036-12.057-3.581-18.193.789a.608.608,0,0,1-.2.1h0l-.011,0-.01,0h0a.644.644,0,0,1-.149.023Zm.006-1.392c5.778-3.752,15.277-1.687,18.114-.946V305.2a2.7,2.7,0,0,1-.85-.483v21.033a.619.619,0,0,1-.229.481.627.627,0,0,1-.517.13,51.831,51.831,0,0,0-8.21-.885,27.188,27.188,0,0,0-8.095,1.747.627.627,0,0,1-.464,0,27.336,27.336,0,0,0-8.1-1.75,51.769,51.769,0,0,0-8.21.885.625.625,0,0,1-.746-.611V304.716a2.724,2.724,0,0,1-.85.483v23.247a41.956,41.956,0,0,1,9.5-1.246C1475.748,327.2,1478.974,327.721,1481.259,329.38Zm.6-25.1v21.481a26.3,26.3,0,0,1,7.706-1.526,49.828,49.828,0,0,1,7.7.771V303.471a43.9,43.9,0,0,0-7.7-.784A22.959,22.959,0,0,0,1481.862,304.276Zm-1.251,21.481V304.276a23,23,0,0,0-7.7-1.589,43.823,43.823,0,0,0-7.7.784V325a49.7,49.7,0,0,1,7.7-.772A26.291,26.291,0,0,1,1480.611,325.757Zm12.983-6.491c-5.014-1.476-8.313-.045-8.346-.03a.627.627,0,0,1-.826-.311.62.62,0,0,1,.309-.823c.15-.067,3.73-1.646,9.218-.03a.622.622,0,0,1-.176,1.22A.642.642,0,0,1,1493.593,319.266Zm-16.474,0c-5.045-1.486-8.311-.045-8.344-.031a.623.623,0,1,1-.519-1.133c.149-.067,3.73-1.646,9.218-.03a.622.622,0,0,1-.177,1.22A.641.641,0,0,1,1477.119,319.266Zm-9.172-5.279a.621.621,0,0,1,.309-.824c.149-.068,3.73-1.647,9.218-.031a.622.622,0,0,1-.177,1.219.638.638,0,0,1-.177-.025c-5.045-1.485-8.311-.046-8.344-.031a.615.615,0,0,1-.259.057A.625.625,0,0,1,1467.947,313.987Zm25.646.339c-5.014-1.476-8.313-.045-8.346-.031a.626.626,0,0,1-.826-.311.62.62,0,0,1,.309-.823c.15-.068,3.73-1.647,9.218-.031a.622.622,0,0,1-.176,1.219A.64.64,0,0,1,1493.593,314.326Zm-25.646-5.279a.621.621,0,0,1,.309-.825c.149-.068,3.73-1.647,9.218-.031a.622.622,0,0,1-.177,1.219.608.608,0,0,1-.177-.025c-5.045-1.486-8.311-.045-8.344-.031a.618.618,0,0,1-.259.057A.626.626,0,0,1,1467.947,309.047Zm25.646.338c-5.014-1.476-8.313-.045-8.346-.031a.626.626,0,0,1-.826-.31.62.62,0,0,1,.309-.823c.15-.068,3.73-1.647,9.218-.031a.622.622,0,0,1-.176,1.219A.609.609,0,0,1,1493.593,309.385Z" fill="#616161"/>
  </g>
</svg>
