<svg xmlns="http://www.w3.org/2000/svg" width="44.198" height="35.271" viewBox="0 0 44.198 35.271">
  <g id="그룹_252" data-name="그룹 252" transform="translate(-1215.092 -510.078)">
    <g id="그룹_99" data-name="그룹 99" transform="translate(982.189 340.679)">
      <path id="패스_285" data-name="패스 285" d="M249.8,187.922v-1.9a8.071,8.071,0,1,0-5.068,0v1.9A13.594,13.594,0,0,0,233.72,201.29v2.563h27.1V201.29A13.594,13.594,0,0,0,249.8,187.922Z" fill="none" stroke="#2b4390" stroke-miterlimit="10" stroke-width="1.634"/>
      <path id="패스_286" data-name="패스 286" d="M268.3,192.313v-1.379a5.847,5.847,0,1,0-3.671,0v1.379a9.724,9.724,0,0,0-3.157,1.2,14.84,14.84,0,0,1,2.2,7.781v2.563h12.609V202A9.846,9.846,0,0,0,268.3,192.313Z" fill="none" stroke="#2b4390" stroke-miterlimit="10" stroke-width="1.634"/>
    </g>
    <g id="그룹_100" data-name="그룹 100" transform="translate(982.189 340.679)">
      <path id="패스_287" data-name="패스 287" d="M247.059,195.229s-1.189-2.6-3.308-1.817c-2.29.841-1,5.175,3.308,7.217" fill="none" stroke="#e29032" stroke-miterlimit="10" stroke-width="1.634"/>
      <path id="패스_288" data-name="패스 288" d="M247.059,195.229s1.189-2.6,3.309-1.817c2.29.841,1.173,5.175-3.309,7.217" fill="none" stroke="#e29032" stroke-miterlimit="10" stroke-width="1.634"/>
    </g>
  </g>
</svg>
