<svg xmlns="http://www.w3.org/2000/svg" width="30.011" height="40.785" viewBox="0 0 30.011 40.785">
  <g id="link-1" transform="translate(-782 -223.564)">
    <g id="Vector_Smart_Object" data-name="Vector Smart Object">
      <g id="Vector_Smart_Object-2" data-name="Vector Smart Object" transform="translate(495.635 28.129)">
        <g id="그룹_9" data-name="그룹 9">
          <g id="그룹_3" data-name="그룹 3">
            <g id="그룹_1" data-name="그룹 1">
              <path id="패스_1" data-name="패스 1" d="M307.93,222.338H294.812a.78.78,0,0,1-.79-.771c0-4.092,1.627-6.341,4.836-6.687a.792.792,0,0,1,.782.4c.236.43.877,1.427,1.73,1.427s1.5-1,1.731-1.428a.853.853,0,0,1,.813-.4c3.187.337,4.8,2.588,4.8,6.688A.78.78,0,0,1,307.93,222.338Zm-12.305-1.543h11.494c-.187-3.2-1.561-4.06-2.909-4.316a3.158,3.158,0,0,1-5.671.008C297.256,216.747,295.821,217.608,295.625,220.795Z" fill="#ed7218"/>
            </g>
            <g id="그룹_2" data-name="그룹 2">
              <path id="패스_2" data-name="패스 2" d="M301.371,218.251c-2.506,0-4.045-3.35-4.045-5.752,0-2.585,1.7-4.462,4.045-4.462s4.044,1.876,4.044,4.462C305.415,214.9,303.876,218.251,301.371,218.251Zm0-8.671c-1.452,0-2.466,1.2-2.466,2.919,0,1.856,1.161,4.21,2.466,4.21s2.465-2.354,2.465-4.21C303.836,210.779,302.822,209.579,301.371,209.579Z" fill="#ed7218"/>
            </g>
          </g>
          <g id="그룹_4" data-name="그룹 4">
            <path id="패스_3" data-name="패스 3" d="M315.587,206.619H305.452a.78.78,0,0,1-.79-.771v-9.641a.773.773,0,0,1,.483-.711.8.8,0,0,1,.858.159l10.136,9.641a.756.756,0,0,1,.18.842A.79.79,0,0,1,315.587,206.619Zm-9.345-1.543h7.4l-7.4-7.042Z" fill="#2b4390"/>
          </g>
          <g id="그룹_5" data-name="그룹 5">
            <path id="패스_4" data-name="패스 4" d="M314.007,236.22H288.735a2.344,2.344,0,0,1-2.369-2.314V197.75a2.344,2.344,0,0,1,2.369-2.314h16.717a.8.8,0,0,1,.551.219l10.135,9.641a.766.766,0,0,1,.238.552v28.058A2.344,2.344,0,0,1,314.007,236.22Zm-25.272-39.241a.781.781,0,0,0-.79.771v36.156a.781.781,0,0,0,.79.771h25.272a.781.781,0,0,0,.79-.771V206.174l-9.667-9.195Z" fill="#2b4390"/>
          </g>
          <g id="그룹_8" data-name="그룹 8">
            <g id="그룹_6" data-name="그룹 6">
              <path id="패스_5" data-name="패스 5" d="M310.848,231.593H291.894a.771.771,0,1,1,0-1.543h18.954a.771.771,0,1,1,0,1.543Z" fill="#ed7218"/>
            </g>
            <g id="그룹_7" data-name="그룹 7">
              <path id="패스_6" data-name="패스 6" d="M310.848,226.965H291.894a.771.771,0,1,1,0-1.543h18.954a.771.771,0,1,1,0,1.543Z" fill="#ed7218"/>
            </g>
          </g>
        </g>
      </g>
      <path id="Color_Overlay" data-name="Color Overlay" d="M784.37,264.349a2.344,2.344,0,0,1-2.37-2.314V225.878a2.345,2.345,0,0,1,2.37-2.314h16.717a.8.8,0,0,1,.257.042h0l.01,0,.01,0h0a.815.815,0,0,1,.194.105.876.876,0,0,1,.076.064l10.135,9.64a.761.761,0,0,1,.239.578v28.033a2.344,2.344,0,0,1-2.369,2.314Zm-.79-38.471v36.157a.781.781,0,0,0,.79.771h25.272a.781.781,0,0,0,.789-.771V234.748h-9.345a.781.781,0,0,1-.79-.771v-8.87H784.37A.782.782,0,0,0,783.58,225.878Zm18.3,7.327h7.4l-5.967-5.676-1.435-1.365Zm-14.347,26.516a.772.772,0,1,1,0-1.543h18.954a.772.772,0,1,1,0,1.543Zm0-4.628a.772.772,0,1,1,0-1.543h18.954a.772.772,0,1,1,0,1.543Zm2.918-4.627a.78.78,0,0,1-.789-.771c0-3.626,1.277-5.8,3.8-6.494a7.458,7.458,0,0,1-.5-2.573c0-2.586,1.7-4.462,4.045-4.462s4.044,1.876,4.044,4.462a7.472,7.472,0,0,1-.493,2.562c2.522.678,3.8,2.86,3.8,6.505a.78.78,0,0,1-.79.771Zm.813-1.543h11.494c-.187-3.2-1.561-4.06-2.909-4.316a3.588,3.588,0,0,1-2.548,1.757h0l-.022,0h-.006l-.021,0h-.008l-.026,0-.029,0h0l-.023,0h-.3l-.02,0h-.007l-.027,0H796.8l-.02,0h-.039l-.017,0h-.008l-.022,0h-.005a3.6,3.6,0,0,1-2.514-1.745C792.89,244.876,791.456,245.737,791.259,248.924Zm3.28-8.3a6.1,6.1,0,0,0,.713,2.744c.008.013.015.025.023.038a2.965,2.965,0,0,0,1.345,1.36l.02.006.008,0,.023.008h0a1.17,1.17,0,0,0,.24.047h0l.058,0h.067l.057,0h0a1.171,1.171,0,0,0,.239-.047h0l.024-.008.008,0,.02-.007a2.973,2.973,0,0,0,1.346-1.36l.011-.02a6.089,6.089,0,0,0,.723-2.762c0-1.72-1.013-2.92-2.464-2.92S794.54,238.908,794.54,240.628Z" fill="#616161"/>
    </g>
  </g>
</svg>
