<svg xmlns="http://www.w3.org/2000/svg" xmlns:xlink="http://www.w3.org/1999/xlink" width="30.011" height="40.785" viewBox="0 0 30.011 40.785">
  <defs>
    <clipPath id="clip-path">
      <rect id="사각형_1" data-name="사각형 1" width="30.011" height="40.784" transform="translate(0 0)" fill="none"/>
    </clipPath>
  </defs>
  <g id="Vector_Smart_Object" data-name="Vector Smart Object" transform="translate(-1157 -295.565)">
    <g id="Vector_Smart_Object-2" data-name="Vector Smart Object" transform="translate(1157 295.565)">
      <g id="그룹_2" data-name="그룹 2">
        <g id="그룹_1" data-name="그룹 1" clip-path="url(#clip-path)">
          <path id="패스_5" data-name="패스 5" d="M21.565,26.9H8.447a.78.78,0,0,1-.79-.771c0-4.092,1.627-6.341,4.836-6.687a.791.791,0,0,1,.782.4c.236.429.876,1.426,1.73,1.426s1.5-1,1.732-1.428a.854.854,0,0,1,.813-.4c3.187.337,4.8,2.587,4.8,6.688a.78.78,0,0,1-.79.771M9.26,25.359H20.754c-.188-3.2-1.561-4.06-2.909-4.316a3.468,3.468,0,0,1-2.839,1.772,3.463,3.463,0,0,1-2.832-1.763c-1.283.259-2.717,1.121-2.913,4.307"/>
          <path id="패스_6" data-name="패스 6" d="M15.005,22.815c-2.506,0-4.044-3.35-4.044-5.751,0-2.586,1.7-4.462,4.044-4.462s4.044,1.876,4.044,4.462c0,2.4-1.538,5.751-4.044,5.751m0-8.671c-1.452,0-2.465,1.2-2.465,2.92,0,1.855,1.161,4.209,2.465,4.209s2.465-2.354,2.465-4.209c0-1.719-1.013-2.92-2.465-2.92"/>
          <path id="패스_7" data-name="패스 7" d="M29.221,11.183H19.086a.78.78,0,0,1-.79-.771V.771a.771.771,0,0,1,.483-.71.8.8,0,0,1,.858.158L29.772,9.86a.758.758,0,0,1,.181.842.792.792,0,0,1-.732.481M19.876,9.641h7.4L19.876,2.6Z"/>
          <path id="패스_8" data-name="패스 8" d="M27.642,40.784H2.369A2.344,2.344,0,0,1,0,38.47V2.314A2.345,2.345,0,0,1,2.369,0H19.086a.8.8,0,0,1,.551.219L29.772,9.86a.764.764,0,0,1,.239.553V38.47a2.344,2.344,0,0,1-2.369,2.314M2.369,1.543a.781.781,0,0,0-.79.771V38.47a.781.781,0,0,0,.79.771H27.642a.781.781,0,0,0,.79-.771V10.737L18.765,1.543Z"/>
          <path id="패스_9" data-name="패스 9" d="M24.482,36.156H5.528a.771.771,0,1,1,0-1.543H24.482a.771.771,0,1,1,0,1.543"/>
          <path id="패스_10" data-name="패스 10" d="M24.482,31.529H5.528a.771.771,0,1,1,0-1.543H24.482a.771.771,0,1,1,0,1.543"/>
        </g>
      </g>
    </g>
    <path id="Color_Overlay" data-name="Color Overlay" d="M1159.37,336.35a2.344,2.344,0,0,1-2.37-2.314V297.879a2.344,2.344,0,0,1,2.37-2.314h16.717a.8.8,0,0,1,.551.219l10.134,9.641c.005,0,.009.008.013.011l.006.006a.02.02,0,0,0,.005.006l.007.007.005.005.009.011.007.008,0,.005.008.009,0,0a.767.767,0,0,1,.17.446v28.092a2.345,2.345,0,0,1-2.369,2.314Zm-.791-38.471v36.157a.782.782,0,0,0,.791.771h25.272a.781.781,0,0,0,.789-.771V306.749h-9.345a.78.78,0,0,1-.79-.771v-8.87H1159.37A.782.782,0,0,0,1158.579,297.879Zm18.3,7.327h7.4l-7.4-7.042Zm-14.347,26.515a.771.771,0,1,1,0-1.542h18.953a.771.771,0,1,1,0,1.542Zm0-4.627a.772.772,0,1,1,0-1.543h18.953a.772.772,0,1,1,0,1.543Zm2.919-4.628a.78.78,0,0,1-.79-.771c0-3.625,1.277-5.8,3.8-6.493a7.477,7.477,0,0,1-.5-2.573c0-2.586,1.7-4.462,4.046-4.462s4.044,1.876,4.044,4.462a7.478,7.478,0,0,1-.494,2.563c2.522.677,3.8,2.859,3.8,6.5a.78.78,0,0,1-.79.771Zm.813-1.542h11.494c-.188-3.2-1.562-4.06-2.91-4.316a3.562,3.562,0,0,1-2.606,1.761l-.086.006h-.293l-.025,0h-.034l-.022,0h-.009l-.02,0h-.006l-.023,0h0a3.586,3.586,0,0,1-2.542-1.748C1167.89,316.876,1166.457,317.738,1166.26,320.925Zm3.281-8.3a6.112,6.112,0,0,0,.715,2.75l.02.032a3.04,3.04,0,0,0,1.291,1.338l0,0,.02.008.022.007,0,0a1.243,1.243,0,0,0,.3.066h0l.057,0h.066l.057,0h0a1.256,1.256,0,0,0,.355-.087l.008,0,.012-.005a2.986,2.986,0,0,0,1.219-1.246,6.1,6.1,0,0,0,.779-2.865c0-1.719-1.012-2.92-2.463-2.92S1169.541,310.91,1169.541,312.629Z" fill="#616161"/>
  </g>
</svg>
