<svg xmlns="http://www.w3.org/2000/svg" xmlns:xlink="http://www.w3.org/1999/xlink" width="43.502" height="43.5" viewBox="0 0 43.502 43.5">
  <defs>
    <clipPath id="clip-path">
      <rect id="사각형_13" data-name="사각형 13" width="43.502" height="43.5" transform="translate(0 0.002)" fill="none"/>
    </clipPath>
  </defs>
  <g id="Vector_Smart_Object" data-name="Vector Smart Object" transform="translate(-1354 -416.5)">
    <g id="Vector_Smart_Object-2" data-name="Vector Smart Object" transform="translate(1354 416.498)">
      <g id="그룹_26" data-name="그룹 26">
        <g id="그룹_25" data-name="그룹 25" clip-path="url(#clip-path)">
          <path id="패스_163" data-name="패스 163" d="M42.741,43.5H.753A.757.757,0,0,1,0,42.736V40.3a2.315,2.315,0,0,1,2.3-2.332H41.2a2.32,2.32,0,0,1,2.3,2.332v2.437a.757.757,0,0,1-.753.764M1.513,41.964H41.981V40.3a.792.792,0,0,0-.785-.8H2.3a.792.792,0,0,0-.785.8Z"/>
          <path id="패스_164" data-name="패스 164" d="M42.741,13.585H.761A.761.761,0,0,1,0,12.813V8.035A.764.764,0,0,1,.592,7.28l16.6-3.819a.761.761,0,0,1,.913.577.772.772,0,0,1-.576.918L1.513,8.645v3.4H41.981v-3.4L26.122,5a.773.773,0,0,1-.568-.926.749.749,0,0,1,.9-.577L42.909,7.28a.772.772,0,0,1,.592.756v4.777a.766.766,0,0,1-.761.772"/>
          <path id="패스_165" data-name="패스 165" d="M11.8,17.468H3.642a2.317,2.317,0,0,1-2.3-2.34V12.813a.757.757,0,0,1,.753-.764H13.345a.764.764,0,0,1,.761.764v2.316a2.324,2.324,0,0,1-2.306,2.34M2.858,13.585v1.544a.792.792,0,0,0,.785.8H11.8a.792.792,0,0,0,.785-.8V13.585Z"/>
          <path id="패스_166" data-name="패스 166" d="M25.826,17.468H17.668a2.317,2.317,0,0,1-2.3-2.34V12.813a.757.757,0,0,1,.753-.764H27.371a.764.764,0,0,1,.761.764v2.316a2.324,2.324,0,0,1-2.306,2.34m-8.942-3.884v1.544a.792.792,0,0,0,.785.8h8.158a.792.792,0,0,0,.785-.8V13.585Z"/>
          <path id="패스_167" data-name="패스 167" d="M39.859,17.468H31.7a2.317,2.317,0,0,1-2.3-2.34V12.813a.757.757,0,0,1,.753-.764H41.4a.764.764,0,0,1,.761.764v2.316a2.324,2.324,0,0,1-2.306,2.34m-8.942-3.884v1.544a.792.792,0,0,0,.785.8h8.158a.792.792,0,0,0,.785-.8V13.585Z"/>
          <path id="패스_168" data-name="패스 168" d="M12.264,39.5H3.178a.764.764,0,0,1-.753-.772V16.623A.778.778,0,0,1,2.73,16a.753.753,0,0,1,.68-.114.7.7,0,0,0,.232.049H11.8a.7.7,0,0,0,.232-.049.757.757,0,0,1,.68.114.778.778,0,0,1,.3.626V38.731a.764.764,0,0,1-.753.772M3.939,37.959H11.5V17.468H3.939Z"/>
          <path id="패스_169" data-name="패스 169" d="M26.29,39.5H17.212a.766.766,0,0,1-.761-.772V16.623A.763.763,0,0,1,16.763,16a.737.737,0,0,1,.672-.114.738.738,0,0,0,.232.049h8.166a.738.738,0,0,0,.232-.049.737.737,0,0,1,.672.114.763.763,0,0,1,.312.626V38.731a.771.771,0,0,1-.761.772m-8.326-1.544h7.565V17.468H17.964Z"/>
          <path id="패스_170" data-name="패스 170" d="M40.323,39.5H31.237a.771.771,0,0,1-.761-.772V16.623A.785.785,0,0,1,30.789,16a.741.741,0,0,1,.672-.114.738.738,0,0,0,.24.049h8.158a.7.7,0,0,0,.232-.049.757.757,0,0,1,.68.114.778.778,0,0,1,.3.626V38.731a.764.764,0,0,1-.753.772M32,37.959h7.565V17.468H32Z"/>
          <path id="패스_171" data-name="패스 171" d="M6.22,35.326a.766.766,0,0,1-.761-.772V16.713a.761.761,0,1,1,1.521,0V34.555a.766.766,0,0,1-.761.772"/>
          <path id="패스_172" data-name="패스 172" d="M9.222,35.294a.766.766,0,0,1-.761-.772V16.68a.761.761,0,1,1,1.521,0V34.522a.766.766,0,0,1-.761.772"/>
          <path id="패스_173" data-name="패스 173" d="M20.254,35.261a.766.766,0,0,1-.761-.772V16.745a.761.761,0,1,1,1.521,0V34.49a.766.766,0,0,1-.761.772"/>
          <path id="패스_174" data-name="패스 174" d="M23.248,35.229a.766.766,0,0,1-.761-.772V16.713a.761.761,0,1,1,1.521,0V34.457a.766.766,0,0,1-.761.772"/>
          <path id="패스_175" data-name="패스 175" d="M34.279,35.245a.766.766,0,0,1-.761-.772V16.737a.761.761,0,1,1,1.521,0V34.473a.766.766,0,0,1-.761.772"/>
          <path id="패스_176" data-name="패스 176" d="M37.281,35.213a.766.766,0,0,1-.761-.772V16.7a.761.761,0,1,1,1.521,0V34.441a.766.766,0,0,1-.761.772"/>
          <path id="패스_177" data-name="패스 177" d="M21.751,10.757a5.351,5.351,0,0,1-5.3-5.379,5.3,5.3,0,1,1,10.6,0,5.351,5.351,0,0,1-5.3,5.379m0-9.222a3.839,3.839,0,1,0,3.787,3.843,3.817,3.817,0,0,0-3.787-3.843"/>
          <path id="패스_178" data-name="패스 178" d="M15.763,10.115H10.591A3.656,3.656,0,0,1,6.965,6.435a.757.757,0,1,1,1.513,0A2.133,2.133,0,0,0,10.591,8.58h5.172a.768.768,0,0,1,0,1.536"/>
          <path id="패스_179" data-name="패스 179" d="M32.91,10.115H27.739a.768.768,0,0,1,0-1.536H32.91a2.138,2.138,0,0,0,2.113-2.145.757.757,0,1,1,1.513,0,3.656,3.656,0,0,1-3.626,3.681"/>
          <path id="패스_180" data-name="패스 180" d="M12.264,35.326H3.186a.768.768,0,0,1,0-1.536h9.078a.768.768,0,0,1,0,1.536"/>
          <path id="패스_181" data-name="패스 181" d="M26.29,35.294H17.2a.768.768,0,0,1,0-1.536H26.29a.768.768,0,0,1,0,1.536"/>
          <path id="패스_182" data-name="패스 182" d="M40.323,35.261H31.237a.768.768,0,0,1,0-1.536h9.086a.768.768,0,0,1,0,1.536"/>
        </g>
      </g>
    </g>
    <path id="Color_Overlay" data-name="Color Overlay" d="M1354.752,460a.757.757,0,0,1-.752-.763V456.8a2.315,2.315,0,0,1,2.3-2.331h.128V433.612a2.347,2.347,0,0,1-1.081-1.986v-1.543h-.584a.761.761,0,0,1-.76-.772v-4.777a.763.763,0,0,1,.592-.755l16.17-3.721a5.311,5.311,0,0,1,4.82-3.557h.337a5.313,5.313,0,0,1,4.819,3.556l16.17,3.721a.772.772,0,0,1,.592.755v4.777a.766.766,0,0,1-.76.772h-.576v1.543a2.348,2.348,0,0,1-1.089,1.988v17.263a.749.749,0,0,1,.008.111.765.765,0,0,1-.008.113v3.365h.12a2.319,2.319,0,0,1,2.3,2.331v2.438a.757.757,0,0,1-.752.763Zm.76-3.2v1.666h40.468V456.8a.791.791,0,0,0-.785-.8h-38.9A.792.792,0,0,0,1355.513,456.8Zm26.618-25.17a2.348,2.348,0,0,1-1.081,1.983v20.857h3.426V433.607a2.347,2.347,0,0,1-1.073-1.981v-1.543h-1.273Zm-14.026,0a2.348,2.348,0,0,1-1.089,1.988v17.328a.75.75,0,0,1,.008.111.786.786,0,0,1-.008.113v3.3h3.434V433.612a2.347,2.347,0,0,1-1.081-1.986v-1.543h-1.265ZM1386,454.457h7.565v-2.7H1386Zm-14.034,0h7.565v-2.665h-7.565Zm-14.026,0h7.565v-2.633h-7.565Zm6.044-4.169h1.521V433.966h-1.521Zm-3,0h1.481V433.966h-1.481Zm-3.042,0h1.521V433.966h-1.521Zm20.07-.032h1.521v-16.29h-1.521Zm-2.994,0h1.473v-16.29h-1.473Zm-3.05,0h1.529v-16.29h-1.529Zm20.078-.032h1.521V433.966h-1.521Zm-3,0h1.481V433.966h-1.481Zm-3.042,0h1.521V433.966H1386Zm-1.081-18.6a.8.8,0,0,0,.509.745l.036.011.066.021a.793.793,0,0,0,.175.02h8.158a.8.8,0,0,0,.155-.015c.025-.007.05-.015.077-.025s.038-.011.057-.015a.8.8,0,0,0,.5-.741v-1.543h-9.727Zm-14.034,0a.8.8,0,0,0,.5.741c.019,0,.038.009.057.015s.063.02.091.027a.73.73,0,0,0,.141.014h8.158a.807.807,0,0,0,.176-.02l.065-.021.033-.01a.8.8,0,0,0,.511-.746v-1.543h-9.727Zm-7.55.8h2.467a.8.8,0,0,0,.155-.015c.025-.007.05-.015.077-.025s.038-.011.057-.015a.8.8,0,0,0,.5-.741v-1.543h-9.727v1.543a.8.8,0,0,0,.5.741l.056.015c.027.01.052.018.077.025a.79.79,0,0,0,.155.015h5.469a.759.759,0,0,1,.221,0Zm-7.82-7.28v3.4h40.468v-3.4l-5.56-1.279a3.641,3.641,0,0,1-3.51,2.75h-5.171a.768.768,0,0,1,0-1.535h5.171a2.13,2.13,0,0,0,2.031-1.554l-7.894-1.815c0,.056,0,.112,0,.168a5.3,5.3,0,1,1-10.6,0q0-.088,0-.176l-7.9,1.819a2.123,2.123,0,0,0,2.033,1.558h5.171a.768.768,0,0,1,0,1.535h-5.171a3.639,3.639,0,0,1-3.51-2.753Zm16.594-4.314a.808.808,0,0,1-.036.138,3.887,3.887,0,0,0-.107.91,3.833,3.833,0,1,0,.143-1.048Z" fill="#6b6b6b"/>
  </g>
</svg>
