<svg xmlns="http://www.w3.org/2000/svg" xmlns:xlink="http://www.w3.org/1999/xlink" width="43.797" height="37.723" viewBox="0 0 43.797 37.723">
  <defs>
    <clipPath id="clip-path">
      <rect id="사각형_3" data-name="사각형 3" width="43.797" height="37.723" fill="none"/>
    </clipPath>
  </defs>
  <g id="Vector_Smart_Object" data-name="Vector Smart Object" transform="translate(-1252.19 -297.088)">
    <g id="Vector_Smart_Object-2" data-name="Vector Smart Object" transform="translate(1252.19 297.088)">
      <g id="그룹_6" data-name="그룹 6">
        <g id="그룹_5" data-name="그룹 5" clip-path="url(#clip-path)">
          <path id="패스_17" data-name="패스 17" d="M23.5,13.741a.645.645,0,0,1-.395-.136L12.07,4.985,1.035,13.6A.641.641,0,0,1,0,13.1V9.568a.635.635,0,0,1,.246-.5L11.675.136a.641.641,0,0,1,.789,0l11.43,8.929a.635.635,0,0,1,.246.5V13.1a.64.64,0,0,1-.64.64M12.07,3.533a.644.644,0,0,1,.395.136l10.394,8.12V9.88L12.07,1.452,1.281,9.88v1.909l10.394-8.12a.644.644,0,0,1,.395-.136"/>
          <path id="패스_18" data-name="패스 18" d="M23.5,13.528a.428.428,0,0,1-.263-.091L12.07,4.714.9,13.437a.427.427,0,0,1-.69-.336V9.568a.427.427,0,0,1,.164-.336L11.807.3a.428.428,0,0,1,.526,0l11.43,8.929a.427.427,0,0,1,.164.336V13.1a.427.427,0,0,1-.427.426M12.07,3.746a.427.427,0,0,1,.263.091l10.739,8.39V9.776l-11-8.6-11,8.6v2.45l10.739-8.39a.427.427,0,0,1,.263-.091"/>
          <path id="패스_19" data-name="패스 19" d="M2.2,37.723a.641.641,0,0,1-.641-.64V11.907a.641.641,0,0,1,1.281,0V36.444H21.3V11.907a.641.641,0,0,1,1.281,0V37.083a.641.641,0,0,1-.641.64Z"/>
          <path id="패스_20" data-name="패스 20" d="M21.943,37.51H2.2a.427.427,0,0,1-.427-.426V11.907a.427.427,0,0,1,.854,0v24.75H21.516V11.907a.427.427,0,0,1,.854,0V37.083a.427.427,0,0,1-.427.426"/>
          <path id="패스_21" data-name="패스 21" d="M21.943,23.049a.64.64,0,1,1,0-1.279H42.12l-2.886-5.775H21.943a.64.64,0,1,1,0-1.279H39.63a.637.637,0,0,1,.573.354l3.526,7.055a.64.64,0,0,1-.573.925Z"/>
          <path id="패스_22" data-name="패스 22" d="M43.156,22.836H21.943a.426.426,0,1,1,0-.853H42.465l-3.1-6.2H21.943a.426.426,0,1,1,0-.853H39.63a.427.427,0,0,1,.382.236l3.526,7.055a.426.426,0,0,1-.382.617"/>
          <path id="패스_23" data-name="패스 23" d="M20.525,37.723a.64.64,0,1,1,0-1.279H39.751V22.409a.641.641,0,0,1,1.281,0V37.083a.641.641,0,0,1-.641.64Z"/>
          <path id="패스_24" data-name="패스 24" d="M40.392,37.51H20.525a.426.426,0,1,1,0-.853H39.965V22.409a.427.427,0,0,1,.854,0V37.083a.427.427,0,0,1-.427.426"/>
          <path id="패스_25" data-name="패스 25" d="M5.642,22.281A.641.641,0,0,1,5,21.642V14.2a.641.641,0,0,1,.641-.64H17.9a.641.641,0,0,1,.641.64v7.438a.641.641,0,0,1-.641.64Zm11.622-7.438H6.282V21H17.264Z"/>
          <path id="패스_26" data-name="패스 26" d="M17.9,22.068H5.642a.427.427,0,0,1-.427-.426V14.2a.427.427,0,0,1,.427-.426H17.9a.427.427,0,0,1,.427.426v7.438a.427.427,0,0,1-.427.426M6.069,21.215H17.477V14.631H6.069Z"/>
          <path id="패스_27" data-name="패스 27" d="M17.9,37.638a.641.641,0,0,1-.641-.64V25.889H6.282V37A.641.641,0,0,1,5,37V25.249a.641.641,0,0,1,.641-.64H17.9a.641.641,0,0,1,.641.64V37a.641.641,0,0,1-.641.64"/>
          <path id="패스_28" data-name="패스 28" d="M17.9,37.424A.427.427,0,0,1,17.477,37V25.675H6.069V37a.427.427,0,0,1-.854,0V25.249a.427.427,0,0,1,.427-.426H17.9a.427.427,0,0,1,.427.426V37a.427.427,0,0,1-.427.426"/>
          <path id="패스_29" data-name="패스 29" d="M6.03,18.563a.64.64,0,1,1,0-1.279H17.9a.64.64,0,1,1,0,1.279Z"/>
          <path id="패스_30" data-name="패스 30" d="M17.9,18.349H6.03a.426.426,0,1,1,0-.853H17.9a.426.426,0,1,1,0,.853"/>
          <path id="패스_31" data-name="패스 31" d="M9.058,22.281a.641.641,0,0,1-.641-.64V14.2a.641.641,0,0,1,1.281,0v7.438a.641.641,0,0,1-.641.64"/>
          <path id="패스_32" data-name="패스 32" d="M9.058,22.068a.427.427,0,0,1-.427-.426V14.2a.427.427,0,0,1,.854,0v7.438a.427.427,0,0,1-.427.426"/>
          <path id="패스_33" data-name="패스 33" d="M14.488,22.281a.641.641,0,0,1-.641-.64V14.2a.641.641,0,0,1,1.281,0v7.438a.641.641,0,0,1-.641.64"/>
          <path id="패스_34" data-name="패스 34" d="M14.488,22.068a.427.427,0,0,1-.427-.426V14.2a.427.427,0,0,1,.854,0v7.438a.427.427,0,0,1-.427.426"/>
          <path id="패스_35" data-name="패스 35" d="M11.967,37.638a.641.641,0,0,1-.641-.64V25.249a.641.641,0,0,1,1.281,0V37a.641.641,0,0,1-.641.64"/>
          <path id="패스_36" data-name="패스 36" d="M11.967,37.424A.427.427,0,0,1,11.54,37V25.249a.427.427,0,0,1,.854,0V37a.427.427,0,0,1-.427.426"/>
          <path id="패스_37" data-name="패스 37" d="M37.413,37.723a.641.641,0,0,1-.641-.64V27.89H32.427v9.194a.641.641,0,0,1-1.281,0V27.25a.641.641,0,0,1,.641-.64h5.626a.641.641,0,0,1,.641.64v9.833a.641.641,0,0,1-.641.64"/>
          <path id="패스_38" data-name="패스 38" d="M37.413,37.51a.427.427,0,0,1-.427-.426V27.677H32.214v9.407a.427.427,0,0,1-.854,0V27.25a.427.427,0,0,1,.427-.426h5.626a.427.427,0,0,1,.427.426v9.833a.427.427,0,0,1-.427.426"/>
          <path id="패스_39" data-name="패스 39" d="M35.848,33.384a.641.641,0,0,1-.641-.64v-.578a.641.641,0,0,1,1.281,0v.578a.641.641,0,0,1-.641.64"/>
          <path id="패스_40" data-name="패스 40" d="M35.848,33.171a.427.427,0,0,1-.427-.426v-.578a.427.427,0,0,1,.854,0v.578a.427.427,0,0,1-.427.426"/>
          <path id="패스_41" data-name="패스 41" d="M24.352,31.331a.641.641,0,0,1-.641-.64V25.63a.641.641,0,0,1,.641-.64h4.8a.641.641,0,0,1,.641.64v5.062a.641.641,0,0,1-.641.64ZM28.51,26.27H24.992v3.782H28.51Z"/>
          <path id="패스_42" data-name="패스 42" d="M29.15,31.118h-4.8a.427.427,0,0,1-.427-.426V25.63a.427.427,0,0,1,.427-.426h4.8a.427.427,0,0,1,.427.426v5.062a.427.427,0,0,1-.427.426m-4.371-.853h3.944V26.056H24.779Z"/>
          <path id="패스_43" data-name="패스 43" d="M26.751,31.331a.641.641,0,0,1-.641-.64V25.63a.641.641,0,0,1,1.281,0v5.062a.641.641,0,0,1-.641.64"/>
          <path id="패스_44" data-name="패스 44" d="M26.751,31.118a.427.427,0,0,1-.427-.426V25.63a.427.427,0,0,1,.854,0v5.062a.427.427,0,0,1-.427.426"/>
          <path id="패스_45" data-name="패스 45" d="M24.352,28.8a.64.64,0,1,1,0-1.279h4.8a.64.64,0,1,1,0,1.279Z"/>
          <path id="패스_46" data-name="패스 46" d="M29.15,28.587h-4.8a.426.426,0,1,1,0-.853h4.8a.426.426,0,1,1,0,.853"/>
        </g>
      </g>
    </g>
    <path id="Color_Overlay" data-name="Color Overlay" d="M1289.6,334.811h-35.216a.64.64,0,0,1-.64-.639V310.286l-.522.408a.641.641,0,0,1-1.035-.5v-3.533a.635.635,0,0,1,.246-.5l11.43-8.929a.641.641,0,0,1,.789,0l11.429,8.929a.633.633,0,0,1,.247.5v3.533a.641.641,0,0,1-1.036.5l-.521-.407V311.8h17.046a.637.637,0,0,1,.573.354l3.526,7.055a.625.625,0,0,1,.068.264v.043a.642.642,0,0,1-.641.618h-2.124v14.035a.64.64,0,0,1-.64.639Zm0-11.112a.641.641,0,0,1,.641.64v9.194h1.7V320.137h-17.167v13.395h8.563v-9.194a.641.641,0,0,1,.641-.64Zm-4.986,9.833h4.345v-8.554h-4.345ZM1270.1,321.7a.64.64,0,0,1,.64.639v11.2h2.758V309.285l-9.232-7.213-9.232,7.213v24.247h2.164v-11.2a.64.64,0,0,1,.641-.639Zm-5.3,11.834h4.656V322.977H1264.8Zm-6.326,0h5.044V322.977h-5.044Zm16.3-14.674h19.536l-2.886-5.775h-16.65Zm-10.119-18.1,10.394,8.12v-1.908l-10.789-8.428-10.788,8.428v1.908l10.394-8.12a.641.641,0,0,1,.789,0Zm22.743,29.076v-.578a.64.64,0,0,1,1.281,0v.578a.64.64,0,0,1-1.281,0Zm-8.457-1.414h-2.4a.64.64,0,0,1-.64-.639v-5.062a.641.641,0,0,1,.64-.64h4.8a.641.641,0,0,1,.641.64v5.062a.64.64,0,0,1-.641.639Zm.641-1.279h1.118v-1.252h-1.118Zm-2.4,0h1.119v-1.252h-1.119Zm2.4-2.531h1.118v-1.252h-1.118Zm-2.4,0h1.119v-1.252h-1.119Zm-10.5-5.24h-8.845a.641.641,0,0,1-.641-.64v-7.437a.641.641,0,0,1,.641-.64H1270.1a.641.641,0,0,1,.64.64v7.437a.641.641,0,0,1-.64.64Zm.641-1.279h2.136v-2.44h-2.136Zm-5.43,0h4.149v-2.44h-4.149Zm-3.416,0h2.136v-2.44h-2.136Zm8.846-3.719h2.136v-2.44h-2.136Zm-5.43,0h4.149v-2.44h-4.149Zm-3.416,0h2.136v-2.44h-2.136Z" fill="#616161"/>
  </g>
</svg>
