<svg xmlns="http://www.w3.org/2000/svg" xmlns:xlink="http://www.w3.org/1999/xlink" width="49.147" height="37.16" viewBox="0 0 49.147 37.16">
  <defs>
    <clipPath id="clip-path">
      <rect id="사각형_11" data-name="사각형 11" width="49.147" height="37.16" transform="translate(0 0)" fill="none"/>
    </clipPath>
  </defs>
  <g id="Vector_Smart_Object" data-name="Vector Smart Object" transform="translate(-1249 -418.945)">
    <g id="Vector_Smart_Object-2" data-name="Vector Smart Object" transform="translate(1249 418.945)">
      <g id="그룹_22" data-name="그룹 22">
        <g id="그룹_21" data-name="그룹 21" clip-path="url(#clip-path)">
          <path id="패스_145" data-name="패스 145" d="M15.419,30.654A15.327,15.327,0,1,1,30.838,15.327,15.391,15.391,0,0,1,15.419,30.654m0-29.151A13.824,13.824,0,1,0,29.325,15.327,13.881,13.881,0,0,0,15.419,1.5" fill="#303030"/>
          <path id="패스_146" data-name="패스 146" d="M11.3,15.727a.9.9,0,0,1-.907-.9V10.966a.907.907,0,0,1,1.815,0v3.859a.9.9,0,0,1-.907.9" fill="#303030"/>
          <path id="패스_147" data-name="패스 147" d="M19.741,15.727a.9.9,0,0,1-.907-.9V10.966a.907.907,0,0,1,1.815,0v3.859a.9.9,0,0,1-.907.9" fill="#303030"/>
          <path id="패스_148" data-name="패스 148" d="M15.44,21.983c-6.912,0-8.132-3.134-8.249-3.492a.9.9,0,0,1,.584-1.135.909.909,0,0,1,1.135.558c.036.084,1.034,2.265,6.53,2.265,5.534,0,6.47-2.21,6.476-2.232a.912.912,0,0,1,1.135-.6.9.9,0,0,1,.6,1.129c-.111.358-1.289,3.5-8.21,3.5" fill="#303030"/>
          <path id="패스_149" data-name="패스 149" d="M10.968,5.991a15.3,15.3,0,0,1-2.178-.14.751.751,0,0,1-.15-1.446,4.174,4.174,0,0,0,2.68-3.331.756.756,0,0,1,1.507.126,5.759,5.759,0,0,1-1.575,3.28A14.33,14.33,0,0,0,16.1,3.607a33.282,33.282,0,0,0,4.827-2.234.758.758,0,0,1,1.05.2.749.749,0,0,1-.2,1.044A33.875,33.875,0,0,1,16.637,5.01a15.99,15.99,0,0,1-5.669.981" fill="#303030"/>
          <path id="패스_150" data-name="패스 150" d="M38.216,37.16A10.868,10.868,0,1,1,49.147,26.292,10.912,10.912,0,0,1,38.216,37.16m0-20.232a9.364,9.364,0,1,0,9.419,9.364,9.4,9.4,0,0,0-9.419-9.364" fill="#303030"/>
          <path id="패스_151" data-name="패스 151" d="M35.355,26.7a.754.754,0,0,1-.756-.752V23.266a.756.756,0,0,1,1.512,0v2.678a.754.754,0,0,1-.756.752" fill="#303030"/>
          <path id="패스_152" data-name="패스 152" d="M41.216,26.7a.754.754,0,0,1-.756-.752V23.266a.756.756,0,0,1,1.512,0v2.678a.754.754,0,0,1-.756.752" fill="#303030"/>
          <path id="패스_153" data-name="패스 153" d="M38.23,31.038c-4.885,0-5.761-2.253-5.845-2.51a.756.756,0,0,1,1.431-.485c.031.069.727,1.492,4.414,1.492,3.75,0,4.377-1.471,4.383-1.486a.772.772,0,0,1,.959-.448.739.739,0,0,1,.477.918c-.08.257-.925,2.519-5.819,2.519" fill="#303030"/>
        </g>
      </g>
    </g>
    <path id="Color_Overlay" data-name="Color Overlay" d="M1276.284,445.238a10.707,10.707,0,0,1,.076-1.278,15.341,15.341,0,1,1-5.758-23.729.769.769,0,0,1,.1.046,15.29,15.29,0,0,1,8.773,17.29,10.849,10.849,0,1,1-3.2,7.671Zm1.513,0a9.42,9.42,0,1,0,9.419-9.364A9.4,9.4,0,0,0,1277.8,445.238Zm-27.284-10.966a13.907,13.907,0,1,0,19.892-12.478,38.051,38.051,0,0,1-4.766,2.161,15.983,15.983,0,0,1-5.669.98,15.273,15.273,0,0,1-2.178-.139.751.751,0,0,1-.149-1.445,4.089,4.089,0,0,0,2.344-2.182A13.855,13.855,0,0,0,1250.512,434.273Zm11.218-13.565a5.8,5.8,0,0,1-1.478,2.718,14.323,14.323,0,0,0,4.844-.874c.031-.011,1.926-.727,3.463-1.478a14.04,14.04,0,0,0-6.829-.366Zm19.655,26.766a.756.756,0,0,1,1.432-.486c.031.069.727,1.492,4.414,1.492,3.75,0,4.378-1.471,4.383-1.486a.772.772,0,0,1,.959-.448.74.74,0,0,1,.477.918c-.08.257-.925,2.519-5.819,2.519S1281.469,447.73,1281.385,447.474Zm8.075-2.585v-2.677a.756.756,0,0,1,1.512,0v2.677a.756.756,0,0,1-1.512,0Zm-5.861,0v-2.677a.756.756,0,0,1,1.513,0v2.677a.756.756,0,0,1-1.513,0Zm-27.408-7.452a.907.907,0,0,1,1.719-.577c.037.084,1.035,2.264,6.53,2.264,5.534,0,6.469-2.21,6.476-2.232a.911.911,0,0,1,1.135-.595.9.9,0,0,1,.6,1.129c-.112.358-1.29,3.5-8.211,3.5S1256.308,437.8,1256.191,437.437Zm11.643-3.667v-3.858a.907.907,0,0,1,1.814,0v3.858a.907.907,0,0,1-1.814,0Zm-8.445,0v-3.858a.907.907,0,0,1,1.814,0v3.858a.907.907,0,0,1-1.814,0Z" fill="#616161"/>
  </g>
</svg>
