<svg xmlns="http://www.w3.org/2000/svg" xmlns:xlink="http://www.w3.org/1999/xlink" width="37.5" height="37.5" viewBox="0 0 37.5 37.5">
  <defs>
    <clipPath id="clip-path">
      <rect id="사각형_5" data-name="사각형 5" width="37.5" height="37.5" transform="translate(0 0)" fill="none"/>
    </clipPath>
  </defs>
  <g id="Vector_Smart_Object" data-name="Vector Smart Object" transform="translate(-1356.852 -296.964)">
    <g id="Vector_Smart_Object-2" data-name="Vector Smart Object" transform="translate(1356.852 296.964)">
      <g id="그룹_10" data-name="그룹 10">
        <g id="그룹_9" data-name="그룹 9" clip-path="url(#clip-path)">
          <path id="패스_77" data-name="패스 77" d="M18.749,37.5a.715.715,0,0,1-.317-.074L.392,28.4A.71.71,0,0,1,0,27.77V9.729a.71.71,0,0,1,1.026-.634l18.041,9.02a.71.71,0,0,1,.391.634V36.79a.708.708,0,0,1-.709.709M1.418,27.332,18.04,35.643V19.188L1.418,10.876Z"/>
          <path id="패스_78" data-name="패스 78" d="M18.749,37.5a.711.711,0,0,1-.709-.709V18.75a.71.71,0,0,1,.392-.635l18.041-9.02A.709.709,0,0,1,37.5,9.73V27.771a.707.707,0,0,1-.391.634l-18.042,9.02a.7.7,0,0,1-.317.075m.709-18.312V35.644l16.623-8.312V10.877Z"/>
          <path id="패스_79" data-name="패스 79" d="M18.749,19.459a.712.712,0,0,1-.317-.074L.391,10.364a.71.71,0,0,1,0-1.269L18.432.075a.707.707,0,0,1,.634,0l18.042,9.02a.71.71,0,0,1,0,1.269l-18.042,9.02a.71.71,0,0,1-.317.074M2.295,9.73l16.455,8.228L35.2,9.73,18.749,1.5Z"/>
        </g>
      </g>
    </g>
    <path id="Color_Overlay" data-name="Color Overlay" d="M1375.28,334.387l-18.036-9.018a.711.711,0,0,1-.392-.635V306.693a.726.726,0,0,1,.007-.1h0a.19.19,0,0,1,0-.023h0c0-.008,0-.016,0-.023h0l.005-.022v0l.005-.023h0a.181.181,0,0,1,.006-.022v0a.213.213,0,0,1,.007-.022h0l.008-.022s0,0,0,0l.009-.021a.19.19,0,0,1,.009-.019h0a.713.713,0,0,1,.322-.329l18.04-9.019a.7.7,0,0,1,.635,0l18.041,9.019a.711.711,0,0,1,.392.635c0,.012,0,.022,0,.033v18.007a.709.709,0,0,1-.391.634l-18.022,9.01a.7.7,0,0,1-.337.085A.707.707,0,0,1,1375.28,334.387Zm1.031-18.234v16.455l16.622-8.312V307.842ZM1358.27,324.3l16.622,8.312V316.153l-16.622-8.311Zm.877-17.6,16.454,8.227,16.454-8.227-16.454-8.227Z" fill="#616161"/>
  </g>
</svg>
