<svg xmlns="http://www.w3.org/2000/svg" xmlns:xlink="http://www.w3.org/1999/xlink" width="163" height="46" viewBox="0 0 163 46">
  <defs>
    <clipPath id="clip-path">
      <g id="그룹_165" data-name="그룹 165" transform="translate(335.681 22.488)">
        <g id="그룹_159" data-name="그룹 159">
          <path id="패스_392" data-name="패스 392" d="M69.124,30.026c0,6.591-2.474,9.546-6.2,9.546s-6.22-2.955-6.22-9.546,2.5-9.546,6.22-9.546S69.124,23.435,69.124,30.026Zm-8.556,0c0,4.5,1.041,5.911,2.359,5.911,1.3,0,2.336-1.408,2.336-5.911,0-4.48-1.04-5.911-2.336-5.911C61.609,24.115,60.568,25.546,60.568,30.026Zm14.661,10.25H71.321V20.245h3.908Z" fill="#302d2c"/>
          <path id="패스_393" data-name="패스 393" d="M96.064,20.245V40.276H92.156V31.5H89.543c-.347,5.559-2.659,8.068-6.058,8.068-3.677,0-6.128-2.955-6.128-9.546s2.451-9.546,6.128-9.546c3.237,0,5.5,2.275,6.011,7.318h2.66V20.245ZM85.728,30.026c0-4.48-.972-5.911-2.243-5.911-1.3,0-2.267,1.431-2.267,5.911,0,4.5.971,5.911,2.267,5.911C84.756,35.937,85.728,34.529,85.728,30.026Z" fill="#302d2c"/>
        </g>
        <g id="그룹_161" data-name="그룹 161">
          <g id="그룹_160" data-name="그룹 160">
            <path id="패스_394" data-name="패스 394" d="M114.617,38.077l-7.638,2.334H98.85V20.245h8.129l7.638,2.335Zm-7.638-14.429h-3.992V37.009h3.992l3.5-1.118V24.765Z" fill="#db5811"/>
            <path id="패스_395" data-name="패스 395" d="M127.177,29.881l-3.795-.745-3.329,1.838v9.164h-4.088V25.66h4.088v1.688l3.329-1.764,3.795.771Z" fill="#db5811"/>
            <path id="패스_396" data-name="패스 396" d="M131.756,34.625v2.037l3.3.72L141.6,36.09v3.278l-6.537,1.291-7.394-1.613V26.9l7.443-1.639,6.88,1.514v7.848Zm0-3.08H137.9V29.136l-2.791-.621-3.354.72Z" fill="#db5811"/>
            <path id="패스_397" data-name="패스 397" d="M143.361,26.628l6.146-1.366,7.516,1.614V39.045l-7.394,1.613L142.6,39.045V32.365l6.635-1.415,3.721.421v-2.16l-3.451-.7-6.146,1.342Zm3.3,7.873v2.185l2.963.7,3.329-.7v-2.26L149.237,34Z" fill="#db5811"/>
            <path id="패스_398" data-name="패스 398" d="M165.714,40.162v-11l-1.934-.546-1.64.5V40.162h-4.015V26.975l5.655-1.713,3.942,1.143,3.942-1.143,5.656,1.713V40.162H173.3V29.111l-1.64-.5-1.934.546v11Z" fill="#db5811"/>
          </g>
        </g>
        <g id="그룹_164" data-name="그룹 164">
          <g id="그룹_163" data-name="그룹 163">
            <g id="그룹_162" data-name="그룹 162">
              <path id="패스_399" data-name="패스 399" d="M17.871,31.334a8.245,8.245,0,0,1-3.552.869V28.912a4.746,4.746,0,0,0,2.833-1.17,5.274,5.274,0,0,0,1.6-2.514h-4.2V22.076h4.294V20.245h3.93v1.831h4.3v2.271h2.01V20.593h3.861V32.342H29.077V27.823H26.518v-2.6H22.7a9.347,9.347,0,0,1-.319,1.089l5.255,2.874L25.9,32.063l-5.209-2.92A9.148,9.148,0,0,1,17.871,31.334Zm12.84,2.2a3.161,3.161,0,0,1,0,6.141,18.359,18.359,0,0,1-6.5.939,18.351,18.351,0,0,1-6.5-.939,3.161,3.161,0,0,1,0-6.141,18.351,18.351,0,0,1,6.5-.939A18.359,18.359,0,0,1,30.711,33.535Zm-3,3.858q1.279-.232,1.279-.787,0-1.02-4.775-1.02t-4.775,1.02q0,.555,1.279.787a20.6,20.6,0,0,0,3.5.232A20.617,20.617,0,0,0,27.707,37.393Z" fill="#0a347f"/>
              <path id="패스_400" data-name="패스 400" d="M46.2,33.13a24.506,24.506,0,0,1-2.661.139H35.36V20.708h3.906V30.07H43.7a16.033,16.033,0,0,0,4.5-.463v3.151A10.753,10.753,0,0,1,46.2,33.13Zm7.847,3.8v3.453H36.319V34.334h3.93v2.6ZM49.98,28.958H44.086V25.9H49.98V24.856H44.086V21.8H49.98V20.593h3.792V35.308H49.98Z" fill="#0a347f"/>
            </g>
          </g>
        </g>
        <path id="패스_401" data-name="패스 401" d="M23.738,57.512v-7.2H15.3l4.213-3.848h8.017v3.364l4.437-3.364h18.09l3.794-3.148v7H33.229Z" fill="#0a347f"/>
        <path id="패스_402" data-name="패스 402" d="M17.917,11.512l-3.3,3.343v3.019h3.251V14.81H50.6v3.065l3.251-3.065v-3.3Z" fill="#0a347f"/>
      </g>
    </clipPath>
  </defs>
  <g id="Vector_Smart_Object" data-name="Vector Smart Object" transform="translate(-350 -34)">
    <g id="Vector_Smart_Object-2" data-name="Vector Smart Object" transform="translate(335.681 22.488)">
      <g id="그룹_158" data-name="그룹 158">
        <g id="그룹_152" data-name="그룹 152">
          <path id="패스_381" data-name="패스 381" d="M69.124,30.026c0,6.591-2.474,9.546-6.2,9.546s-6.22-2.955-6.22-9.546,2.5-9.546,6.22-9.546S69.124,23.435,69.124,30.026Zm-8.556,0c0,4.5,1.041,5.911,2.359,5.911,1.3,0,2.336-1.408,2.336-5.911,0-4.48-1.04-5.911-2.336-5.911C61.609,24.115,60.568,25.546,60.568,30.026Zm14.661,10.25H71.321V20.245h3.908Z" fill="#302d2c"/>
          <path id="패스_382" data-name="패스 382" d="M96.064,20.245V40.276H92.156V31.5H89.543c-.347,5.559-2.659,8.068-6.058,8.068-3.677,0-6.128-2.955-6.128-9.546s2.451-9.546,6.128-9.546c3.237,0,5.5,2.275,6.011,7.318h2.66V20.245ZM85.728,30.026c0-4.48-.972-5.911-2.243-5.911-1.3,0-2.267,1.431-2.267,5.911,0,4.5.971,5.911,2.267,5.911C84.756,35.937,85.728,34.529,85.728,30.026Z" fill="#302d2c"/>
        </g>
        <g id="그룹_154" data-name="그룹 154">
          <g id="그룹_153" data-name="그룹 153">
            <path id="패스_383" data-name="패스 383" d="M114.617,38.077l-7.638,2.334H98.85V20.245h8.129l7.638,2.335Zm-7.638-14.429h-3.992V37.009h3.992l3.5-1.118V24.765Z" fill="#db5811"/>
            <path id="패스_384" data-name="패스 384" d="M127.177,29.881l-3.795-.745-3.329,1.838v9.164h-4.088V25.66h4.088v1.688l3.329-1.764,3.795.771Z" fill="#db5811"/>
            <path id="패스_385" data-name="패스 385" d="M131.756,34.625v2.037l3.3.72L141.6,36.09v3.278l-6.537,1.291-7.394-1.613V26.9l7.443-1.639,6.88,1.514v7.848Zm0-3.08H137.9V29.136l-2.791-.621-3.354.72Z" fill="#db5811"/>
            <path id="패스_386" data-name="패스 386" d="M143.361,26.628l6.146-1.366,7.516,1.614V39.045l-7.394,1.613L142.6,39.045V32.365l6.635-1.415,3.721.421v-2.16l-3.451-.7-6.146,1.342Zm3.3,7.873v2.185l2.963.7,3.329-.7v-2.26L149.237,34Z" fill="#db5811"/>
            <path id="패스_387" data-name="패스 387" d="M165.714,40.162v-11l-1.934-.546-1.64.5V40.162h-4.015V26.975l5.655-1.713,3.942,1.143,3.942-1.143,5.656,1.713V40.162H173.3V29.111l-1.64-.5-1.934.546v11Z" fill="#db5811"/>
          </g>
        </g>
        <g id="그룹_157" data-name="그룹 157">
          <g id="그룹_156" data-name="그룹 156">
            <g id="그룹_155" data-name="그룹 155">
              <path id="패스_388" data-name="패스 388" d="M17.871,31.334a8.245,8.245,0,0,1-3.552.869V28.912a4.746,4.746,0,0,0,2.833-1.17,5.274,5.274,0,0,0,1.6-2.514h-4.2V22.076h4.294V20.245h3.93v1.831h4.3v2.271h2.01V20.593h3.861V32.342H29.077V27.823H26.518v-2.6H22.7a9.347,9.347,0,0,1-.319,1.089l5.255,2.874L25.9,32.063l-5.209-2.92A9.148,9.148,0,0,1,17.871,31.334Zm12.84,2.2a3.161,3.161,0,0,1,0,6.141,18.359,18.359,0,0,1-6.5.939,18.351,18.351,0,0,1-6.5-.939,3.161,3.161,0,0,1,0-6.141,18.351,18.351,0,0,1,6.5-.939A18.359,18.359,0,0,1,30.711,33.535Zm-3,3.858q1.279-.232,1.279-.787,0-1.02-4.775-1.02t-4.775,1.02q0,.555,1.279.787a20.6,20.6,0,0,0,3.5.232A20.617,20.617,0,0,0,27.707,37.393Z" fill="#0a347f"/>
              <path id="패스_389" data-name="패스 389" d="M46.2,33.13a24.506,24.506,0,0,1-2.661.139H35.36V20.708h3.906V30.07H43.7a16.033,16.033,0,0,0,4.5-.463v3.151A10.753,10.753,0,0,1,46.2,33.13Zm7.847,3.8v3.453H36.319V34.334h3.93v2.6ZM49.98,28.958H44.086V25.9H49.98V24.856H44.086V21.8H49.98V20.593h3.792V35.308H49.98Z" fill="#0a347f"/>
            </g>
          </g>
        </g>
        <path id="패스_390" data-name="패스 390" d="M23.738,57.512v-7.2H15.3l4.213-3.848h8.017v3.364l4.437-3.364h18.09l3.794-3.148v7H33.229Z" fill="#0a347f"/>
        <path id="패스_391" data-name="패스 391" d="M17.917,11.512l-3.3,3.343v3.019h3.251V14.81H50.6v3.065l3.251-3.065v-3.3Z" fill="#0a347f"/>
      </g>
    </g>
  </g>
</svg>
