<svg id="Vector_Smart_Object" data-name="Vector Smart Object" xmlns="http://www.w3.org/2000/svg" xmlns:xlink="http://www.w3.org/1999/xlink" width="229.319" height="189.781" viewBox="0 0 229.319 189.781">
  <defs>
    <clipPath id="clip-path">
      <rect id="사각형_44" data-name="사각형 44" width="229.319" height="189.781" fill="none"/>
    </clipPath>
    <clipPath id="clip-path-2">
      <path id="패스_320" data-name="패스 320" d="M198.49,38.339,143.459,51.114a2.249,2.249,0,0,0-1.682,2.7L145.089,68.1a2.249,2.249,0,0,0,2.7,1.683l55.031-12.775a7.129,7.129,0,0,0,5.33-8.555l-1.108-4.779a7.116,7.116,0,0,0-8.55-5.333" fill="none"/>
    </clipPath>
    <clipPath id="clip-path-4">
      <path id="패스_336" data-name="패스 336" d="M140.355,49.529l-.017,0-.079.011-.008.011a11.751,11.751,0,0,0-7.275,5.174l0-.011a117.011,117.011,0,0,0-15.538,39.654l37.9-3.944L159.6,73.038l-5.287-7.016a11.718,11.718,0,0,0-6.781-14.869l.269-1.021-4.493-.668a9.266,9.266,0,0,0-1.356-.1,7.393,7.393,0,0,0-1.6.168" fill="none"/>
    </clipPath>
  </defs>
  <path id="패스_302" data-name="패스 302" d="M100.837,161.084l-9.185-4.673L104.765,142.6l9.185,4.672Z" fill="#fff"/>
  <path id="패스_303" data-name="패스 303" d="M213.025,50.112l-9.386,2.116L202.01,41.41l9.365-2.257Z" fill="#ffead3"/>
  <g id="그룹_94" data-name="그룹 94">
    <g id="그룹_93" data-name="그룹 93" clip-path="url(#clip-path)">
      <path id="패스_304" data-name="패스 304" d="M224.49,45.612,221.3,39.221s-8.79,1.674-8.868,1.638c-.03-.014.122,1.033.321,2.339a4.071,4.071,0,0,0-.59.044,4.013,4.013,0,0,0,1.195,7.937c.251-.038,7.676-1.594,7.676-1.594a7.264,7.264,0,0,0,4.342-2.733Z" fill="#ffead3"/>
      <path id="패스_305" data-name="패스 305" d="M220.465,48.837a1.628,1.628,0,0,1-.408-3.229,10.712,10.712,0,0,0,3.35-1.171,1.628,1.628,0,0,1,1.721,2.763,13.95,13.95,0,0,1-4.564,1.624c-.033.005-.066.009-.1.013" fill="#ffead3"/>
      <path id="패스_306" data-name="패스 306" d="M219.306,41.049l4.824-3.086.65-.772a3.648,3.648,0,0,0-2.759-.476c-1.3.179-4.275.569-4.275.569Z" fill="#ffead3"/>
      <path id="패스_307" data-name="패스 307" d="M220.31,49.107a1.891,1.891,0,0,1-.294-3.759,10.4,10.4,0,0,0,3.252-1.134,1.891,1.891,0,0,1,2,3.209c-.239.149-.5.294-.776.431-.067.029-1.357.586-1.853.734a19.7,19.7,0,0,1-2.035.5c-.036.006-.076.011-.114.015-.061.005-.12.008-.18.008m3.956-4.653a1.355,1.355,0,0,0-.72.206,10.961,10.961,0,0,1-3.449,1.208,1.365,1.365,0,0,0,.343,2.708l.082-.01a19.7,19.7,0,0,0,1.967-.481c.466-.138,1.769-.7,1.782-.707.248-.124.495-.26.719-.4a1.365,1.365,0,0,0-.724-2.524m-1.7,3.882h0Z" fill="#383535"/>
      <path id="패스_308" data-name="패스 308" d="M219.475,45.9A1.587,1.587,0,0,1,219,42.757a10.338,10.338,0,0,0,4.837-2.088,1.587,1.587,0,0,1,2.215,2.273,10.772,10.772,0,0,1-4.222,2.369,15.971,15.971,0,0,1-2.356.585" fill="#ffead3"/>
      <path id="패스_309" data-name="패스 309" d="M219.235,46.177a1.85,1.85,0,0,1-1.824-1.575,1.851,1.851,0,0,1,1.55-2.1,10.056,10.056,0,0,0,4.693-2.016,1.85,1.85,0,0,1,2.582,2.648,11.031,11.031,0,0,1-4.324,2.431,16.1,16.1,0,0,1-2.4.595,1.837,1.837,0,0,1-.278.021m5.71-5.7a1.319,1.319,0,0,0-.925.376,10.627,10.627,0,0,1-4.98,2.16,1.325,1.325,0,0,0-.588,2.375,1.31,1.31,0,0,0,.983.244h0a15.851,15.851,0,0,0,2.312-.574,10.523,10.523,0,0,0,4.12-2.308,1.324,1.324,0,0,0-.908-2.272h-.017" fill="#383535"/>
      <path id="패스_310" data-name="패스 310" d="M225.077,37.411a1.664,1.664,0,0,0-2.353.091,9.636,9.636,0,0,1-4.4,2.163,1.666,1.666,0,0,0,.665,3.265,15.424,15.424,0,0,0,2.228-.675,10.374,10.374,0,0,0,3.945-2.49,1.667,1.667,0,0,0-.091-2.354" fill="#ffead3"/>
      <path id="패스_311" data-name="패스 311" d="M218.66,43.226a1.933,1.933,0,0,1-1.886-1.545,1.932,1.932,0,0,1,1.5-2.274,9.344,9.344,0,0,0,4.255-2.085.263.263,0,0,1,.386.357,9.93,9.93,0,0,1-4.534,2.243,1.4,1.4,0,0,0,.559,2.75,15.152,15.152,0,0,0,2.187-.663,10.111,10.111,0,0,0,3.846-2.423A1.4,1.4,0,0,0,224.9,37.6a.263.263,0,0,1,.357-.386,1.93,1.93,0,0,1,.105,2.726,10.63,10.63,0,0,1-4.044,2.556,15.637,15.637,0,0,1-2.272.688,1.912,1.912,0,0,1-.386.039" fill="#383535"/>
      <path id="패스_312" data-name="패스 312" d="M225.61,38.831a.262.262,0,0,1-.263-.252,1.4,1.4,0,0,0-.7-1.161.276.276,0,0,1-.036-.025,3.489,3.489,0,0,0-2.555-.417c-1.305.179-4.275.57-4.275.57l-.069-.521s2.968-.391,4.273-.569a3.884,3.884,0,0,1,2.964.534,1.615,1.615,0,0,1,.306.228,1.919,1.919,0,0,1,.617,1.341.262.262,0,0,1-.252.273h-.011" fill="#383535"/>
      <path id="패스_313" data-name="패스 313" d="M228.293,32.46,217.04,38.134c-.881.4-2.07-.456-2.472-1.338a1.757,1.757,0,0,1,.868-2.326l11.4-5.2a1.755,1.755,0,0,1,1.456,3.194" fill="#ffead3"/>
      <path id="패스_314" data-name="패스 314" d="M216.585,33.946l-5.678,2.15a5.64,5.64,0,0,0-3.586,5.65q.016.208.046.413a4.537,4.537,0,1,0,8.937-1.346,5.345,5.345,0,0,0-.629-1.835l.414-.748Z" fill="#ffead3"/>
      <path id="패스_315" data-name="패스 315" d="M217.373,38.2a.263.263,0,0,1-.118-.5l10.92-5.477a.262.262,0,1,1,.235.469l-10.92,5.478a.259.259,0,0,1-.118.028" fill="#383535"/>
      <path id="패스_316" data-name="패스 316" d="M212.57,46.638a.263.263,0,0,1-.038-.523,4.491,4.491,0,0,0,3.512-5.264,5.058,5.058,0,0,0-.6-1.744.262.262,0,0,1,.456-.259,5.571,5.571,0,0,1,.66,1.925,5.015,5.015,0,0,1-3.953,5.862l-.04,0" fill="#383535"/>
      <path id="패스_317" data-name="패스 317" d="M220.143,42.812l-.47.2a2.26,2.26,0,0,1-2.957-1.217L214.7,36.969a1.734,1.734,0,0,1,.931-2.268l.47-.2a1.732,1.732,0,0,1,2.266.932l2.419,5.8a1.205,1.205,0,0,1-.648,1.576" fill="#ffead3"/>
      <path id="패스_318" data-name="패스 318" d="M218.985,43.344a2.861,2.861,0,0,1-2.639-1.756l-1.2-2.878a.262.262,0,1,1,.484-.2l1.2,2.877a2.334,2.334,0,0,0,3.049,1.253,1.12,1.12,0,0,0,.6-1.465l-1.543-3.7a3.5,3.5,0,0,0-4.3-2.3.263.263,0,0,1-.134-.508,3.97,3.97,0,0,1,4.917,2.61l1.543,3.7a1.645,1.645,0,0,1-.884,2.152,2.831,2.831,0,0,1-1.1.221" fill="#383535"/>
      <path id="패스_319" data-name="패스 319" d="M202.818,57.007,147.787,69.782a2.248,2.248,0,0,1-2.7-1.683l-3.312-14.285a2.25,2.25,0,0,1,1.682-2.7L198.49,38.339a7.124,7.124,0,0,1,8.55,5.333l1.108,4.779a7.129,7.129,0,0,1-5.33,8.555" fill="#fff"/>
    </g>
  </g>
  <g id="그룹_96" data-name="그룹 96">
    <g id="그룹_95" data-name="그룹 95" clip-path="url(#clip-path-2)">
      <rect id="사각형_45" data-name="사각형 45" width="0.525" height="133.659" transform="translate(98.561)" fill="#61ba92"/>
      <rect id="사각형_46" data-name="사각형 46" width="0.525" height="133.659" transform="translate(108.447)" fill="#61ba92"/>
      <rect id="사각형_47" data-name="사각형 47" width="0.525" height="133.659" transform="translate(118.334)" fill="#61ba92"/>
      <rect id="사각형_48" data-name="사각형 48" width="0.525" height="133.659" transform="translate(128.22)" fill="#61ba92"/>
      <rect id="사각형_49" data-name="사각형 49" width="0.525" height="133.659" transform="translate(138.107)" fill="#61ba92"/>
      <rect id="사각형_50" data-name="사각형 50" width="0.525" height="133.659" transform="translate(147.993)" fill="#61ba92"/>
      <rect id="사각형_51" data-name="사각형 51" width="0.525" height="133.659" transform="translate(157.88)" fill="#61ba92"/>
      <rect id="사각형_52" data-name="사각형 52" width="0.525" height="133.659" transform="translate(167.767)" fill="#61ba92"/>
      <rect id="사각형_53" data-name="사각형 53" width="0.525" height="133.659" transform="translate(177.653)" fill="#61ba92"/>
      <rect id="사각형_54" data-name="사각형 54" width="0.525" height="133.659" transform="translate(187.539)" fill="#61ba92"/>
      <rect id="사각형_55" data-name="사각형 55" width="0.525" height="133.659" transform="translate(197.426)" fill="#61ba92"/>
      <rect id="사각형_56" data-name="사각형 56" width="0.525" height="133.659" transform="translate(207.312)" fill="#61ba92"/>
      <rect id="사각형_57" data-name="사각형 57" width="0.525" height="133.659" transform="translate(217.199)" fill="#61ba92"/>
      <rect id="사각형_58" data-name="사각형 58" width="133.572" height="0.526" transform="translate(91.356 125.925)" fill="#61ba92"/>
      <rect id="사각형_59" data-name="사각형 59" width="133.572" height="0.526" transform="translate(91.356 116.032)" fill="#61ba92"/>
      <rect id="사각형_60" data-name="사각형 60" width="133.572" height="0.526" transform="translate(91.356 106.139)" fill="#61ba92"/>
      <rect id="사각형_61" data-name="사각형 61" width="133.572" height="0.526" transform="translate(91.356 96.246)" fill="#61ba92"/>
      <rect id="사각형_62" data-name="사각형 62" width="133.572" height="0.526" transform="translate(91.356 86.353)" fill="#61ba92"/>
      <rect id="사각형_63" data-name="사각형 63" width="133.572" height="0.526" transform="translate(91.356 76.46)" fill="#61ba92"/>
      <rect id="사각형_64" data-name="사각형 64" width="133.572" height="0.526" transform="translate(91.356 66.567)" fill="#61ba92"/>
      <rect id="사각형_65" data-name="사각형 65" width="133.572" height="0.526" transform="translate(91.356 56.674)" fill="#61ba92"/>
      <rect id="사각형_66" data-name="사각형 66" width="133.572" height="0.526" transform="translate(91.356 46.781)" fill="#61ba92"/>
      <rect id="사각형_67" data-name="사각형 67" width="133.572" height="0.526" transform="translate(91.356 36.888)" fill="#61ba92"/>
      <rect id="사각형_68" data-name="사각형 68" width="133.572" height="0.526" transform="translate(91.356 26.995)" fill="#61ba92"/>
      <rect id="사각형_69" data-name="사각형 69" width="133.572" height="0.526" transform="translate(91.356 17.102)" fill="#61ba92"/>
    </g>
  </g>
  <g id="그룹_98" data-name="그룹 98">
    <g id="그룹_97" data-name="그룹 97" clip-path="url(#clip-path)">
      <path id="패스_321" data-name="패스 321" d="M202.818,57.007,147.787,69.782a2.248,2.248,0,0,1-2.7-1.683l-3.312-14.285a2.25,2.25,0,0,1,1.682-2.7L198.49,38.339a7.124,7.124,0,0,1,8.55,5.333l1.108,4.779A7.129,7.129,0,0,1,202.818,57.007Z" fill="none" stroke="#383535" stroke-miterlimit="10" stroke-width="0.528"/>
      <path id="패스_322" data-name="패스 322" d="M156.284,50.415l-2.049.546-1.43,2.406-.775,3.341,4.8-1.644Z" fill="#383535"/>
      <path id="패스_323" data-name="패스 323" d="M167.961,33.773l-3.24-2.912c-3.026-7.4-8.086-7.79-11.806-6.812a9.209,9.209,0,0,0-5.931,4.263,8.837,8.837,0,0,0-.375,7.085c1.749,5.413,7.064,9.516,12.128,9.516.277,0,.555-.013.83-.037a7.341,7.341,0,0,0,5.153-2.632,8.434,8.434,0,0,0,1.717-6.148l1.113-.367a1.155,1.155,0,0,0,.41-1.955" fill="#ffead3"/>
      <path id="패스_324" data-name="패스 324" d="M152.891,53.1,140.6,52.67l10.14-16.114,12.286.428Z" fill="#ffead3"/>
      <path id="패스_325" data-name="패스 325" d="M157.2,44.788a.277.277,0,0,1-.042,0A14.017,14.017,0,0,1,146.61,35.4a.262.262,0,1,1,.5-.162,13.473,13.473,0,0,0,10.131,9.031.263.263,0,0,1-.041.523" fill="#383535"/>
      <path id="패스_326" data-name="패스 326" d="M151.532,34.915l3.02,1.64a1.721,1.721,0,0,1,.306-1.851,4.734,4.734,0,0,1,2.022-1.657,9.558,9.558,0,0,0,4.688-4.927,2,2,0,0,0-.2-2.024,11.812,11.812,0,0,0-9.551-4.49c-6.467,0-12.048,4.751-12.048,11.135,0,4.277,3.529,7.984,6.473,10.169a.917.917,0,0,0,1.139-.035l2.711-2.283a3.469,3.469,0,0,0,1.225-2.421Z" fill="#383535"/>
      <path id="패스_327" data-name="패스 327" d="M146.79,43.356a1.179,1.179,0,0,1-.7-.234c-1.978-1.468-6.579-5.418-6.579-10.38,0-6.284,5.523-11.4,12.311-11.4a12.123,12.123,0,0,1,9.761,4.6,2.261,2.261,0,0,1,.229,2.289,9.893,9.893,0,0,1-4.819,5.058,4.481,4.481,0,0,0-1.911,1.563c-.443.667-.545,1.193-.3,1.563a.262.262,0,0,1-.345.374l-2.66-1.445-.189,2.847a3.749,3.749,0,0,1-1.318,2.605l-2.71,2.283a1.177,1.177,0,0,1-.76.279m5.028-21.486c-6.5,0-11.786,4.877-11.786,10.872,0,4.724,4.452,8.537,6.366,9.958a.653.653,0,0,0,.813-.024l2.71-2.283a3.221,3.221,0,0,0,1.132-2.238l.217-3.256a.263.263,0,0,1,.136-.213.259.259,0,0,1,.252,0l2.467,1.34a2.54,2.54,0,0,1,.515-1.465,5,5,0,0,1,2.132-1.752,9.382,9.382,0,0,0,4.557-4.8,1.737,1.737,0,0,0-.171-1.758,11.6,11.6,0,0,0-9.341-4.385" fill="#383535"/>
      <path id="패스_328" data-name="패스 328" d="M154.162,36.334a2.945,2.945,0,0,1-3.352,3.289,4.57,4.57,0,0,1-3.9-4.067,2.946,2.946,0,0,1,3.352-3.289,4.57,4.57,0,0,1,3.9,4.067" fill="#ffead3"/>
      <path id="패스_329" data-name="패스 329" d="M160.954,38.128a2.812,2.812,0,1,1-2.811-2.813,2.812,2.812,0,0,1,2.811,2.813" fill="#ffcebb"/>
      <path id="패스_330" data-name="패스 330" d="M145.4,43.911l-6.217,7.159,15.4,2.951,1.7-3.606Z" fill="#fff"/>
      <path id="패스_331" data-name="패스 331" d="M155.238,52.9a.263.263,0,0,1-.238-.375l.945-2.009-10.676-6.381a.263.263,0,1,1,.27-.451l10.88,6.5a.263.263,0,0,1,.1.337l-1.047,2.225a.261.261,0,0,1-.237.151" fill="#383535"/>
      <path id="패스_332" data-name="패스 332" d="M139.186,51.333a.263.263,0,0,1-.2-.435l6.217-7.159a.263.263,0,1,1,.4.345l-6.217,7.159a.263.263,0,0,1-.2.09" fill="#383535"/>
      <path id="패스_333" data-name="패스 333" d="M162.974,32.942c.256.84.114,1.628-.316,1.76s-.988-.443-1.244-1.284-.114-1.628.316-1.76.987.443,1.244,1.284" fill="#383535"/>
      <path id="패스_334" data-name="패스 334" d="M163.97,39.893a5.228,5.228,0,0,1-3.89-1.81.263.263,0,1,1,.4-.339,4.563,4.563,0,0,0,4.336,1.528.263.263,0,0,1,.12.512,4.246,4.246,0,0,1-.967.109" fill="#383535"/>
      <path id="패스_335" data-name="패스 335" d="M154.317,66.022a11.72,11.72,0,0,0-6.781-14.869l.269-1.021-4.493-.668a8.14,8.14,0,0,0-2.957.065l-.017,0-.079.011-.008.012a11.75,11.75,0,0,0-7.275,5.174l0-.011a117.011,117.011,0,0,0-15.538,39.654l37.9-3.944L159.6,73.038Z" fill="#fff"/>
    </g>
  </g>
  <g id="그룹_100" data-name="그룹 100">
    <g id="그룹_99" data-name="그룹 99" clip-path="url(#clip-path-4)">
      <rect id="사각형_71" data-name="사각형 71" width="0.525" height="133.659" transform="translate(98.561 1.051)" fill="#61ba92"/>
      <rect id="사각형_72" data-name="사각형 72" width="0.525" height="133.659" transform="translate(108.447 1.051)" fill="#61ba92"/>
      <rect id="사각형_73" data-name="사각형 73" width="0.525" height="133.659" transform="translate(118.334 1.051)" fill="#61ba92"/>
      <rect id="사각형_74" data-name="사각형 74" width="0.525" height="133.659" transform="translate(128.22 1.051)" fill="#61ba92"/>
      <rect id="사각형_75" data-name="사각형 75" width="0.525" height="133.659" transform="translate(138.107 1.051)" fill="#61ba92"/>
      <rect id="사각형_76" data-name="사각형 76" width="0.525" height="133.659" transform="translate(147.993 1.051)" fill="#61ba92"/>
      <rect id="사각형_77" data-name="사각형 77" width="0.525" height="133.659" transform="translate(157.88 1.051)" fill="#61ba92"/>
      <rect id="사각형_78" data-name="사각형 78" width="0.525" height="133.659" transform="translate(167.767 1.051)" fill="#61ba92"/>
      <rect id="사각형_79" data-name="사각형 79" width="0.525" height="133.659" transform="translate(177.653 1.051)" fill="#61ba92"/>
      <rect id="사각형_80" data-name="사각형 80" width="0.525" height="133.659" transform="translate(187.539 1.051)" fill="#61ba92"/>
      <rect id="사각형_81" data-name="사각형 81" width="0.525" height="133.659" transform="translate(197.426 1.051)" fill="#61ba92"/>
      <rect id="사각형_82" data-name="사각형 82" width="0.525" height="133.659" transform="translate(207.312 1.051)" fill="#61ba92"/>
      <rect id="사각형_83" data-name="사각형 83" width="0.525" height="133.659" transform="translate(217.199 1.051)" fill="#61ba92"/>
      <rect id="사각형_84" data-name="사각형 84" width="133.572" height="0.526" transform="translate(91.356 126.976)" fill="#61ba92"/>
      <rect id="사각형_85" data-name="사각형 85" width="133.572" height="0.526" transform="translate(91.356 117.083)" fill="#61ba92"/>
      <rect id="사각형_86" data-name="사각형 86" width="133.572" height="0.526" transform="translate(91.356 107.19)" fill="#61ba92"/>
      <rect id="사각형_87" data-name="사각형 87" width="133.572" height="0.526" transform="translate(91.356 97.297)" fill="#61ba92"/>
      <rect id="사각형_88" data-name="사각형 88" width="133.572" height="0.526" transform="translate(91.356 87.404)" fill="#61ba92"/>
      <rect id="사각형_89" data-name="사각형 89" width="133.572" height="0.526" transform="translate(91.356 77.511)" fill="#61ba92"/>
      <rect id="사각형_90" data-name="사각형 90" width="133.572" height="0.526" transform="translate(91.356 67.618)" fill="#61ba92"/>
      <rect id="사각형_91" data-name="사각형 91" width="133.572" height="0.526" transform="translate(91.356 57.725)" fill="#61ba92"/>
      <rect id="사각형_92" data-name="사각형 92" width="133.572" height="0.526" transform="translate(91.356 47.832)" fill="#61ba92"/>
      <rect id="사각형_93" data-name="사각형 93" width="133.572" height="0.526" transform="translate(91.356 37.939)" fill="#61ba92"/>
      <rect id="사각형_94" data-name="사각형 94" width="133.572" height="0.526" transform="translate(91.356 28.046)" fill="#61ba92"/>
      <rect id="사각형_95" data-name="사각형 95" width="133.572" height="0.526" transform="translate(91.356 18.153)" fill="#61ba92"/>
    </g>
  </g>
  <g id="그룹_102" data-name="그룹 102">
    <g id="그룹_101" data-name="그룹 101" clip-path="url(#clip-path)">
      <path id="패스_337" data-name="패스 337" d="M140.59,87.913c-1.886.073-3.91.23-6.012.48a57.331,57.331,0,0,0-13.267,2.971l-6.025,28.042a16.141,16.141,0,0,1-3.41,6.968L94.558,146.99a1.406,1.406,0,0,0,.14,1.956,36.3,36.3,0,0,0,7.389,4.862c4.617,2.363,8.969,3.639,11.3,3.47l14.585-17.364a37.141,37.141,0,0,0,7.873-16.086l6.062-28.216a10.481,10.481,0,0,0-1.319-7.7" fill="#383535"/>
      <path id="패스_338" data-name="패스 338" d="M106.114,147.406a.26.26,0,0,1-.169-.062.263.263,0,0,1-.032-.37l11.638-13.855a37.015,37.015,0,0,0,7.817-15.972l.756-3.518a.262.262,0,1,1,.513.11l-.756,3.518a37.537,37.537,0,0,1-7.928,16.2l-11.638,13.854a.262.262,0,0,1-.2.094" fill="#fff"/>
      <path id="패스_339" data-name="패스 339" d="M133.423,110.252a10.524,10.524,0,0,1-2.21-20.809l43.263-9.162a10.522,10.522,0,0,1,4.442,20.569l-43.263,9.162a10.569,10.569,0,0,1-2.231.24" fill="#383535"/>
      <path id="패스_340" data-name="패스 340" d="M117.006,151.231c-2.524,0-6.754-1.344-10.993-3.513a36.69,36.69,0,0,1-7.444-4.9.263.263,0,1,1,.35-.393,36.12,36.12,0,0,0,7.334,4.825c4.42,2.262,8.8,3.613,11.163,3.441a.263.263,0,0,1,.038.525c-.142.01-.292.015-.447.015" fill="#fff"/>
      <path id="패스_341" data-name="패스 341" d="M152.222,38.021a.262.262,0,0,1-.231-.138,2.888,2.888,0,0,0-2.565-1.433.257.257,0,0,1-.274-.25.263.263,0,0,1,.249-.275,3.425,3.425,0,0,1,3.052,1.708.262.262,0,0,1-.23.388" fill="#383535"/>
      <path id="패스_342" data-name="패스 342" d="M152.645,90.192c.255,2.149-7.421,4.826-17.144,5.981s-17.813.349-18.067-1.8,7.421-4.826,17.144-5.981,17.813-.349,18.067,1.8" fill="#383535"/>
      <path id="패스_343" data-name="패스 343" d="M197.01,58.646a.263.263,0,0,1-.06-.518,3.579,3.579,0,0,0,2.372-2.667,10.249,10.249,0,0,0,.066-5.307l-.949-4.095c-.9-3.877-3.459-6.606-5.7-6.086a.263.263,0,0,1-.119-.513c2.527-.583,5.365,2.321,6.329,6.48l.949,4.094a10.792,10.792,0,0,1-.078,5.586,4.07,4.07,0,0,1-2.754,3.02.29.29,0,0,1-.06.006" fill="#383535"/>
      <path id="패스_344" data-name="패스 344" d="M193.961,30.15l-25.332,4.064-.573-3.028,25.066-5.475a2.26,2.26,0,1,1,.839,4.439" fill="#f4d962"/>
      <path id="패스_345" data-name="패스 345" d="M168.628,34.477a.263.263,0,0,1-.041-.523l25.333-4.064a.263.263,0,1,1,.083.519L168.67,34.474a.289.289,0,0,1-.042,0" fill="#383535"/>
      <path id="패스_346" data-name="패스 346" d="M187.777,28.949l-12.962,4.71s-.632,5.412,3.414,8.2l9.927,2.151Z" fill="#ffead3"/>
      <path id="패스_347" data-name="패스 347" d="M178.229,42.119a.26.26,0,0,1-.149-.046c-4.129-2.841-3.533-8.388-3.526-8.444a.263.263,0,0,1,.522.061c-.006.052-.563,5.291,3.3,7.95a.263.263,0,0,1-.149.479" fill="#383535"/>
      <path id="패스_348" data-name="패스 348" d="M223.9,26.947l-53.083,8.516-1.189-6.29L222.153,17.7a4.232,4.232,0,0,1,5.061,3.35l.176.928a4.234,4.234,0,0,1-3.488,4.968" fill="#383535"/>
      <path id="패스_349" data-name="패스 349" d="M210.193,24.821c.484,3.107-.016,5.764-1.117,5.937s-2.386-2.208-2.87-5.314.016-5.764,1.117-5.937,2.386,2.207,2.87,5.314" fill="#383535"/>
      <path id="패스_350" data-name="패스 350" d="M228.769,21.717l-.176-.927a5.631,5.631,0,0,0-6.739-4.462L207.322,19.5v0c1.1-.172,2.386,2.208,2.87,5.314.475,3.045,0,5.653-1.053,5.918l14.984-2.4a5.639,5.639,0,0,0,4.646-6.617" fill="#fff363"/>
      <path id="패스_351" data-name="패스 351" d="M192.238,32.919a1.637,1.637,0,0,1-1.589-2.029,4.8,4.8,0,0,0-.409-3.407,1.676,1.676,0,0,0-1.7-.659c-.614.127-2.728.572-2.728.572a3.063,3.063,0,0,1,3.1-3.878,5.47,5.47,0,0,1,4.338,1.921,8.554,8.554,0,0,1,1.137,6.325c-.184.746-1.408,1.156-2.142,1.156" fill="#ffead3"/>
      <path id="패스_352" data-name="패스 352" d="M181.706,32.682h-2.024L178.2,36.715,181.3,38l2.49-.759-.466-2.159Z" fill="#ffead3"/>
      <path id="패스_353" data-name="패스 353" d="M193.372,31.021l-4.53.427-3.177,1.234-3.247,11.325,7.161.819,2.955-5.411a15.416,15.416,0,0,0,1.867-6.628l.075-1.526Z" fill="#ffead3"/>
      <path id="패스_354" data-name="패스 354" d="M189.167,33.21a1.9,1.9,0,0,1-.461-.056,1.92,1.92,0,0,1-1.4-2.323,5.626,5.626,0,0,0-.479-4,1.966,1.966,0,0,0-2-.774c-.72.149-3.2.671-3.2.671a3.593,3.593,0,0,1,3.636-4.55,6.417,6.417,0,0,1,5.088,2.254,10.034,10.034,0,0,1,1.333,7.419c-.216.876-1.651,1.356-2.513,1.356" fill="#ffead3"/>
      <path id="패스_355" data-name="패스 355" d="M185.863,34.255a2.1,2.1,0,0,1-2.041-2.605c.221-.9.383-3.145-.525-4.375a2.153,2.153,0,0,0-2.189-.847c-.789.164-3.5.734-3.5.734a3.933,3.933,0,0,1,3.98-4.98,7.024,7.024,0,0,1,5.57,2.467c1.873,2.539,1.887,6.39,1.46,8.121-.236.958-1.808,1.485-2.751,1.485" fill="#ffead3"/>
      <path id="패스_356" data-name="패스 356" d="M181.685,35.462a2.1,2.1,0,0,1-2.041-2.605c.221-.9.383-3.145-.525-4.375a2.153,2.153,0,0,0-2.189-.847c-.789.164-3.5.734-3.5.734a3.933,3.933,0,0,1,3.98-4.98,7.022,7.022,0,0,1,5.57,2.467c1.873,2.539,1.887,6.39,1.46,8.121-.236.958-1.808,1.485-2.751,1.485" fill="#ffead3"/>
      <path id="패스_357" data-name="패스 357" d="M191.68,32.117a.242.242,0,0,1-.063-.008.262.262,0,0,1-.191-.318,9.8,9.8,0,0,0-1.29-7.2,6.117,6.117,0,0,0-4.871-2.147,4.015,4.015,0,0,0-1.376.264.263.263,0,1,1-.19-.49,4.533,4.533,0,0,1,1.555-.3,6.641,6.641,0,0,1,5.3,2.36,10.311,10.311,0,0,1,1.377,7.638.262.262,0,0,1-.255.2" fill="#383535"/>
      <path id="패스_358" data-name="패스 358" d="M188.735,32.408a.245.245,0,0,1-.039,0,.263.263,0,0,1-.222-.3c.238-1.619.184-4.978-1.532-7.3a6.479,6.479,0,0,0-3.86-2.232.263.263,0,1,1,.1-.516,7.033,7.033,0,0,1,4.182,2.436c1.817,2.462,1.879,5.992,1.629,7.69a.263.263,0,0,1-.26.224" fill="#383535"/>
      <path id="패스_359" data-name="패스 359" d="M184.639,32.822h-.017a.263.263,0,0,1-.245-.28,10.571,10.571,0,0,0-1.612-6.529,6.633,6.633,0,0,0-4.413-2.317.263.263,0,1,1,.06-.522,7.186,7.186,0,0,1,4.776,2.527,11.112,11.112,0,0,1,1.713,6.876.263.263,0,0,1-.262.245" fill="#383535"/>
      <path id="패스_360" data-name="패스 360" d="M184.685,41.045c-5.158-1.1-9.768-.3-10.765,1.789l-7.526,15.588-14.365-7.445-.006,0a10.4,10.4,0,1,0-6.574,19.462l0,.008s16.842,5.92,27.546,6.376l-.005-.028c.184.009.365.028.551.028a10.206,10.206,0,0,0,9.016-5.424l0,0,.176-.372c.078-.163.16-.322.23-.489L193.583,48l.006-.012,0,0h0a1.99,1.99,0,0,0,.143-.425c.517-2.417-3.535-5.333-9.049-6.514" fill="#fff"/>
      <path id="패스_361" data-name="패스 361" d="M138.107,58.251v6.966c.162.293.337.578.525.853V58.251Z" fill="#61ba92"/>
      <path id="패스_362" data-name="패스 362" d="M138.632,57.725V54.307q-.282.411-.525.849v2.569Z" fill="#61ba92"/>
      <path id="패스_363" data-name="패스 363" d="M147.993,68.144V71.3l.525.169V68.144Z" fill="#61ba92"/>
      <path id="패스_364" data-name="패스 364" d="M148.519,57.725V49.873c-.174-.022-.349-.037-.525-.051v7.9Z" fill="#61ba92"/>
      <rect id="사각형_96" data-name="사각형 96" width="0.525" height="9.367" transform="translate(147.993 58.251)" fill="#61ba92"/>
      <path id="패스_365" data-name="패스 365" d="M157.88,68.144V74.18l.525.136V68.144Z" fill="#61ba92"/>
      <path id="패스_366" data-name="패스 366" d="M158.405,57.725V54.281l-.525-.272v3.716Z" fill="#61ba92"/>
      <rect id="사각형_97" data-name="사각형 97" width="0.525" height="9.367" transform="translate(157.88 58.251)" fill="#61ba92"/>
      <path id="패스_367" data-name="패스 367" d="M167.767,68.144v8.133c.176.027.35.052.525.077v-8.21Z" fill="#61ba92"/>
      <path id="패스_368" data-name="패스 368" d="M168.292,57.725V54.49l-.525,1.088v2.147Z" fill="#61ba92"/>
      <rect id="사각형_98" data-name="사각형 98" width="0.525" height="9.367" transform="translate(167.767 58.251)" fill="#61ba92"/>
      <path id="패스_369" data-name="패스 369" d="M178.178,47.832v-7.15c-.178.024-.355.049-.525.079v7.071Z" fill="#61ba92"/>
      <path id="패스_370" data-name="패스 370" d="M177.653,68.144V75.96c.178-.079.352-.165.525-.253V68.144Z" fill="#61ba92"/>
      <rect id="사각형_99" data-name="사각형 99" width="0.525" height="9.368" transform="translate(177.653 48.358)" fill="#61ba92"/>
      <rect id="사각형_100" data-name="사각형 100" width="0.525" height="9.367" transform="translate(177.653 58.251)" fill="#61ba92"/>
      <path id="패스_371" data-name="패스 371" d="M187.539,58.251v2.577l.525-1.115V58.251Z" fill="#61ba92"/>
      <rect id="사각형_101" data-name="사각형 101" width="0.525" height="9.368" transform="translate(187.539 48.357)" fill="#61ba92"/>
      <path id="패스_372" data-name="패스 372" d="M188.065,47.832V42.053c-.174-.068-.346-.136-.525-.2v5.979Z" fill="#61ba92"/>
      <rect id="사각형_102" data-name="사각형 102" width="9.361" height="0.526" transform="translate(168.292 67.618)" fill="#61ba92"/>
      <rect id="사각형_103" data-name="사각형 103" width="9.362" height="0.526" transform="translate(158.405 67.618)" fill="#61ba92"/>
      <path id="패스_373" data-name="패스 373" d="M178.178,68.144h5.914l.248-.526h-6.162Z" fill="#61ba92"/>
      <path id="패스_374" data-name="패스 374" d="M147.993,67.618h-8.064q.28.274.58.526h7.484Z" fill="#61ba92"/>
      <rect id="사각형_104" data-name="사각형 104" width="9.362" height="0.526" transform="translate(148.519 67.618)" fill="#61ba92"/>
      <rect id="사각형_105" data-name="사각형 105" width="0.525" height="0.526" transform="translate(147.993 67.618)" fill="#61ba92"/>
      <rect id="사각형_106" data-name="사각형 106" width="0.525" height="0.526" transform="translate(157.88 67.618)" fill="#61ba92"/>
      <rect id="사각형_107" data-name="사각형 107" width="0.525" height="0.526" transform="translate(167.767 67.618)" fill="#61ba92"/>
      <rect id="사각형_108" data-name="사각형 108" width="0.525" height="0.526" transform="translate(177.653 67.618)" fill="#61ba92"/>
      <path id="패스_375" data-name="패스 375" d="M138.107,57.725h-1c-.043.174-.085.348-.119.526h1.114Z" fill="#61ba92"/>
      <path id="패스_376" data-name="패스 376" d="M167.766,57.725H166.73l-.254.526h1.29Z" fill="#61ba92"/>
      <path id="패스_377" data-name="패스 377" d="M158.405,58.251h7.659l-1.014-.526h-6.645Z" fill="#61ba92"/>
      <rect id="사각형_109" data-name="사각형 109" width="9.362" height="0.526" transform="translate(148.518 57.725)" fill="#61ba92"/>
      <rect id="사각형_110" data-name="사각형 110" width="9.361" height="0.526" transform="translate(138.632 57.725)" fill="#61ba92"/>
      <path id="패스_378" data-name="패스 378" d="M188.064,58.251h.689l.248-.526h-.937Z" fill="#61ba92"/>
      <rect id="사각형_111" data-name="사각형 111" width="9.361" height="0.526" transform="translate(178.178 57.725)" fill="#61ba92"/>
      <rect id="사각형_112" data-name="사각형 112" width="9.361" height="0.526" transform="translate(168.292 57.725)" fill="#61ba92"/>
      <rect id="사각형_113" data-name="사각형 113" width="0.525" height="0.526" transform="translate(138.107 57.725)" fill="#61ba92"/>
      <rect id="사각형_114" data-name="사각형 114" width="0.525" height="0.526" transform="translate(147.993 57.725)" fill="#61ba92"/>
      <rect id="사각형_115" data-name="사각형 115" width="0.525" height="0.526" transform="translate(157.88 57.725)" fill="#61ba92"/>
      <rect id="사각형_116" data-name="사각형 116" width="0.525" height="0.526" transform="translate(167.767 57.725)" fill="#61ba92"/>
      <rect id="사각형_117" data-name="사각형 117" width="0.525" height="0.526" transform="translate(177.653 57.725)" fill="#61ba92"/>
      <rect id="사각형_118" data-name="사각형 118" width="0.525" height="0.526" transform="translate(187.539 57.725)" fill="#61ba92"/>
      <path id="패스_379" data-name="패스 379" d="M177.653,47.832h-6.147l-.254.526h6.4Z" fill="#61ba92"/>
      <path id="패스_380" data-name="패스 380" d="M188.065,48.358h5.351l.168-.356.006-.013,0,0h0c.023-.049.033-.1.052-.153h-5.578Z" fill="#61ba92"/>
      <rect id="사각형_119" data-name="사각형 119" width="9.361" height="0.526" transform="translate(178.178 47.832)" fill="#61ba92"/>
      <rect id="사각형_120" data-name="사각형 120" width="0.525" height="0.526" transform="translate(177.653 47.832)" fill="#61ba92"/>
      <rect id="사각형_121" data-name="사각형 121" width="0.525" height="0.526" transform="translate(187.539 47.832)" fill="#61ba92"/>
      <path id="패스_381" data-name="패스 381" d="M184.685,41.045a21.531,21.531,0,0,0-4.47-.5,11.1,11.1,0,0,0-4.736.878.757.757,0,0,0,1.021.708,11.233,11.233,0,0,1,3.716-.535,20.36,20.36,0,0,1,4.25.472,17.47,17.47,0,0,1,6.393,2.618c1.311.944,2,1.933,1.849,2.647a.96.96,0,0,1-.07.2l-.01.022L182.012,70.092c-.006.014-.013.029-.019.043-.044.1-.094.205-.143.306l-.068.14-.139.3-.016.03a9.156,9.156,0,0,1-4.759,4.238,1.516,1.516,0,0,0-.986,1.4,10.229,10.229,0,0,0,6.673-5.148l0,0,.176-.372c.078-.163.16-.322.23-.489L193.583,48l.006-.012,0,0h0a1.99,1.99,0,0,0,.143-.425c.517-2.417-3.535-5.333-9.049-6.514" fill="#fff"/>
      <path id="패스_382" data-name="패스 382" d="M169.813,60.457a.26.26,0,0,1-.121-.03L151.908,51.21a.263.263,0,0,1,.242-.467l17.784,9.217a.263.263,0,0,1-.12.5" fill="#383535"/>
      <path id="패스_383" data-name="패스 383" d="M190.881,53.556a.247.247,0,0,1-.055-.006.263.263,0,0,1-.2-.312c.477-2.233-3.575-5.073-8.848-6.2-4.928-1.055-9.528-.332-10.473,1.646a.263.263,0,1,1-.474-.227c1.063-2.223,5.817-3.054,11.057-1.933,5.743,1.229,9.807,4.228,9.252,6.826a.263.263,0,0,1-.256.208" fill="#383535"/>
      <path id="패스_384" data-name="패스 384" d="M190.54,43.329a.263.263,0,0,1-.23-.389l1.993-3.651a15.237,15.237,0,0,0,1.835-6.515l.075-1.526a.262.262,0,1,1,.524.026l-.075,1.526a15.768,15.768,0,0,1-1.9,6.741l-1.993,3.651a.263.263,0,0,1-.23.137" fill="#383535"/>
      <path id="패스_385" data-name="패스 385" d="M188.264,59.552a.254.254,0,0,1-.112-.025.262.262,0,0,1-.126-.349l5.318-11.285a.1.1,0,0,1,.007-.018,1.718,1.718,0,0,0,.124-.369c.224-1.046-.563-2.3-2.159-3.453a18.259,18.259,0,0,0-6.688-2.75c-4.927-1.055-9.529-.333-10.474,1.645L166.63,58.536a.262.262,0,0,1-.357.119L151.927,51.22a.261.261,0,0,1,.01-.489.273.273,0,0,1,.213.012l14.125,7.32,7.408-15.344c1.062-2.223,5.817-3.054,11.057-1.932a18.817,18.817,0,0,1,6.885,2.837c1.8,1.295,2.639,2.711,2.366,3.99a2.276,2.276,0,0,1-.152.459.285.285,0,0,1-.017.039L188.5,59.4a.261.261,0,0,1-.237.15" fill="#383535"/>
      <path id="패스_386" data-name="패스 386" d="M155.206,73.729a.267.267,0,0,1-.07-.01c-5.494-1.522-9.734-3.008-9.776-3.023l-.022-.009a10.627,10.627,0,0,1-8.8-10.493.263.263,0,1,1,.525,0,10.1,10.1,0,0,0,8.425,9.987.254.254,0,0,1,.1.041c.54.187,4.564,1.573,9.681,2.99a.263.263,0,0,1-.07.516" fill="#383535"/>
      <path id="패스_387" data-name="패스 387" d="M129.449,99.247a.263.263,0,0,1-.063-.518c6.407-1.583,5.436-7.319,5.392-7.562a.263.263,0,0,1,.516-.1,7.147,7.147,0,0,1-5.782,8.167.263.263,0,0,1-.063.008" fill="#fff"/>
      <path id="패스_388" data-name="패스 388" d="M133.423,110.515a10.833,10.833,0,0,1-10.525-8.51.263.263,0,0,1,.514-.111,10.24,10.24,0,0,0,12.186,7.861l3.313-.7a.263.263,0,1,1,.109.515l-3.311.7a10.874,10.874,0,0,1-2.285.245" fill="#fff"/>
      <path id="패스_389" data-name="패스 389" d="M140.91,104.314a.263.263,0,0,1-.054-.52l23.929-5.067a.263.263,0,1,1,.109.514l-23.929,5.067a.245.245,0,0,1-.055.006" fill="#fff"/>
      <path id="패스_390" data-name="패스 390" d="M99.113,158.13l3.918-.908a2.085,2.085,0,0,1,2.462,1.414l.947,3.056,5.442-1a3.888,3.888,0,0,1,3.518,1.145l1.584,1.665a1.054,1.054,0,0,1-.475,1.741l-13.558,3.848a7.738,7.738,0,0,1-7.042-1.48,77.618,77.618,0,0,1-6.656-6.09,3.426,3.426,0,0,1,.267-4.974l3.528-2.978a1.577,1.577,0,0,1,2.2.165Z" fill="#383535"/>
      <path id="패스_391" data-name="패스 391" d="M158.738,44.912c.277,0,.555-.012.83-.037a7.339,7.339,0,0,0,5.153-2.632,8.433,8.433,0,0,0,1.717-6.148l1.113-.367a1.142,1.142,0,0,0,.768-.86" fill="none" stroke="#383535" stroke-linecap="round" stroke-linejoin="round" stroke-width="0.528"/>
      <path id="패스_392" data-name="패스 392" d="M170.174,146.795h-10.3l5.433-18.26h10.3Z" fill="#fff"/>
      <path id="패스_393" data-name="패스 393" d="M186.835,142.4l-7.864-.493a4.571,4.571,0,0,1-2.223-.74l-1.65-1.082a1.914,1.914,0,0,0-2.525.383l-1.684,2.04a3.07,3.07,0,0,1-2.751,1.092l-6.361-.8a1.854,1.854,0,0,0-2,1.284l-1.938,6.169a10.722,10.722,0,0,0-.409,2.667,1.6,1.6,0,0,0,2.068,1.537l27.728-8.389a1.876,1.876,0,0,0-.39-3.665" fill="#383535"/>
      <path id="패스_394" data-name="패스 394" d="M177.634,136.453,187.812,94.22a10.515,10.515,0,1,0-20.383-5.177l-11.491,47.41Z" fill="#383535"/>
      <path id="패스_395" data-name="패스 395" d="M165.457,132.021a.25.25,0,0,1-.062-.007.263.263,0,0,1-.194-.317l8.712-36.148a.263.263,0,0,1,.511.123l-8.712,36.148a.263.263,0,0,1-.255.2" fill="#fff"/>
      <path id="패스_396" data-name="패스 396" d="M163.916,103.8a.254.254,0,0,1-.062-.007.263.263,0,0,1-.193-.317l2.328-9.6a.263.263,0,0,1,.511.124l-2.328,9.6a.263.263,0,0,1-.255.2" fill="#fff"/>
      <path id="패스_397" data-name="패스 397" d="M178.455,132.021h-21.17a.263.263,0,0,1,0-.526h21.17a.263.263,0,0,1,0,.526" fill="#fff"/>
      <path id="패스_398" data-name="패스 398" d="M56.477,54.9a7.433,7.433,0,1,0,7.428,7.433A7.439,7.439,0,0,0,56.477,54.9" fill="#383535"/>
      <path id="패스_399" data-name="패스 399" d="M67.459,65.569l0-.006L58.185,63.9,55.051,66.34l.943,4.667h2.642a8.173,8.173,0,1,0,8.824-5.439" fill="#fff"/>
      <path id="패스_400" data-name="패스 400" d="M74.536,73.667a8.174,8.174,0,0,0-7.077-8.1l0-.007L58.185,63.9" fill="none" stroke="#383535" stroke-linecap="round" stroke-linejoin="round" stroke-width="0.528"/>
      <path id="패스_401" data-name="패스 401" d="M103.215,63.416a1.717,1.717,0,0,1,.41-3.408,1.716,1.716,0,0,1,2.972,1.673,3.1,3.1,0,0,1-3.283,1.748l-.1-.013" fill="#ffead3"/>
      <path id="패스_402" data-name="패스 402" d="M102.667,61.288a1.8,1.8,0,0,1,.431-3.581,1.8,1.8,0,0,1,3.124,1.758,3.26,3.26,0,0,1-3.451,1.837l-.1-.014" fill="#ffead3"/>
      <path id="패스_403" data-name="패스 403" d="M102.651,59a1.8,1.8,0,0,1,.431-3.582,1.8,1.8,0,0,1,3.123,1.758,3.261,3.261,0,0,1-3.451,1.837l-.1-.014" fill="#ffead3"/>
      <path id="패스_404" data-name="패스 404" d="M93.361,51.01h0l1.941-.276,1.2.143,1.59-.29,2.344,1.428,3.055,1.153s.537,5.5-.3,8.161a4.944,4.944,0,0,1-4.373,3.48L87.741,65.862l2.349-9.05a12.977,12.977,0,0,1,3.271-5.8" fill="#ffead3"/>
      <path id="패스_405" data-name="패스 405" d="M101.488,57.317A1.7,1.7,0,0,0,102,57.3a4.1,4.1,0,0,0,3.6-3.483c.266-2.25-1.694-3.657-3.665-4.034a10.265,10.265,0,0,0-6.548.3l-1.466.572a1.717,1.717,0,0,0,1.246,3.2l1.466-.572a6.813,6.813,0,0,1,4.412-.178,1.752,1.752,0,0,0,.2.047,2.728,2.728,0,0,1,.918.365c-.124.26-.582.374-.79.412a1.717,1.717,0,0,0,.11,3.393" fill="#ffead3"/>
      <path id="패스_406" data-name="패스 406" d="M106.078,59.753l.2.152a.833.833,0,0,1,.214.229,1.715,1.715,0,0,1,.106,1.547,3.1,3.1,0,0,1-3.283,1.749l-.1-.013a1.716,1.716,0,0,1-1.452-1.945,1.355,1.355,0,0,1,.143-.481" fill="none" stroke="#383535" stroke-linecap="round" stroke-linejoin="round" stroke-width="0.528"/>
      <path id="패스_407" data-name="패스 407" d="M105.984,57.654a1.806,1.806,0,0,1,.237,1.811,3.262,3.262,0,0,1-3.451,1.837l-.1-.014a1.8,1.8,0,0,1-1.526-2.044,2.347,2.347,0,0,1,.216-.633" fill="none" stroke="#383535" stroke-linecap="round" stroke-linejoin="round" stroke-width="0.528"/>
      <path id="패스_408" data-name="패스 408" d="M105.247,54.813a1.8,1.8,0,0,1,.958,2.364,3.26,3.26,0,0,1-3.45,1.837l-.1-.014a1.8,1.8,0,0,1-1.526-2.044" fill="none" stroke="#383535" stroke-linecap="round" stroke-linejoin="round" stroke-width="0.528"/>
      <path id="패스_409" data-name="패스 409" d="M102.32,62.979a5.071,5.071,0,0,1-3.5,1.829" fill="none" stroke="#383535" stroke-linecap="round" stroke-linejoin="round" stroke-width="0.528"/>
      <path id="패스_410" data-name="패스 410" d="M101.049,53.1a1.754,1.754,0,0,0,.2.048,2.72,2.72,0,0,1,.918.365c-.123.261-.581.374-.79.412a1.717,1.717,0,0,0,.11,3.393A1.7,1.7,0,0,0,102,57.3a4.1,4.1,0,0,0,3.6-3.483c.266-2.25-1.694-3.656-3.665-4.033a10.261,10.261,0,0,0-6.548.3" fill="none" stroke="#383535" stroke-linecap="round" stroke-linejoin="round" stroke-width="0.528"/>
      <path id="패스_411" data-name="패스 411" d="M99.378,57.63a4.04,4.04,0,0,1-2.288,3.181l-1.25-7.673a4.043,4.043,0,0,1,3.538,4.492" fill="#ffead3"/>
      <path id="패스_412" data-name="패스 412" d="M97.09,60.812a4.045,4.045,0,0,0-1.25-7.674" fill="none" stroke="#383535" stroke-linecap="round" stroke-linejoin="round" stroke-width="0.528"/>
      <path id="패스_413" data-name="패스 413" d="M98.171,46.475l2.294-.229,1.6,15.993a1.153,1.153,0,1,1-2.294.229Z" fill="#3a3a3a"/>
      <path id="패스_414" data-name="패스 414" d="M95.8,32l0,0,.084-.013q.293-.052.593-.087l1.147-.168.123.108A9.521,9.521,0,1,1,95.8,32" fill="#3a3a3a"/>
      <path id="패스_415" data-name="패스 415" d="M89.331,42.13a9.518,9.518,0,1,0,8.525-10.423A9.519,9.519,0,0,0,89.331,42.13" fill="#3a3a3a"/>
      <path id="패스_416" data-name="패스 416" d="M99.627,49.45a8.307,8.307,0,1,0-9.085-7.441,8.315,8.315,0,0,0,9.085,7.441" fill="#fff"/>
      <path id="패스_417" data-name="패스 417" d="M98.741,49.634a8.307,8.307,0,1,0-5.83-14.891" fill="none" stroke="#3a3a3a" stroke-linecap="round" stroke-linejoin="round" stroke-width="0.528"/>
      <path id="패스_418" data-name="패스 418" d="M97.695,51.144,94.5,51.1a1.717,1.717,0,0,0-.047,3.433l3.009.041.069.018a4.05,4.05,0,0,1,2.767,2.8l.031.105a1.716,1.716,0,1,0,3.292-.97l-.031-.107a7.5,7.5,0,0,0-5.175-5.145" fill="#ffead3"/>
      <path id="패스_419" data-name="패스 419" d="M98.418,51.274a7.5,7.5,0,0,1,5.175,5.145l.012.042a1.762,1.762,0,0,1-1.007,2.151,1.713,1.713,0,0,1-2.265-1.116l-.031-.105a4.257,4.257,0,0,0-1.037-1.775,3.326,3.326,0,0,0-.383-.327l-.345-.26" fill="none" stroke="#383535" stroke-linecap="round" stroke-linejoin="round" stroke-width="0.528"/>
      <path id="패스_420" data-name="패스 420" d="M53.258,38.952a.252.252,0,0,0-.178-.077c-3.849-.048-6.9,1.036-9.075,3.2a12.9,12.9,0,0,0-3.465,8.463c-.138,4.137-1.3,7.179-3.468,9.044a8.66,8.66,0,0,1-6.083,1.959h-.016a6.6,6.6,0,0,0-1.808-.231,6.945,6.945,0,0,0-6.871,6.769,2.788,2.788,0,0,1-1.918,2.567A8.468,8.468,0,0,0,22.738,87.1c.138.006.276.01.414.01a8.468,8.468,0,0,0,8.46-8.47,8.492,8.492,0,0,0-.828-3.648,6.9,6.9,0,0,0,4.756-3.918l9.583,1.684,7.117,2.492a.255.255,0,0,0,.227-.031.252.252,0,0,0,.108-.2l.754-35.887a.252.252,0,0,0-.071-.181" fill="#383535"/>
      <path id="패스_421" data-name="패스 421" d="M94.452,63.147c-4.382-1.089-8.267-.634-8.676,1.015L78.549,82.541h.009a8.165,8.165,0,0,0,15.008,6.391h.011l.043-.111a8.122,8.122,0,0,0,.453-1.174l7.571-19.54v0c.409-1.65-2.811-3.87-7.193-4.959" fill="#fff"/>
      <path id="패스_422" data-name="패스 422" d="M94.452,63.147c-4.382-1.089-8.267-.634-8.676,1.015L78.549,82.541h.009a8.165,8.165,0,0,0,15.008,6.391h.011l.043-.111a8.122,8.122,0,0,0,.453-1.174l7.571-19.54v0C102.054,66.456,98.834,64.236,94.452,63.147Z" fill="none" stroke="#383535" stroke-linecap="round" stroke-linejoin="round" stroke-width="0.528"/>
      <path id="패스_423" data-name="패스 423" d="M99.53,73.624c.409-1.65-2.811-3.87-7.193-4.959s-8.267-.634-8.676,1.015" fill="none" stroke="#383535" stroke-linecap="round" stroke-linejoin="round" stroke-width="0.528"/>
      <path id="패스_424" data-name="패스 424" d="M21.314,109.494l42.65-2.877s9.7-38.6-2.064-42.049l-5.989-1.413-6.519-.247-16.075,4.04,1.352,3.577-7.483,7.789Z" fill="#f4d962"/>
      <path id="패스_425" data-name="패스 425" d="M65.9,97.3c1.479-8.373,2.911-20.392.624-27.369" fill="none" stroke="#383535" stroke-linecap="round" stroke-linejoin="round" stroke-width="0.528"/>
      <path id="패스_426" data-name="패스 426" d="M49.045,53.534,45.621,64.289a20.75,20.75,0,0,1,1.813,1.783c.094.094.194.183.29.274.6.47,1.2.939,1.78,1.43h5.552l3.562-11.19Z" fill="#ffead3"/>
      <path id="패스_427" data-name="패스 427" d="M52.324,45.489a3.057,3.057,0,0,1,3.394-1.149" fill="none" stroke="#277e93" stroke-linecap="round" stroke-linejoin="round" stroke-width="0.528"/>
      <path id="패스_428" data-name="패스 428" d="M62.57,44.953a2.76,2.76,0,0,0-2.963-.648" fill="none" stroke="#277e93" stroke-linecap="round" stroke-linejoin="round" stroke-width="0.528"/>
      <path id="패스_429" data-name="패스 429" d="M64.789,50.853c-.16,5.224-4.809,8.542-10.384,7.41S44.44,51.98,44.6,46.756s4.809-8.542,10.384-7.41,9.965,6.284,9.805,11.508" fill="#ffead3"/>
      <path id="패스_430" data-name="패스 430" d="M53.644,49.055a2.535,2.535,0,1,0,1.9,3.037,2.533,2.533,0,0,0-1.9-3.037" fill="#ffcebb"/>
      <path id="패스_431" data-name="패스 431" d="M61.636,50.894a2.532,2.532,0,0,0,2.434,3.1,8.075,8.075,0,0,0,.719-3.141,9.386,9.386,0,0,0-.137-1.867,2.533,2.533,0,0,0-3.016,1.908" fill="#ffcebb"/>
      <path id="패스_432" data-name="패스 432" d="M63.437,45.577a10.262,10.262,0,0,1,1.352,5.276c-.16,5.225-4.81,8.542-10.385,7.411" fill="none" stroke="#383535" stroke-linecap="round" stroke-linejoin="round" stroke-width="0.528"/>
      <path id="패스_433" data-name="패스 433" d="M56.646,52.274s2.354,1.647,4.127.609" fill="none" stroke="#383535" stroke-linecap="round" stroke-linejoin="round" stroke-width="0.528"/>
      <path id="패스_434" data-name="패스 434" d="M58.79,47.547l1.846,1.338a1.043,1.043,0,0,1,.132,1.575l-.564.574" fill="none" stroke="#383535" stroke-linecap="round" stroke-linejoin="round" stroke-width="0.528"/>
      <path id="패스_435" data-name="패스 435" d="M63.494,45.179a13.011,13.011,0,0,0-8.46-6.08A9.381,9.381,0,0,0,47.3,40.7a7.868,7.868,0,0,0-2.949,6.046c0,.139,0,.277.007.415l.005.151a.252.252,0,0,0,.176.232c.371.118.689.2,1,.272a11.486,11.486,0,0,0,2.434.261c3.654,0,6.953-1.755,7.919-4.463a4.619,4.619,0,0,0,.245-1.073.145.145,0,0,1,.1-.126.173.173,0,0,1,.185.044,10.824,10.824,0,0,0,4.79,2.689,13.58,13.58,0,0,0,2.035.406.252.252,0,0,0,.248-.378" fill="#383535"/>
      <rect id="사각형_122" data-name="사각형 122" width="12.505" height="12.498" transform="matrix(0.231, -0.973, 0.973, 0.231, 4.561, 184.493)" fill="#fff"/>
      <path id="패스_436" data-name="패스 436" d="M15.527,182.734l2.306-2.786a2.155,2.155,0,0,1,2.748-.486l4.946,2.894a6.12,6.12,0,0,0,1.782.7l4.859,1.065a3.21,3.21,0,0,1,2.492,2.691l.056.4a2.255,2.255,0,0,1-2.232,2.569H3.55a1.69,1.69,0,0,1-1.633-2.117,17.683,17.683,0,0,1,2.291-5.656.883.883,0,0,1,.834-.322l9.42,1.453a1.154,1.154,0,0,0,1.065-.4" fill="#383535"/>
      <path id="패스_437" data-name="패스 437" d="M41.99,105.381a126.1,126.1,0,0,0-15.262,2.029S3.024,168.7.06,176.39a.88.88,0,0,0,.513,1.148c2.293.815,7.1,1.376,12.651,1.376a52.7,52.7,0,0,0,11.567-1.055,1.638,1.638,0,0,0,1.136-1l27.841-71.976c-3.368-.011-7.423.148-11.778.493" fill="#383535"/>
      <path id="패스_438" data-name="패스 438" d="M63.067,106.254c.111,1.4-9.146,3.272-20.675,4.187s-20.965.524-21.076-.873,9.146-3.272,20.675-4.187,20.965-.524,21.076.873" fill="#383535"/>
      <rect id="사각형_123" data-name="사각형 123" width="11.849" height="11.842" transform="matrix(0.231, -0.973, 0.973, 0.231, 54.826, 173.903)" fill="#fff"/>
      <path id="패스_439" data-name="패스 439" d="M65.217,172.237,67.4,169.6a2.041,2.041,0,0,1,2.6-.46l4.686,2.742a5.82,5.82,0,0,0,1.688.66l4.6,1.009a3.041,3.041,0,0,1,2.361,2.55l.054.383a2.137,2.137,0,0,1-2.115,2.434H53.868a1.6,1.6,0,0,1-1.547-2.006,16.728,16.728,0,0,1,2.171-5.359.835.835,0,0,1,.79-.306l8.926,1.377a1.094,1.094,0,0,0,1.01-.384" fill="#383535"/>
      <path id="패스_440" data-name="패스 440" d="M76.363,117.627,60.155,105.21c-3.673-.468-10.447-.442-18.165.171-2.15.17-4.221.375-6.167.6A10.6,10.6,0,0,0,39.8,116.334l23.678,18.141a1.024,1.024,0,0,1,.345,1.149L52.549,168.249c-.109.316-.2.633-.276.951,1.954.758,6.319,1.286,11.393,1.286a49.318,49.318,0,0,0,9.8-.829,2.056,2.056,0,0,0,1.493-1.343l8.9-25.759a22.221,22.221,0,0,0-7.5-24.928" fill="#383535"/>
      <path id="패스_441" data-name="패스 441" d="M58,165.857l9.95-28.805A5.4,5.4,0,0,0,66.131,131L49.156,118" fill="none" stroke="#fff" stroke-linecap="round" stroke-linejoin="round" stroke-width="0.528"/>
      <path id="패스_442" data-name="패스 442" d="M49.608,99.44,42.753,73.788l-.01,0a8.17,8.17,0,1,0-15.455,4.726l5.352,20.026a9.93,9.93,0,0,0,8.024,7.34,8.28,8.28,0,0,0,1.508.091L47.1,96.551l-.621-2.275Z" fill="#fff"/>
      <path id="패스_443" data-name="패스 443" d="M44.178,105.885a8.156,8.156,0,0,0,1.222-.3l18.266-4.412-5.788-15.3L40.766,89.909l0,.008A8.169,8.169,0,0,0,44.056,105.9l.006.009Z" fill="#fff"/>
      <path id="패스_444" data-name="패스 444" d="M63.649,92.438c1.6,4.225,1.606,8.139.017,8.741s-4.172-2.336-5.771-6.562-1.606-8.139-.017-8.741,4.172,2.336,5.77,6.562" fill="#383535"/>
      <path id="패스_445" data-name="패스 445" d="M56.844,66.058a5.2,5.2,0,0,0-1.368-2.412c-.016.024-.033.047-.049.071-.059.093-.113.191-.165.289-.114.219-.215.443-.322.665a2.978,2.978,0,0,1-.959,1.246.451.451,0,0,1-.107.039.7.7,0,0,1-.473.24.536.536,0,0,1-.532-.468c-.037-.037-.073-.074-.112-.109-.134-.122-.268-.249-.412-.359-.38-.295-.793-.555-1.193-.822a14.082,14.082,0,0,1-1.8-1.356,3.326,3.326,0,0,0-.609,2.977,5.435,5.435,0,0,0,5,4.052,3.105,3.105,0,0,0,3.1-4.052" fill="#fff"/>
      <path id="패스_446" data-name="패스 446" d="M46.435,61.074h0a2.143,2.143,0,0,0-.992.868l-1.381,2.3,6.032,5.2a.608.608,0,0,0,.847-.053l2.631-2.911Z" fill="#fff"/>
      <path id="패스_447" data-name="패스 447" d="M53.573,66.477l3.013,3.044a.209.209,0,0,0,.355-.122l.632-5.36a1.971,1.971,0,0,0-.156-.929l-.477-1.1Z" fill="#fff"/>
      <line id="선_1" data-name="선 1" y1="2.911" x2="2.631" transform="translate(50.941 66.477)" fill="none" stroke="#383535" stroke-linecap="round" stroke-linejoin="round" stroke-width="0.528"/>
      <line id="선_2" data-name="선 2" x2="3.013" y2="3.044" transform="translate(53.572 66.477)" fill="none" stroke="#383535" stroke-linecap="round" stroke-linejoin="round" stroke-width="0.528"/>
      <line id="선_3" data-name="선 3" x1="7.137" y1="5.403" transform="translate(46.435 61.074)" fill="none" stroke="#383535" stroke-linecap="round" stroke-linejoin="round" stroke-width="0.528"/>
      <line id="선_4" data-name="선 4" x1="3.366" y2="4.471" transform="translate(53.572 62.006)" fill="none" stroke="#383535" stroke-linecap="round" stroke-linejoin="round" stroke-width="0.528"/>
      <path id="패스_448" data-name="패스 448" d="M46.241,52.575A6.563,6.563,0,1,0,52.8,59.137a6.568,6.568,0,0,0-6.558-6.562" fill="#383535"/>
      <path id="패스_449" data-name="패스 449" d="M50.413,50.472c-.12,1.568-1.695,2.577-3.517,2.255A3.525,3.525,0,0,1,43.812,49.3c.12-1.568,1.695-2.577,3.517-2.255a3.525,3.525,0,0,1,3.083,3.423" fill="#ffead3"/>
      <path id="패스_450" data-name="패스 450" d="M49.156,51.215a2.4,2.4,0,0,0-2.9-1.524" fill="none" stroke="#383535" stroke-linecap="round" stroke-linejoin="round" stroke-width="0.528"/>
      <path id="패스_451" data-name="패스 451" d="M56.328,47.761A1.022,1.022,0,1,1,55.1,46.724a1.157,1.157,0,0,1,1.233,1.037" fill="#383535"/>
      <path id="패스_452" data-name="패스 452" d="M63.042,47.624a1.022,1.022,0,1,1-1.233-1.037,1.157,1.157,0,0,1,1.233,1.037" fill="#383535"/>
      <path id="패스_453" data-name="패스 453" d="M80.644,103.146H60a1.252,1.252,0,0,1-1.173-1.69L71.344,67.9a1.251,1.251,0,0,1,1.172-.815H93.163a1.253,1.253,0,0,1,1.173,1.691L81.817,102.332a1.252,1.252,0,0,1-1.173.814" fill="#4c4b4b"/>
      <path id="패스_454" data-name="패스 454" d="M66.994,94.284h-.037a1.849,1.849,0,0,1,.035-3.7h0a16.416,16.416,0,0,0,8.49-2.793A1.849,1.849,0,0,1,77.6,90.825a19.961,19.961,0,0,1-10.6,3.459" fill="#ffead3"/>
      <path id="패스_455" data-name="패스 455" d="M65.865,91.741h-.039a1.943,1.943,0,0,1,.036-3.886h0a17.253,17.253,0,0,0,8.922-2.935,1.943,1.943,0,0,1,2.222,3.187,20.978,20.978,0,0,1-11.141,3.634" fill="#ffead3"/>
      <path id="패스_456" data-name="패스 456" d="M77.644,91.364a1.554,1.554,0,0,0-2.164-.386,13.73,13.73,0,0,1-5.945,2.249l-3.689-8.658a2.463,2.463,0,0,1-.042-1.825l.809-2.166c-1.554.147-4.678,1.486-5.506,2.81l-4.4,5.955A17.741,17.741,0,0,0,57.9,94.617a21.047,21.047,0,0,0,.918,2.082l6.278.5c3.67.68,10.214-2.306,12.166-3.669a1.556,1.556,0,0,0,.386-2.165" fill="#ffead3"/>
      <path id="패스_457" data-name="패스 457" d="M64.715,88.349h-.037a1.849,1.849,0,0,1,.035-3.7h0A16.413,16.413,0,0,0,73.2,81.859a1.848,1.848,0,0,1,2.114,3.033,19.958,19.958,0,0,1-10.6,3.458" fill="#ffead3"/>
      <path id="패스_458" data-name="패스 458" d="M75.316,84.891a20.007,20.007,0,0,1-8.793,3.323" fill="none" stroke="#383535" stroke-linecap="round" stroke-linejoin="round" stroke-width="0.528"/>
      <path id="패스_459" data-name="패스 459" d="M77.006,88.107a21.035,21.035,0,0,1-9.282,3.5" fill="none" stroke="#383535" stroke-linecap="round" stroke-linejoin="round" stroke-width="0.528"/>
      <path id="패스_460" data-name="패스 460" d="M77.007,91.221a20.159,20.159,0,0,1-8.113,2.917" fill="none" stroke="#383535" stroke-linecap="round" stroke-linejoin="round" stroke-width="0.528"/>
      <path id="패스_461" data-name="패스 461" d="M59.926,98.593a19.068,19.068,0,0,1-2.03-3.976c-1.6-4.226-1.606-8.139-.017-8.741" fill="none" stroke="#383535" stroke-linecap="round" stroke-linejoin="round" stroke-width="0.528"/>
      <line id="선_5" data-name="선 5" x1="17.113" y2="4.033" transform="translate(40.766 85.876)" fill="none" stroke="#383535" stroke-linecap="round" stroke-linejoin="round" stroke-width="0.528"/>
      <path id="패스_462" data-name="패스 462" d="M27.289,78.517l5.352,20.026a9.93,9.93,0,0,0,8.024,7.34,8.336,8.336,0,0,0,1.508.092l0,0c.222.018.444.034.669.034a8.186,8.186,0,0,0,1.212-.1l.006.009.116-.028a8.092,8.092,0,0,0,1.222-.3L58.619,102.4" fill="none" stroke="#383535" stroke-linecap="round" stroke-linejoin="round" stroke-width="0.528"/>
      <path id="패스_463" data-name="패스 463" d="M57.5,102.722c-1.589.6-4.172-2.336-5.77-6.562s-1.606-8.139-.017-8.741" fill="none" stroke="#383535" stroke-linecap="round" stroke-linejoin="round" stroke-width="0.528"/>
      <line id="선_6" data-name="선 6" x1="3.782" y1="14.152" transform="translate(43.099 73.955)" fill="none" stroke="#383535" stroke-linecap="round" stroke-linejoin="round" stroke-width="0.528"/>
      <path id="패스_464" data-name="패스 464" d="M3.6,169.843c2.293.815,7.1,1.376,12.651,1.376a52.7,52.7,0,0,0,11.567-1.055" fill="none" stroke="#fff" stroke-linecap="round" stroke-linejoin="round" stroke-width="0.528"/>
      <path id="패스_465" data-name="패스 465" d="M54.844,164.055c1.954.758,6.319,1.286,11.393,1.286a49.357,49.357,0,0,0,9.8-.829" fill="none" stroke="#fff" stroke-linecap="round" stroke-linejoin="round" stroke-width="0.528"/>
      <path id="패스_466" data-name="패스 466" d="M32.39,112.665s-20.092,51.954-22.6,58.47" fill="none" stroke="#fff" stroke-linecap="round" stroke-linejoin="round" stroke-width="0.528"/>
      <line id="선_7" data-name="선 7" y1="12.651" x2="4.894" transform="translate(47.706 107.91)" fill="none" stroke="#fff" stroke-linecap="round" stroke-linejoin="round" stroke-width="0.528"/>
      <line id="선_8" data-name="선 8" x2="27.687" transform="translate(4.703 187.533)" fill="none" stroke="#fff" stroke-linecap="round" stroke-linejoin="round" stroke-width="0.527"/>
      <line id="선_9" data-name="선 9" x2="27.687" transform="translate(53.472 176.915)" fill="none" stroke="#fff" stroke-linecap="round" stroke-linejoin="round" stroke-width="0.527"/>
    </g>
  </g>
</svg>
